<mxfile host="app.diagrams.net" agent="Mozilla/5.0 (Windows NT 10.0; Win64; x64) AppleWebKit/537.36 (KHTML, like Gecko) Chrome/138.0.0.0 Safari/537.36" version="28.0.6">
  <diagram id="Ht1M8jgEwFfnCIfOTk4-" name="Page-1">
    <mxGraphModel dx="2391" dy="1400" grid="1" gridSize="10" guides="1" tooltips="1" connect="1" arrows="1" fold="1" page="1" pageScale="1" pageWidth="827" pageHeight="1169" background="#ffffff" math="0" shadow="0">
      <root>
        <mxCell id="0" />
        <mxCell id="1" parent="0" />
        <mxCell id="wssLdagy5Da7dfHTv9jN-16" value="Hospital" style="points=[[0,0,0],[0.25,0,0],[0.5,0,0],[0.75,0,0],[1,0,0],[1,0.25,0],[1,0.5,0],[1,0.75,0],[1,1,0],[0.75,1,0],[0.5,1,0],[0.25,1,0],[0,1,0],[0,0.75,0],[0,0.5,0],[0,0.25,0]];rounded=1;absoluteArcSize=1;arcSize=2;html=1;strokeColor=none;gradientColor=none;shadow=0;dashed=0;fontSize=15;fontColor=#9E9E9E;align=left;verticalAlign=top;spacing=10;spacingTop=-4;fillColor=default;strokeWidth=3;" vertex="1" parent="1">
          <mxGeometry x="40" y="134.91" width="600" height="905.09" as="geometry" />
        </mxCell>
        <mxCell id="_Tn5D_dkqsPfIdNLR1im-19" value="AWS Cloud" style="points=[[0,0,0],[0.25,0,0],[0.5,0,0],[0.75,0,0],[1,0,0],[1,0.25,0],[1,0.5,0],[1,0.75,0],[1,1,0],[0.75,1,0],[0.5,1,0],[0.25,1,0],[0,1,0],[0,0.75,0],[0,0.5,0],[0,0.25,0]];rounded=1;absoluteArcSize=1;arcSize=2;html=1;strokeColor=none;gradientColor=none;shadow=0;dashed=0;fontSize=15;fontColor=#9E9E9E;align=left;verticalAlign=top;spacing=10;spacingTop=-4;fillColor=default;spacingLeft=15;strokeWidth=3;" parent="1" vertex="1">
          <mxGeometry x="660" y="130" width="1340" height="890" as="geometry" />
        </mxCell>
        <mxCell id="uW-U2YIZJB603hHS5h9t-1" value="Region" style="points=[[0,0],[0.25,0],[0.5,0],[0.75,0],[1,0],[1,0.25],[1,0.5],[1,0.75],[1,1],[0.75,1],[0.5,1],[0.25,1],[0,1],[0,0.75],[0,0.5],[0,0.25]];outlineConnect=0;gradientColor=none;html=1;whiteSpace=wrap;fontSize=15;fontStyle=0;shape=mxgraph.aws4.group;grIcon=mxgraph.aws4.group_region;strokeColor=#147EBA;fillColor=none;verticalAlign=top;align=left;spacingLeft=30;fontColor=#147EBA;dashed=1;strokeWidth=3;" parent="1" vertex="1">
          <mxGeometry x="890" y="140" width="1080" height="800" as="geometry" />
        </mxCell>
        <mxCell id="uW-U2YIZJB603hHS5h9t-2" value="VPC" style="points=[[0,0],[0.25,0],[0.5,0],[0.75,0],[1,0],[1,0.25],[1,0.5],[1,0.75],[1,1],[0.75,1],[0.5,1],[0.25,1],[0,1],[0,0.75],[0,0.5],[0,0.25]];outlineConnect=0;gradientColor=none;html=1;whiteSpace=wrap;fontSize=15;fontStyle=0;shape=mxgraph.aws4.group;grIcon=mxgraph.aws4.group_vpc;strokeColor=#248814;fillColor=none;verticalAlign=top;align=left;spacingLeft=30;fontColor=#AAB7B8;dashed=0;strokeWidth=3;" parent="1" vertex="1">
          <mxGeometry x="910" y="178" width="1040" height="742" as="geometry" />
        </mxCell>
        <mxCell id="wssLdagy5Da7dfHTv9jN-5" value="EC2" style="points=[[0,0,0],[0.25,0,0],[0.5,0,0],[0.75,0,0],[1,0,0],[1,0.25,0],[1,0.5,0],[1,0.75,0],[1,1,0],[0.75,1,0],[0.5,1,0],[0.25,1,0],[0,1,0],[0,0.75,0],[0,0.5,0],[0,0.25,0]];rounded=1;absoluteArcSize=1;arcSize=2;html=1;strokeColor=none;gradientColor=none;shadow=0;dashed=0;fontSize=15;fontColor=#9E9E9E;align=left;verticalAlign=top;spacing=10;spacingTop=-4;fillColor=#EFEBE9;strokeWidth=3;" vertex="1" parent="1">
          <mxGeometry x="1169" y="769" width="480" height="130" as="geometry" />
        </mxCell>
        <mxCell id="_Tn5D_dkqsPfIdNLR1im-27" value="AWS EKS (Kubernetes)" style="points=[[0,0,0],[0.25,0,0],[0.5,0,0],[0.75,0,0],[1,0,0],[1,0.25,0],[1,0.5,0],[1,0.75,0],[1,1,0],[0.75,1,0],[0.5,1,0],[0.25,1,0],[0,1,0],[0,0.75,0],[0,0.5,0],[0,0.25,0]];rounded=1;absoluteArcSize=1;arcSize=2;html=1;strokeColor=#d6b656;shadow=0;dashed=0;fontSize=15;align=left;verticalAlign=top;spacing=10;spacingTop=-4;spacingLeft=15;strokeWidth=3;fillColor=#fff2cc;container=0;" parent="1" vertex="1">
          <mxGeometry x="940" y="213.94" width="980" height="470" as="geometry" />
        </mxCell>
        <mxCell id="-QjtrjUzRDEMRZ5MF8oH-47" value="Cloud System" style="text;html=1;resizable=0;points=[];autosize=1;align=left;verticalAlign=top;spacingTop=-4;fontSize=30;fontStyle=1;labelBackgroundColor=none;strokeWidth=3;" parent="1" vertex="1">
          <mxGeometry x="36.5" y="26.5" width="220" height="40" as="geometry" />
        </mxCell>
        <mxCell id="-QjtrjUzRDEMRZ5MF8oH-48" value="Example" style="text;html=1;resizable=0;points=[];autosize=1;align=left;verticalAlign=top;spacingTop=-4;fontSize=15;labelBackgroundColor=none;strokeWidth=3;fontStyle=1" parent="1" vertex="1">
          <mxGeometry x="36.5" y="76.5" width="90" height="30" as="geometry" />
        </mxCell>
        <mxCell id="SCVMTBWpLvtzJIhz15lM-1" value="" style="line;strokeWidth=3;html=1;fontSize=15;labelBackgroundColor=none;" parent="1" vertex="1">
          <mxGeometry x="40" y="101.5" width="1960" height="10" as="geometry" />
        </mxCell>
        <mxCell id="_Tn5D_dkqsPfIdNLR1im-6" value="" style="aspect=fixed;html=1;points=[];align=center;image;fontSize=15;image=img/lib/mscae/Cloud_Service.svg;strokeWidth=3;" parent="1" vertex="1">
          <mxGeometry x="665.1400000000001" y="140" width="17.86" height="15" as="geometry" />
        </mxCell>
        <mxCell id="_Tn5D_dkqsPfIdNLR1im-72" value="" style="group;fontSize=15;strokeWidth=3;" parent="1" vertex="1" connectable="0">
          <mxGeometry x="680" y="236" width="180" height="68" as="geometry" />
        </mxCell>
        <mxCell id="hDUS5wMfhW6zqDfbg5dA-17" value="" style="group;fontSize=15;strokeWidth=3;" parent="_Tn5D_dkqsPfIdNLR1im-72" vertex="1" connectable="0">
          <mxGeometry width="180" height="68" as="geometry" />
        </mxCell>
        <mxCell id="_Tn5D_dkqsPfIdNLR1im-17" value="" style="shape=mxgraph.gcp2.doubleRect;strokeColor=#dddddd;shadow=1;strokeWidth=3;fontSize=15;" parent="hDUS5wMfhW6zqDfbg5dA-17" vertex="1">
          <mxGeometry width="180" height="68" as="geometry" />
        </mxCell>
        <mxCell id="hDUS5wMfhW6zqDfbg5dA-16" value="&lt;meta charset=&quot;utf-8&quot; style=&quot;font-size: 15px;&quot;&gt;&lt;font style=&quot;font-family: Helvetica; font-size: 15px; font-style: normal; font-variant-ligatures: normal; font-variant-caps: normal; font-weight: 400; letter-spacing: normal; orphans: 2; text-align: left; text-indent: 0px; text-transform: none; widows: 2; word-spacing: 0px; -webkit-text-stroke-width: 0px; background-color: rgb(248, 249, 250); text-decoration-thickness: initial; text-decoration-style: initial; text-decoration-color: initial;&quot; color=&quot;#000000&quot;&gt;AWS Route 53&lt;/font&gt;&lt;br style=&quot;font-family: Helvetica; font-size: 15px; font-style: normal; font-variant-ligatures: normal; font-variant-caps: normal; font-weight: 400; letter-spacing: normal; orphans: 2; text-align: left; text-indent: 0px; text-transform: none; widows: 2; word-spacing: 0px; -webkit-text-stroke-width: 0px; background-color: rgb(248, 249, 250); text-decoration-thickness: initial; text-decoration-style: initial; text-decoration-color: initial; color: rgb(153, 153, 153);&quot;&gt;&lt;span style=&quot;font-family: Helvetica; font-size: 15px; font-style: normal; font-variant-ligatures: normal; font-variant-caps: normal; font-weight: 400; letter-spacing: normal; orphans: 2; text-align: left; text-indent: 0px; text-transform: none; widows: 2; word-spacing: 0px; -webkit-text-stroke-width: 0px; background-color: rgb(248, 249, 250); text-decoration-thickness: initial; text-decoration-style: initial; text-decoration-color: initial; color: rgb(153, 153, 153);&quot;&gt;DNS&lt;/span&gt;" style="sketch=0;outlineConnect=0;fontColor=#232F3E;gradientColor=none;fillColor=#4D27AA;strokeColor=none;dashed=0;verticalLabelPosition=middle;verticalAlign=middle;align=left;html=1;fontSize=15;fontStyle=0;aspect=fixed;pointerEvents=1;shape=mxgraph.aws4.route_53_resolver;spacingLeft=10;labelPosition=right;strokeWidth=3;" parent="hDUS5wMfhW6zqDfbg5dA-17" vertex="1">
          <mxGeometry x="10" y="14.5" width="39" height="39" as="geometry" />
        </mxCell>
        <mxCell id="_Tn5D_dkqsPfIdNLR1im-31" value="Ingress" style="points=[[0,0,0],[0.25,0,0],[0.5,0,0],[0.75,0,0],[1,0,0],[1,0.25,0],[1,0.5,0],[1,0.75,0],[1,1,0],[0.75,1,0],[0.5,1,0],[0.25,1,0],[0,1,0],[0,0.75,0],[0,0.5,0],[0,0.25,0]];rounded=1;absoluteArcSize=1;arcSize=2;html=1;strokeColor=none;gradientColor=none;shadow=0;dashed=0;fontSize=15;fontColor=#9E9E9E;align=left;verticalAlign=top;spacing=10;spacingTop=-4;fillColor=#EFEBE9;strokeWidth=3;" parent="1" vertex="1">
          <mxGeometry x="955" y="253.94" width="206" height="150" as="geometry" />
        </mxCell>
        <mxCell id="_Tn5D_dkqsPfIdNLR1im-34" value="Service" style="points=[[0,0,0],[0.25,0,0],[0.5,0,0],[0.75,0,0],[1,0,0],[1,0.25,0],[1,0.5,0],[1,0.75,0],[1,1,0],[0.75,1,0],[0.5,1,0],[0.25,1,0],[0,1,0],[0,0.75,0],[0,0.5,0],[0,0.25,0]];rounded=1;absoluteArcSize=1;arcSize=2;html=1;strokeColor=none;gradientColor=none;shadow=0;dashed=0;fontSize=15;fontColor=#9E9E9E;align=left;verticalAlign=top;spacing=10;spacingTop=-4;fillColor=#EFEBE9;strokeWidth=3;" parent="1" vertex="1">
          <mxGeometry x="955" y="423.94" width="206" height="150" as="geometry" />
        </mxCell>
        <mxCell id="_Tn5D_dkqsPfIdNLR1im-40" value="" style="group;fontSize=15;strokeWidth=3;" parent="1" vertex="1" connectable="0">
          <mxGeometry x="964" y="289.94" width="180" height="68" as="geometry" />
        </mxCell>
        <mxCell id="hDUS5wMfhW6zqDfbg5dA-13" value="" style="group;fontSize=15;strokeWidth=3;" parent="_Tn5D_dkqsPfIdNLR1im-40" vertex="1" connectable="0">
          <mxGeometry width="180" height="68" as="geometry" />
        </mxCell>
        <mxCell id="_Tn5D_dkqsPfIdNLR1im-32" value="" style="shape=mxgraph.gcp2.doubleRect;strokeColor=#dddddd;shadow=1;strokeWidth=3;fontSize=15;" parent="hDUS5wMfhW6zqDfbg5dA-13" vertex="1">
          <mxGeometry width="180" height="68" as="geometry" />
        </mxCell>
        <mxCell id="hDUS5wMfhW6zqDfbg5dA-12" value="&lt;font style=&quot;text-align: left; font-size: 15px;&quot; color=&quot;#000000&quot;&gt;AWS ELB&lt;/font&gt;&lt;br style=&quot;text-align: left; color: rgb(153, 153, 153); font-size: 15px;&quot;&gt;&lt;span style=&quot;text-align: left; color: rgb(153, 153, 153); font-size: 15px;&quot;&gt;Elastic Load Balancer&lt;/span&gt;" style="sketch=0;outlineConnect=0;fontColor=#232F3E;gradientColor=none;fillColor=#4D27AA;strokeColor=none;dashed=0;verticalLabelPosition=middle;verticalAlign=middle;align=left;html=1;fontSize=15;fontStyle=0;aspect=fixed;pointerEvents=1;shape=mxgraph.aws4.application_load_balancer;labelPosition=right;spacingLeft=10;strokeWidth=3;" parent="hDUS5wMfhW6zqDfbg5dA-13" vertex="1">
          <mxGeometry x="7.25" y="12.449999999999989" width="39" height="39" as="geometry" />
        </mxCell>
        <mxCell id="_Tn5D_dkqsPfIdNLR1im-35" value="" style="edgeStyle=orthogonalEdgeStyle;fontSize=15;html=1;endArrow=blockThin;endFill=1;rounded=0;strokeWidth=3;endSize=4;startSize=4;dashed=0;strokeColor=#4284F3;" parent="1" source="_Tn5D_dkqsPfIdNLR1im-32" target="_Tn5D_dkqsPfIdNLR1im-36" edge="1">
          <mxGeometry x="520" y="203.94" width="100" as="geometry">
            <mxPoint x="930" y="333.94" as="sourcePoint" />
            <mxPoint x="974" y="333.94" as="targetPoint" />
          </mxGeometry>
        </mxCell>
        <mxCell id="_Tn5D_dkqsPfIdNLR1im-43" value="" style="group;fontSize=15;strokeWidth=3;" parent="1" vertex="1" connectable="0">
          <mxGeometry x="964" y="464.94" width="180" height="68" as="geometry" />
        </mxCell>
        <mxCell id="_Tn5D_dkqsPfIdNLR1im-36" value="" style="shape=mxgraph.gcp2.doubleRect;strokeColor=#dddddd;shadow=1;strokeWidth=3;fontSize=15;" parent="_Tn5D_dkqsPfIdNLR1im-43" vertex="1">
          <mxGeometry width="180" height="68" as="geometry" />
        </mxCell>
        <mxCell id="_Tn5D_dkqsPfIdNLR1im-42" value="&#xa;&#xa;&lt;font color=&quot;#000000&quot; style=&quot;font-family: helvetica; font-size: 15px; font-style: normal; font-weight: 400; letter-spacing: normal; text-align: left; text-indent: 0px; text-transform: none; word-spacing: 0px; background-color: rgb(248, 249, 250);&quot;&gt;Service&lt;/font&gt;&lt;br style=&quot;color: rgb(153, 153, 153); font-family: helvetica; font-size: 15px; font-style: normal; font-weight: 400; letter-spacing: normal; text-align: left; text-indent: 0px; text-transform: none; word-spacing: 0px; background-color: rgb(248, 249, 250);&quot;&gt;&lt;span style=&quot;color: rgb(153, 153, 153); font-family: helvetica; font-size: 15px; font-style: normal; font-weight: 400; letter-spacing: normal; text-align: left; text-indent: 0px; text-transform: none; word-spacing: 0px; background-color: rgb(248, 249, 250); display: inline; float: none;&quot;&gt;Pod Connect&lt;/span&gt;&#xa;&#xa;" style="outlineConnect=0;fontColor=#232F3E;gradientColor=none;fillColor=#5A30B5;strokeColor=none;dashed=0;verticalLabelPosition=middle;verticalAlign=middle;align=left;html=1;fontSize=15;fontStyle=0;aspect=fixed;pointerEvents=1;shape=mxgraph.aws4.nat_gateway;spacingLeft=10;labelPosition=right;strokeWidth=3;" parent="_Tn5D_dkqsPfIdNLR1im-43" vertex="1">
          <mxGeometry x="7.25" y="9" width="39" height="39" as="geometry" />
        </mxCell>
        <mxCell id="_Tn5D_dkqsPfIdNLR1im-29" value="" style="edgeStyle=orthogonalEdgeStyle;fontSize=15;html=1;endArrow=blockThin;endFill=1;rounded=0;strokeWidth=3;endSize=4;startSize=4;dashed=0;strokeColor=#4284F3;" parent="1" source="_Tn5D_dkqsPfIdNLR1im-17" target="_Tn5D_dkqsPfIdNLR1im-32" edge="1">
          <mxGeometry width="100" relative="1" as="geometry">
            <mxPoint x="710" y="412" as="sourcePoint" />
            <mxPoint x="914" y="270" as="targetPoint" />
            <Array as="points">
              <mxPoint x="1054" y="270" />
            </Array>
          </mxGeometry>
        </mxCell>
        <mxCell id="_Tn5D_dkqsPfIdNLR1im-183" value="" style="group;fontSize=15;strokeWidth=3;" parent="1" vertex="1" connectable="0">
          <mxGeometry x="120" y="236" width="180" height="68" as="geometry" />
        </mxCell>
        <mxCell id="_Tn5D_dkqsPfIdNLR1im-81" value="" style="shape=mxgraph.gcp2.doubleRect;strokeColor=#dddddd;shadow=1;strokeWidth=3;fontSize=15;" parent="_Tn5D_dkqsPfIdNLR1im-183" vertex="1">
          <mxGeometry width="180" height="68" as="geometry" />
        </mxCell>
        <mxCell id="_Tn5D_dkqsPfIdNLR1im-174" value="&lt;font color=&quot;#000000&quot; style=&quot;font-size: 15px;&quot;&gt;Users &amp;amp; Admin&lt;/font&gt;" style="outlineConnect=0;gradientColor=none;fontColor=#545B64;strokeColor=none;fillColor=#879196;dashed=0;verticalLabelPosition=middle;verticalAlign=middle;align=left;html=1;fontSize=15;fontStyle=0;aspect=fixed;shape=mxgraph.aws4.illustration_users;pointerEvents=1;rounded=1;shadow=1;glass=0;sketch=0;spacingLeft=10;labelPosition=right;strokeWidth=3;" parent="_Tn5D_dkqsPfIdNLR1im-183" vertex="1">
          <mxGeometry x="13.5" y="10" width="39" height="39" as="geometry" />
        </mxCell>
        <mxCell id="_Tn5D_dkqsPfIdNLR1im-160" value="" style="group;fontSize=15;strokeWidth=3;" parent="1" vertex="1" connectable="0">
          <mxGeometry x="965.3714285714286" y="593.54" width="180" height="56.4" as="geometry" />
        </mxCell>
        <mxCell id="_Tn5D_dkqsPfIdNLR1im-165" value="" style="group;fontSize=15;strokeWidth=3;" parent="_Tn5D_dkqsPfIdNLR1im-160" vertex="1" connectable="0">
          <mxGeometry width="180" height="56.4" as="geometry" />
        </mxCell>
        <mxCell id="_Tn5D_dkqsPfIdNLR1im-161" value="" style="strokeColor=#dddddd;shadow=1;strokeWidth=3;absoluteArcSize=1;fillColor=#ffffff;verticalAlign=middle;html=0;fontSize=15;" parent="_Tn5D_dkqsPfIdNLR1im-165" vertex="1">
          <mxGeometry width="180" height="56.4" as="geometry" />
        </mxCell>
        <mxCell id="_Tn5D_dkqsPfIdNLR1im-159" value="&lt;font color=&quot;#000000&quot; face=&quot;helvetica&quot; style=&quot;font-size: 15px;&quot;&gt;HPA&lt;/font&gt;&lt;br style=&quot;font-size: 15px; font-style: normal; font-weight: 400; letter-spacing: normal; text-align: left; text-indent: 0px; text-transform: none; word-spacing: 0px; font-family: helvetica; background-color: rgb(248, 249, 250); color: rgb(153, 153, 153);&quot;&gt;&lt;font color=&quot;#999999&quot; face=&quot;helvetica&quot; style=&quot;text-align: left; text-indent: 0px; font-size: 15px;&quot;&gt;&lt;span style=&quot;background-color: rgb(248, 249, 250); font-size: 15px;&quot;&gt;scale in &amp;amp; out&lt;/span&gt;&lt;/font&gt;" style="outlineConnect=0;fontColor=#232F3E;gradientColor=none;fillColor=#D05C17;strokeColor=none;dashed=0;verticalLabelPosition=middle;verticalAlign=middle;align=left;html=1;fontSize=15;fontStyle=0;aspect=fixed;pointerEvents=1;shape=mxgraph.aws4.auto_scaling2;rounded=1;shadow=1;glass=0;sketch=0;labelPosition=right;spacingLeft=10;strokeWidth=3;" parent="_Tn5D_dkqsPfIdNLR1im-165" vertex="1">
          <mxGeometry x="9.999999999999998" y="9.87" width="34.18297297297296" height="34.18297297297296" as="geometry" />
        </mxCell>
        <mxCell id="uW-U2YIZJB603hHS5h9t-4" value="" style="group;fontSize=15;strokeWidth=3;" parent="1" vertex="1" connectable="0">
          <mxGeometry x="1439" y="803.97" width="180" height="68" as="geometry" />
        </mxCell>
        <mxCell id="uW-U2YIZJB603hHS5h9t-5" value="" style="group;fontSize=15;strokeWidth=3;" parent="uW-U2YIZJB603hHS5h9t-4" vertex="1" connectable="0">
          <mxGeometry width="180" height="68" as="geometry" />
        </mxCell>
        <mxCell id="uW-U2YIZJB603hHS5h9t-6" value="" style="shape=mxgraph.gcp2.doubleRect;strokeColor=#dddddd;shadow=1;strokeWidth=3;fontSize=15;" parent="uW-U2YIZJB603hHS5h9t-5" vertex="1">
          <mxGeometry width="180" height="68" as="geometry" />
        </mxCell>
        <mxCell id="uW-U2YIZJB603hHS5h9t-7" value="&lt;font face=&quot;helvetica&quot; style=&quot;font-size: 15px;&quot;&gt;&lt;span style=&quot;background-color: rgb(248, 249, 250); font-size: 15px;&quot;&gt;Engine&lt;/span&gt;&lt;/font&gt;&lt;br style=&quot;background-color: rgb(248, 249, 250); font-family: helvetica; color: rgb(153, 153, 153); font-size: 15px;&quot;&gt;&lt;font color=&quot;#999999&quot; face=&quot;helvetica&quot; style=&quot;background-color: rgb(248, 249, 250); font-size: 15px;&quot;&gt;Python&lt;/font&gt;" style="shape=image;verticalLabelPosition=middle;labelBackgroundColor=#ffffff;verticalAlign=middle;aspect=fixed;imageAspect=0;image=data:image/png,iVBORw0KGgoAAAANSUhEUgAAAGkAAABgCAYAAAAejVzyAAAAIGNIUk0AAHomAACAhAAA+gAAAIDoAAB1MAAA6mAAADqYAAAXcJy6UTwAAAAGYktHRAD/AP8A/6C9p5MAAAAJcEhZcwAALiMAAC4jAXilP3YAAAAHdElNRQfoCBMCFjB92tHqAAAkOUlEQVR42t19eZheRZnv761zvr2XdHc66Q50CA0hJCRhMbIOgijKongVLu7jrgMj3ovAdQCfqw4i4jaDoDzjDAMKKiKgeF0GURh22XfClpCdJN1Jev3Wc+q9f5ytqk59X3eHmKiV5+Q7p05Vnar3V+9adU4T/gLTZ25qw/zlEptXEfY/3EehkEcp140B9zBc/dzN7pF70axSZnZ/zmmfnxGFQYdy+ziUHRBweomcHoLTIUiUCJQFKOMg42RQuiQn2i59ZvWrOGu//97TQ5xRcvd0B6J04Z9KmDtYQ7Xso6Nboi3fjRMWvRl3bLk+X0Bhb+nz4k288uDTF71hmSNy+wk4/UTUCXCBSQqGD0YdEhLBuQSDAUjk0IleXr69gTHcee5dAGhPD3dGaY+CdM5vgX0PIYyNMPrnE9ryC/CB3pfxvfHcHOnz8lfxyN8tnn3oUQ7llgiiuUx+RqIBD6OQqMdgADJukwEkIBAARhalusv5tQ4yOO36A/Dzzj056pmnPQLSV1e6mLtvAdVKDe3FuTip/3O4e+JLvZ7vHXEjLz2pr7TsWEHOQpBfkKijgYkQFIkAhoQTCGRc64kBOMhPuChuIiZ8uPPlPTHk15V2K0jfWCOwdJ/DsX5iJTqy+2Hr2OPZkuSDn/Sue9fs4pJTBWGxpEbOxzjqqILhAzCBIIuw0oFLcgO+cpDbkePOIR/13UrcXZV2C0jf3ihwyLwzsaZyD+oowWevs+FVTti/+w0fFIKOBzV6fIyijkoIjErw6Jyt8AR30DSfQHA5t6VDDoyO4NXdRNZdm/6sIH1zXQYDA4swUd6GcWwHM3eXG0OnzS4t/igRHylpMtfAJBieokvSAisitgkUx/9TU6AAAQf5Db3lk8tD2W/vARK//vRnAenCBxwsPGQeGl4FLndDyq3tZW/ruzryA2eRqB/uY4crUY7FGSDC30hs2YFKUhqoZiA5cJBBfu0VnSQPGfnMbiXurkri9Tehp+8P92DU9VFw52GsMuw2vPJJs4r7/tx18Z9SDB9dx2uuj7EYIAYUg0A9oNwPzgKDmuM8GeYGeXq9ZIAZOMitWYpTUXK79jS9dyrtMk666EGBZYcdgYZXwbve+E5sqz23aJ+eoz8PUXufT0MdEpMIyBpwSpqc3EJkkSLampVki9ZiOMg0MlxY14Z5WL1xw24n8K5Iu4ST/m3rfrj0SB9Z6ob0kB/11n7CzTq/8p1tn27Qxo6Ac2Q41zkmsso3CS9FvKHyR/rf9BLBRXYig9KmPHfhvQfesKfpvVPJeT2VhQv8ePR4ZEQnNuTvQL1RXZgtuN+SzvYvNGjzHB/jUB3NKHFLRZ8ILVL+N5P9HsW8FJ0V0fNaPw79Xt1rjMnCMrzj4hwOeuNyPPK7l3YzqXc+7XR85P/ck8VxR3wYnl/DN/7hpzj/mne9w3OGL2vQpqUeRmEHJyKfvRucyo2MCBvDi1RLUXk1v5v3e8wZ2+u0a3732Objz3xeehNZyHoRfqUTta2DyLRvx8SqJfjyKT/dE/SfVtopkL75/Hwcvvj9KNdG4NdyBb+48XM1Z/0X6rShS6Ial+OmcOg5PCW3qEdyV3VyyZInIFD05k5sKD/1vM/eakhnJWTmWZbui7LasX7BwNqxDeMOuNoFWe7F/9pnJS5/7ARcfNTd8Bs+/lLSjEH6waq34ojBEzHUeA1enXrr+TVfLTsvf7yO11y7I5o4oyoX2U1qsuYGnESW+wIq/5jPdJGBU2vDxspTgIjMCvIItJ1ZrAK7T0C6D7KXf5Qn91qT2evJqj/eDVmei7aBlRh56hScf8hv9zRGMwPph2tPxtvnvw3P+2uAenHfiexzV4w7z72zgW1I8w1N8duqOzaNkwaKQpGXFqDBdRZFNCYJmysrQWF1Cg9QrL0kIDZDOk+BM3fCL9wpJ/da6fQ+WeHJPsjxBaDcGMafXoEvnvKj3Y8QZgDSz179JN65oIpHZB+4nl88mnni38bE08d6NJo0xqpxTWHrkThrFnuzE9heTkAHiUKohLWNPNoxPjqJ4foaCBIAcQBQ1D3Suhm0x2Ib2H0UMncbvNLvvQduXJ057h3MkwMQnWtQe+XtOO+wW//yQPrRK+/BwfsVMeLPgdvoOWjYve+aEeeJI3xMWIipNE7KHaYoE7pyt9VONEw6X6Tqp7kpOC/wLAyPbMVoY3MIUsiLBDCx2p0YvPgXBLCzBjJ7O/zijZhc8BB1PVXh8gK4s19CdeUp+Pzy3SMKpwTpivvOwPHHrEDZq0A0OhZtyfzxuh3i0SN9KqeqT414SMxo6sakFdaydqBErItagUQACrIbG3esQdkfhSBKQIofz/GjSO2WBhYAdsbA2XvhF66lWt8daH9xDBMLgcIWeOvejHMPvuXPClJLZ/YzN/XghCPegloNKNQHBobcu69uBhCAJoEZvQQbLiw3rcVNWjSdWb2Mau+xBDzUA86B4TgzAu7m4CbLII/DpqLzoJjfwaJyKjIjP+bi6l+gMetMyEIbqAa3ZxWu3LIQF99yxp8NpJaT/7nJG+BRBQVvXteq3HU/GHLuPcMT4y2qTsfkNsRgXEI0FYHmelIk9lTuSYyIqIZAptGBtWMrIdk32lNaUjkKifhTz9O9dWqQ2TvJb7sSI0f8AV0PN3jrCaDSOpwz//7dB9KTQ9cjly9gn8bpmfuLH798s3vHuQ2x3Rgit2iKWj7EDpTq55j1zfxI7NlAAgRcoJbH+okXEUfX2fLEGBD9JhlAmeMIxeA4ceFmNGb9C/euf4a2HgBR2IaJF96ELxz+i10GklXc3fHq1zG78Ub8qO0MPFI492NDzn1nN0gFCMHANUmTFktIRd6Uu6yLrCR0yk32LZjiT2/RFJsCDhqyBiaZ6B/BmlWn4pbqPSv5nC7DAEB+O4vJj3F2669pR8+5JPOd7DOKnXlcue7oXQZSapKfeVU7Pn/251BpjKDgzztqnXPLzyfcF/YypxOz0QDN6DGJYFI4ijXuifgnMRKS/1UOcpQ7iTmeQQHjk5MYbmyE4MAxCFyEafbStPqUAnaZISTJwn/B6/oyZq9/hLYcBDhVvHbfwbj03a/PZE/1+akdP4SfHUde9vW8lL36pu3OIyeAkrWfaTU4LcNeIXziWGq7fVQxp4tB0wRPgBQQIABZLmF4chvG/OGgdMhocde4WY/sIDUHKloxDs85s55k+9eofOB1yK+rUmkjKi+fgPOX37HTIGni7iePfw7t3gE4rPhZrHNvOXuUnjkB5KXHZF+fS8pNayUhEYVgVSDqC36JFRiJQKVeeJ810ZjUb6CmqzIRumuqX6wEMlgtG7XHMPoTnevGTNQrUGOAnZHvcumZ70IW+rnWiVz1rbhy7bE7DZI2eR6qXoIxrEZW9hyxwfnVbVVn/VwiYQepZUth1gyCTqT4TnqDZFwJjbKqqRAZEgICGVnAxsl18Liud80U01G7zSaWyTmU5nN7FQJx/m543eehuP4x2v4mwJnAZ/sfnxlCUDjpdyu/DlHvwGDtE4UhevD8qtg0N9IX2gxvtTXH4CzV75gqMdsaUhfJk6X2ZEFQ5SipcZQvPUhYItkG1ySxvCZH8x43IUfCVUyV45AZ/ilV+0/mve4BCcZVWw7eeZDEgY9iTe4neMG94qQJsepUiGiAKZtmGhTfObBMiy/dYARJM9En43OPG5Aspx+dbAWSca3vkrUDFcUsGfWF7Oy4lkbmfLh06+Mg4eN7Q0tmDtJtL1+E7MQg9q6+t31EPHeWJ8YKyYwwiG1ZyE7/hodhnjPbFsJ1XZSUgXnHCpS5JB9t+/JkIwioWoicDtW2wI5s5WzRluasx1Sfy87olRPvn/NpZ/2XiQi4enj6QAkAoH2ew6bMr7HR/fWJNdr8JiLdB4o5wWossOVXUf4xF7UWl5pHlTIk2FIyOpfhWcJNAKPBdajmXETs6Yq3VtIuHbGM1EKzcgRGo5Od0W/5+/3DWaXNXyYQ8P1t0wNKXPzr4+GW+7F39WP5Mq35iBSVnG7eNKnZwsJLFzDE3dRBvrgCG+Czdh6BJFNlPW5YbZApATLLaEVsa1ecurIPjwD47SzGvz4xcPbHN3Q/D2IX3xtaOjVIhx41GyOZh7HJuXVFnbYfp1lkbAQUmh2te6fRvRlY3KyCIcxIEYVp4yLMZYbHXkzlaRuZqlERZcUBvlaVmozXmue1szP+jXnjvaf7s56GqPfiyg2HtAaJyj34cfFxVGnju5lqnVFUeDrEtwHIU9RpCpa1mtlgAhRS8Cl5LOGzb+UWVg4bJ8WXKa6j1jKwBVBaDwlg8rrZmfiOKPcdLbsehbvXk7j8ycOag1TrfBIfHDtyrkdjbwtdoiRMrx6YmoEiemp1uDlmdmMu4pPkJTDd2W0GVMBNBMBnCQlfp6mhk9TFPhMYMiuq6EEpPA2A4nOjuKT6fOmMfUf4Hfug3IuuAzY2B6nsrEZFbHgDi9pCs+HXnSzIprI44QFwertxHHDlyD9KfCEdqOiBBMlekKNwghmu0mhOgAiPyKmOylMYT7LGKGfirZt1AYDqR7Azepnjd7RBuvjB2D52kIaKQ/Ax8WaQzOmU3TXYAGhpHTJ0zmvmVLHCYTK1py/hNALgsR/CZaeNmmmTYBRGYtNL6pbY5BQ4WfWSGkCk2pnSHf7UZGkjyCviu6sG0yD1btuvQ6J2eNARW+xsaiBU9S0tedp5SpQqHNNETMbPZFbKy5BG5qZlwJOelTBsijgzZgeV+cKQrmXlb5rSLsXJdt9YOkzVC4qVrqNkaT1K+25Ng+Q72xdAyP2TtZWoKd2yinyXiOhAImZmwnuJmAv9IQYkG0AbnJfWgwlHRRyjOr0++9rs5xQAaTpGF4Hd1IQHrTLPaLip+a4TSe0zk9fPovolp9HWKSt5/PuOPh0kSdWlIO5JHLJUDCAEKCGcVXzNFC0VMoW1UmApEyQ2J1gasQZFhzHDZ6kRvRVAVmqbGJBxX803DtUQiaMabJDFMJiYAYnGW31n/IONwjCcLfNx7s0DcRGX4S8ThFykdFmbm/r/an4zkqc6YaODUYCUUahPYApnhvqrPEMShxGyxOMPAJapR9oMB7WvFJohGh5qN6PdLCaAxlhbSUG1OisXwaPYkdT4XKbWcbu/z8pVS/uTt5IESC6KRB3HssXwMk1TjDnWJ6rYSpebKg9pi09TaHr7ujsQcBQrO44CLCWYGUTJVi9tb50lCjGV08sRe4SrJJrZDjuXpmeIMiea+Y+Qi5gan3osPw7UXVzw674QJPB8DQylNbbINNN51B+f9qBSgdiY6FI3Eiw+WdyM1H9tQEVFfCljKw+I/B5K+0OqWCPLfIRibBj01nxbGzItUWuRiCHJe/+KWmkJt09iybGTIUiE2TRFazr5jVe4NE5hU8XYOYcBZlK4MV2HmSEVHZW6LwOdJcGh8xq8RRjpo4iDkiM4ofBIyqg+kapnkrJmJDwev91csyBq3Ce9jci6ZAA+8XxJ3oc25spAPRB59P0xZ7ubS79MmjiZQDP2NLsesDJZVBeZpZICzWaiyk+k58cSSpnSRA5c5NGoe6j45YC4IpJmnG7amGiawLPoGY0eUf7rcScNEaxypAPxUsZ3TwR4nTeUhQCQT8/yaT7IppMUI0AXkuYWrCaiznZI/Vdq+jAMG4XRiihmR0LXQalIj2Kapb6qYlhpZl48BsPH2gmMtPNoYwDAC9nxT23kPfQPjCn5002GwrffsnlQM/CpLCKQpXowpARkeC1lpOMCsSeEoYOmcGJY6Iek4FDzVHEoLCDaRFpTvUTJfE6peAKYmCTxu9omM4Udk3m4nHxMwfDulTYNQGzgtMI01ROeGihudUMRpxwSjJkhhYQkCTHFzLYqezYIrtMttsBjCWz0Qxue2T7p922mvKqnQpN8RSPrLwHhMZeBSQkuktIz0zBoZc9NSWBuXpZtAzUqcqpC+t3zSF9UZQ1u0YEQsiUxzMuI4KqO0Vwk1itw9Ks5Pkme1YFNqJ8eZgR8bMEwGOhh4LiGy4+5LDECRi8rI7ISFM2TafvbiGjSiC3Iq+1wNJ/UvOgNCObYOpQS8H2gUQdqDYGBgW74zhDArEkAVh+uAhRlGwTUOCX8Vd6UCdqM/Eu2cw/F/TYeql3anGQKPQ4+tmdcXOUy4zVmLCSilsSdChgrkAqRyOQo1p+nbUIMG2dWuFsx16WkWCf5PuB5AUgeMwguHDiQ8FKEC8CguGMqsVUCUqpS8CtDoOIgSBPwoz6TCjLUwhwDpMZvSZ2YQb+WVbO8t8uSVzPzm8x4CJsjbMUpthusthYRngxuMQBiBXyLlSdjgALDwZeA9AHfA3yPIR2G5OB7QiAZO8/JNuYk/GMJ0cVbylTCp9QJJX0jCyFSbarPieWg5eFqDxngQOT1SYHFLks8xwyOdj+l/Bi2i0BumqneT+s5GzDRoOMQUXguFXAi0cYROJF154fnPgA3cIBdOCB4cQTc8JKQ7DyPuhDObPXlAQWwWG+pA4g4ILwWkU5KkT4VBNTfTI1KhQ2x9gIDikw41PU9POVKHmeBDttTpgTHVl4BR8FB0S0KOBGICkBRREJGpngYXQgA4hgslglAzABEEBYScMGoN9WypgpIpFJUOoj9pYBSMTJIxWkskqew7Y1eBVRSwFFYN2BWWux6dX4h42OjcNGhmltsMHokrqzIAbp4NMFRgDD9LH1VVuUe1l6RZE44KAZI4S7JDEcAvvRB4dd41Mi2+auCk8ADpZ4BlGEix/UtaDMiLlGmiR1FrTGtBMWbUwfF9jX8mvTwJMuIdubLXqpoUi/UrFB8qMRHQvhwi4IeIDUPU4xJirmHI26xARS1z0GUwZc+BFxNpJnvups+py0lEXTSxGDsAGsHhZyQxAcTeRgipr9noN8OaUdqkVjnUZ+Ytyzj+Q3cxdLopbJUbQtcqXjZwImIFwMUlVGBUgnOMKIISV1pgKLWhR9yHwEkCJ70QeyENEngMCf8dA59omu6wlRNejzRYBattBJfIiVLKIwloEQ0iDpFbZLh1XGv9LFJ7YVpsWk7t0N0EnD0aLUm0lTLTdFJscUGHRxwYKFFoSEZg8IxyHq0XJksBEjpga1vB9q/9qDN3hRncVKOdKBI+2cx2ylqm+JXsIVxqJwUVePwYYnvRkXRqEiMbPBe8Rt0dzzLUwBF1xQqQUo5itrShMItzQCSKkco99X8iHMSDmKdC1nJF4F15ksfkMkHOdK8FBkHyYenpsM90SQQRPFhAiZIF5FEIlwwpGSpRG0/Ep0xaYOM4DopJbJFQu/+ec+r0U3sUy3udAqgcGiGXmL1v2lykDRM7MTk5lhMSoNTVN0TTyYJjYsCTpKQHL2iCQtQwRFxD4MgNQ6BUdL+L3hmQvz4Sy+k86xZK7HiVMWk11D5kkiw2PC0RGWMUB1z7vIb9FDT1dEUDup6qw5UfM2JaFSJTQoAKhgJwGmO0axBBfwoj0QEtISUjOTzAdahtzhLA5KIrOaQqaCqLZrPJZDmC6X5EVC/xiSQaYgrTmXMHqyjs1+ONqriWukHL8maAOlvbit7RlXblKEBl3AQw2BAXX8hAcbkRtOEZxuoYFC4PMEs4UsJfQXGLtbs8Nh9KAn9pWsVBpoCQH2ScKof6fOE2wTcEQEA6x4tYnw4g+pY5ja/7txvBj9Toi+6nbCMznoKQhzqMVbYIeHWoExqmRxpUaiCbgLICDkpLOPHnKRHGMyZOxWX6WVYI7n6iVKTLs0mg9qXNAemyxEILvJDAgAuPXIcbT0+2nrljkbFvUL6omxzWGNw1MYU6qobTWIQOf0toGi3qhqGiH0/zXJRQVcmho06IiGf7/tIf16WtKJ2oWTO9ah8c8vQ7OJ0ACNt8jSxEBFoziy3rYllwuYXXIxvyWHHuo7f+NXsTVAdVNi4iNI9syoyCwdEIsocXWjmmLrHpITuYAeji60tDkJD6kc4dIimn+wWn824sCcTNBuwzZ/JcOAih+7nYpAuO2YMTpbRNVCr1yeLl/v1zIvNNlrEEQYFALY+NFqlUs2N9EBMJFQA1DUZ1h6UmC+gRNwBQdQh+uQ5WcnbGrTmokr3rZrdawZWM06zAcYAXBQrJe5/UnvW+icIf7zsFHTM2/5Co1L8ivTdsu2BAKxhentS4uocXVu6HVl09ia0Xw3q0LJTCSQ5iDrYiWzTStNLzaISM03TJV2OOzd3ygOf1kby6M0VfPDqcVRHO7DtlYEXSrPHOpyMd4y+rqy4hi30lkp/s6wqxtgo32wrWZyf+i4dgzJAJkcQIgDMdVy05dsgqRyLjlguGkSfCoxW5alFO7b66kulZK0f5Aa2qYsuLLzv72pXX5PaKfTPh6+GcH3MXrjJq2zvucyrFm5VQ71NcaEpskk5Z/3+1PvXQu5j2x0E5rcyfGYfwRafhCDNyDcVN9iMA1trzThMB4NgAqSWIqX9DEro4H3v+nFxTtW6neuF3zvI5D3k2ss7qiM9n/fqhXvi5poqqilGqFxrn2Ztkq+3TUhvIkieGX+pOGxKsgz1JiF5tax552Yqtmz6pZUuUu+bIld1AxRTCyXuG+rm5Xct9y+077m74dxXseaBHrTPG0KuY2JtY6znLL9WfIRb9ayFbGhVzARX3YBoLcvpLCHMshIsg1gBW5/TSlClU6tSNiCalYvK6H8exazHcDmHTux//0HV856fWz+5+cbIq973DNbcvRxv6d+CbPvo8/Xx2Z+U9eLDqRGT+vDmg0uZrQb3TPXmnGoFmfRO9nZH5WS4WUQklcx+NwGKLHnTSXbrNrgTeYJmfE69VhdZS+hvzJaH/eze0ofqXuGV1n9Q5L7rN6HnuCNx0dKX8WjD3VIfn32fcBtLhGjsi/jBTVCJshQQ1cVJnb0tNDR8r1RIKLolgGye4DiB2BMECAdoy3ZCuHVINDS92BwUMq5bQTm9pLdITdrWg20OZ9CHox4+yPvfl7T5B1TGNvVNvcX40hP+hC/edRSWzBmCWxh/oTE67yOy3nEjs+Do2z4pbmoysuhearuuwYbTIkgYiI3ra89mSJYguFYxR4bwSRsX9l7sHFB6tCKYZ7YYQzD72jDfm8tH/8fD2X/cfmf2eCyZv2J6+8AvPeFB/Pfv34zcrB1wcpUN9eFFn5G1WZeyzIyDwiVU5WPoJlDaZnfFBDI/wmT7/k8MbIpIrMXszCSlhEAGqrhpTsiEoFNoUI34qthqDg/iRZPmH4kKAMqgiLk4/L7Bxgd/sbx+CU4cXwVgBn8/6d4b1mDZYW9H+947QJC1sYfOujvX/+xLJLxlEF5vMiZK6xeTS5qJPTNfi66TEU0P+EFkCZkMQTghdwrAEUDeLSGXycLDBEBC2aeQbE/RX8BM/+qiUAVED47qmi4d/TYFmznZohZ6cdj4oPyf523J/OHpotNAf/4EADN8o+LyM36Dp65fAG4UUFz8K5npWnezP7H3/0Cj84dgpxoF9QEGRX8XQvvmNqe4xRR70SsrhHDdP+Io5e9MJA5qaNkpXBfV9aUHQgYmZxCa/ykgk4xsENcylxQY7V/5V4WrHaAglWge5vHx1+838aH/WlD9FMY3L47vzfjPxV130R04f/HD8Mt5/LLEoEzlpcamYz/D1d6Pwi8+muytDQkbdSZakCIdoPhrJFB0k0jASgBU3spThqj5SMqvhBeIO7KRZab6Ju2mkvWeqePIAqaZGC7asDe/5bH5/mnf3Nh2u98Q27Go/8idBylKFx5xBw6+9j2gRgdEcUtNtG/8mRwfPI3rXReBc6uiDmirywCivUpECbdFYkoovyAdJF23JawjhPG5dwqGJVkC7DTVGGHvpjFSGx+lQUu3PbWzG+Rn0MdHDQ/It124JfOHNePObfjto9e37MFOpcsfPB1zj7wFI2uXILvP86ivW7I/5bb+PZzKByAa+8Xfo4vjbeFjZdAFVdeo27ekJG2XqpQMv8Hw/GA5whdAoV3AzQR6SAiCcAVcIZB18+jvGETVeSn+ZIBu7Nph0t0C0nhhyuhVUyCawSjQixX1hfLMLxwoPvuvI5NrsbX2Eg7oOXHXgwQAA4vm4tybD4G/fRGyg79DYe+XUV5/4CBlt70HTuW9oMZykJ+N1/Ui2131fSKgTLB8gvQ52DzpAY0Gw/MZ0mUU2gUcF3CIIBwHQgg4QsB1stirY3/UMy/B57om9lSwTNI3W0qYCiSaRn0zdWMp7yff862l5X/64lDm/rrPhP7CMalyr+uvY6ppbNskbr96FQ5YOohZAw4qq4+B27l+h+hd/4AcXnwriB8hQp2AWUToALFqcMVGA5DoIHVvGiixQVhSsESeATJZCkSecEHkgkiASECQi/ZcD9jZAQkvaRjTn5mtzAubod5c/6RFZhcOwgJ50n8O1N9y0Y7MExUQoT9//Iz68bpTNp/B1x58Cyb/dDY6T7oY1LYWjWfPctz9f76A3PFj2amdCPJWgLwBgAvmYp/2KYBwC7LvEzwP8GpApSaBAiNfdOBQFkK4EMIBiWD/myMymNe+L5BfjTqPaSABwZJ4s7d4W4m8pMzUfpfpMkcirgsHYUC++Zo+b8X5Dac8kkEbvnrzZ3H1+17bvSCp6ZJffALthz4EOdEDMWsdqLgR3tMXOM6+P+tDZnQJnNpSkL8E5O8PcD/AnQwugpEH4DKziMEK3+qbKDOQc5DPdcKhbACOiEJDBCEE5pQG4BbXosbDiCytiH1FaEgnoU7bGrE1LjCDFAAsYniy6MEyv49X/GBWfeGF7PijObcTtz37dZyz7PkpQd9t6Uu3vRdzDn8W9W1zQe3rgPwwRGEE57QD33p5/6LIjXeQW++E8GaBuYvBnUTcxhJFMErMKPo+ZSfLuVkZ98AzHMfpYTEOOHUIxwc5Ek5oFXYV+pAvbUIFm5KhaiBBA6rVakv0m/xhcB246PXRdDQwKOGiHbOxfLJHLvpGod75LXLy5azowB3rvo1/HFw3BdR7MJ3zL+9FpruMRR+4H5vuPwClviE4hUlQpgoSDQR/uNIHkQRIgoQEBFD3gQu6gH996axP18Vr35HO9hKcMuDUQa4PhxiCCO25HrS1D6OMV+OhMukBnYSM6sqTbcUn2a1B4ZniBVpiFwloRfSjmxevK/Hs/1sdf/WG9uJBvktteGDjj3H2gvVT0mmPgjTd9KFLj8ENF9+PwTd24W0fPhzHfuhN2PHaVsyZOFKs77r5fM8ZuQTuZBZOHeT4EEKCiFDKdGFWxxgm6MVkoEQpgFSems6WLDUxjK97KW25KKITg+jgvf7gSnFRn3PKIxtqv4Qjcvj2Zb/FL780Oa3x/1WAZEtXPX8OJE0i683KThZXfsV3xy6AU3XI9UMnmVBwOtDTWce4eDoZMCVvOQTENInbLJqnelY2WKL6wcvVJfRjFi/YmuXc9+velu+V3MHhV0ZvwqzsIpzW9tyMxrrTEYc9nc456CqwqKGW31Av+H1fdZD9d93oDV7nJM4GZnlkBKibYyzBU3MjZAAJQX0Lw85bgWlQRB/mYkWtlw+4zZWNd79J/PIrIDEMUQXL9hkDBPwVg8TM2HTrXMCpo5EdmszL7otcyt2o7sIONq9k4cDRPp8WhIHJykVJijRPdKdZOIhBcFAIwKn34dC7ipz/8Jj30AcE5R/46UQbJryNePCVu/CR2Tt2aqx/teIuSl+97jy0vfVxEDtwON/fyA5fw1Q7WZCAI4qY296OSvZP8FGDXRPtDGEC6BwUUMActGNgooBZ9wp411V5ze1ttHR0yLsHOdGNzZVn8fdt1dc1xr96kADgmvsvwY6FtyDjd8Dl0qDnjP4IQh7jUB69pU7U8w+igXLMXxGH2PSPPUWWH0EgiyxmoYR5aMPc9Vm03S4gb5zk5x7soBXlEX4c3fRGrK79BGfmR3fJ+P4mQAKAa5+4EOsO/Da6x49Cxu9c5rvlG8ih5d35TniFP6GOEcPkTkBKy/zEziM4cFFAFp0oYi4K6B3Oof1xB+5vJMZvX4mbXl6Kj8pRfhbttAib5P/DGc7YLh3b3wxIAHDtyvPx0Su+iau/9lbkvDnHSLf2o7Z8dpALD6OKLUheLNO/1hwAFfwvkIGLIrJoRxazkEf3ZA6dGzIoPCXg3ONj4v5JvPLiXJxcGcGTGMXzyGIWJrASZ9D4Tva8dfqbAgkAblj1T2hrLMCWgVtRLA+ekivU/4NKT/RXsCH8dIADghOeu3CQQwZFmUGpnkFpMoPSNhfFDS5yLwu4zzAaz3gYe3kr7ty6Lz7hj+MljGM1jsYP8Ee8E6fTxtff6SnS3xxIAPCT1V9EwenExPwL0D5xzifzxa3nCVFxBFxPwK0JZCYF3FEH2W0CmS0OMhsJzgYBsQHgTTVs23YUrp18Gl9GBZtRxiaUsQEdOBBDeACn09rdOp7/D+kPi1OAeYdXAAAAJXRFWHRkYXRlOmNyZWF0ZQAyMDI0LTA4LTE5VDAyOjIyOjQzKzAwOjAwiiblOgAAACV0RVh0ZGF0ZTptb2RpZnkAMjAyNC0wOC0xOVQwMjoyMjo0MyswMDowMPt7XYYAAAAodEVYdGRhdGU6dGltZXN0YW1wADIwMjQtMDgtMTlUMDI6MjI6NDYrMDA6MDD+VlP+AAAAAElFTkSuQmCC;html=1;spacingLeft=10;labelPosition=right;align=left;fontSize=15;strokeWidth=3;" parent="uW-U2YIZJB603hHS5h9t-5" vertex="1">
          <mxGeometry x="10" y="9" width="43" height="39" as="geometry" />
        </mxCell>
        <mxCell id="uW-U2YIZJB603hHS5h9t-14" value="" style="group;fontSize=15;strokeWidth=3;" parent="1" vertex="1" connectable="0">
          <mxGeometry x="1460" y="960" width="180" height="60" as="geometry" />
        </mxCell>
        <mxCell id="uW-U2YIZJB603hHS5h9t-15" value="" style="group;fontSize=15;strokeWidth=3;" parent="uW-U2YIZJB603hHS5h9t-14" vertex="1" connectable="0">
          <mxGeometry width="180" height="60" as="geometry" />
        </mxCell>
        <mxCell id="uW-U2YIZJB603hHS5h9t-16" value="" style="strokeColor=#dddddd;shadow=1;strokeWidth=3;absoluteArcSize=1;fillColor=#ffffff;verticalAlign=middle;html=0;fontSize=15;" parent="uW-U2YIZJB603hHS5h9t-15" vertex="1">
          <mxGeometry width="180" height="60" as="geometry" />
        </mxCell>
        <mxCell id="uW-U2YIZJB603hHS5h9t-17" value="&lt;font color=&quot;#000000&quot; face=&quot;helvetica&quot; style=&quot;font-size: 15px;&quot;&gt;Cloud Watch&lt;/font&gt;&lt;br style=&quot;font-family: helvetica; color: rgb(153, 153, 153); font-size: 15px;&quot;&gt;&lt;font face=&quot;helvetica&quot; color=&quot;#999999&quot; style=&quot;font-size: 15px;&quot;&gt;Audit log&lt;/font&gt;" style="outlineConnect=0;fontColor=#232F3E;gradientColor=none;fillColor=#5A30B5;strokeColor=none;dashed=0;verticalLabelPosition=middle;verticalAlign=middle;align=left;html=1;fontSize=15;fontStyle=0;aspect=fixed;pointerEvents=1;shape=mxgraph.aws4.service;spacingLeft=10;labelPosition=right;strokeWidth=3;" parent="uW-U2YIZJB603hHS5h9t-15" vertex="1">
          <mxGeometry x="10" y="10.5" width="40.03" height="39" as="geometry" />
        </mxCell>
        <mxCell id="q4wrEbwTvGMSU0xxHeP9-6" value="" style="edgeStyle=orthogonalEdgeStyle;fontSize=15;html=1;endArrow=blockThin;endFill=1;rounded=0;strokeWidth=3;endSize=4;startSize=4;dashed=0;strokeColor=#4284F3;entryX=0.5;entryY=0;entryDx=0;entryDy=0;" parent="1" target="uW-U2YIZJB603hHS5h9t-16" edge="1">
          <mxGeometry x="540" y="223.94" width="100" as="geometry">
            <mxPoint x="1550" y="940" as="sourcePoint" />
            <mxPoint x="1310" y="820" as="targetPoint" />
            <Array as="points" />
          </mxGeometry>
        </mxCell>
        <mxCell id="wssLdagy5Da7dfHTv9jN-6" value="" style="group;fontSize=15;strokeWidth=3;" vertex="1" connectable="0" parent="1">
          <mxGeometry x="1199" y="805.91" width="180" height="68" as="geometry" />
        </mxCell>
        <mxCell id="wssLdagy5Da7dfHTv9jN-7" value="" style="group;fontSize=15;strokeWidth=3;" vertex="1" connectable="0" parent="wssLdagy5Da7dfHTv9jN-6">
          <mxGeometry width="180" height="68" as="geometry" />
        </mxCell>
        <mxCell id="wssLdagy5Da7dfHTv9jN-8" value="" style="shape=mxgraph.gcp2.doubleRect;strokeColor=#dddddd;shadow=1;strokeWidth=3;fontSize=15;" vertex="1" parent="wssLdagy5Da7dfHTv9jN-7">
          <mxGeometry width="180" height="68" as="geometry" />
        </mxCell>
        <mxCell id="wssLdagy5Da7dfHTv9jN-9" value="&lt;font face=&quot;helvetica&quot; style=&quot;font-size: 15px;&quot;&gt;&lt;span style=&quot;background-color: rgb(248, 249, 250); font-size: 15px;&quot;&gt;Engine Manager&lt;/span&gt;&lt;/font&gt;&lt;br style=&quot;background-color: rgb(248, 249, 250); font-family: helvetica; color: rgb(153, 153, 153); font-size: 15px;&quot;&gt;&lt;font color=&quot;#999999&quot; face=&quot;helvetica&quot; style=&quot;background-color: rgb(248, 249, 250); font-size: 15px;&quot;&gt;Java / SpringBoot&lt;/font&gt;" style="shape=image;verticalLabelPosition=middle;labelBackgroundColor=#ffffff;verticalAlign=middle;aspect=fixed;imageAspect=0;image=data:image/png,iVBORw0KGgoAAAANSUhEUgAAAGkAAABgCAYAAAAejVzyAAAAIGNIUk0AAHomAACAhAAA+gAAAIDoAAB1MAAA6mAAADqYAAAXcJy6UTwAAAAGYktHRAD/AP8A/6C9p5MAAAAJcEhZcwAALiMAAC4jAXilP3YAAAAHdElNRQfoCBMCFjB92tHqAAAkOUlEQVR42t19eZheRZnv761zvr2XdHc66Q50CA0hJCRhMbIOgijKongVLu7jrgMj3ovAdQCfqw4i4jaDoDzjDAMKKiKgeF0GURh22XfClpCdJN1Jev3Wc+q9f5ytqk59X3eHmKiV5+Q7p05Vnar3V+9adU4T/gLTZ25qw/zlEptXEfY/3EehkEcp140B9zBc/dzN7pF70axSZnZ/zmmfnxGFQYdy+ziUHRBweomcHoLTIUiUCJQFKOMg42RQuiQn2i59ZvWrOGu//97TQ5xRcvd0B6J04Z9KmDtYQ7Xso6Nboi3fjRMWvRl3bLk+X0Bhb+nz4k288uDTF71hmSNy+wk4/UTUCXCBSQqGD0YdEhLBuQSDAUjk0IleXr69gTHcee5dAGhPD3dGaY+CdM5vgX0PIYyNMPrnE9ryC/CB3pfxvfHcHOnz8lfxyN8tnn3oUQ7llgiiuUx+RqIBD6OQqMdgADJukwEkIBAARhalusv5tQ4yOO36A/Dzzj056pmnPQLSV1e6mLtvAdVKDe3FuTip/3O4e+JLvZ7vHXEjLz2pr7TsWEHOQpBfkKijgYkQFIkAhoQTCGRc64kBOMhPuChuIiZ8uPPlPTHk15V2K0jfWCOwdJ/DsX5iJTqy+2Hr2OPZkuSDn/Sue9fs4pJTBWGxpEbOxzjqqILhAzCBIIuw0oFLcgO+cpDbkePOIR/13UrcXZV2C0jf3ihwyLwzsaZyD+oowWevs+FVTti/+w0fFIKOBzV6fIyijkoIjErw6Jyt8AR30DSfQHA5t6VDDoyO4NXdRNZdm/6sIH1zXQYDA4swUd6GcWwHM3eXG0OnzS4t/igRHylpMtfAJBieokvSAisitgkUx/9TU6AAAQf5Db3lk8tD2W/vARK//vRnAenCBxwsPGQeGl4FLndDyq3tZW/ruzryA2eRqB/uY4crUY7FGSDC30hs2YFKUhqoZiA5cJBBfu0VnSQPGfnMbiXurkri9Tehp+8P92DU9VFw52GsMuw2vPJJs4r7/tx18Z9SDB9dx2uuj7EYIAYUg0A9oNwPzgKDmuM8GeYGeXq9ZIAZOMitWYpTUXK79jS9dyrtMk666EGBZYcdgYZXwbve+E5sqz23aJ+eoz8PUXufT0MdEpMIyBpwSpqc3EJkkSLampVki9ZiOMg0MlxY14Z5WL1xw24n8K5Iu4ST/m3rfrj0SB9Z6ob0kB/11n7CzTq/8p1tn27Qxo6Ac2Q41zkmsso3CS9FvKHyR/rf9BLBRXYig9KmPHfhvQfesKfpvVPJeT2VhQv8ePR4ZEQnNuTvQL1RXZgtuN+SzvYvNGjzHB/jUB3NKHFLRZ8ILVL+N5P9HsW8FJ0V0fNaPw79Xt1rjMnCMrzj4hwOeuNyPPK7l3YzqXc+7XR85P/ck8VxR3wYnl/DN/7hpzj/mne9w3OGL2vQpqUeRmEHJyKfvRucyo2MCBvDi1RLUXk1v5v3e8wZ2+u0a3732Objz3xeehNZyHoRfqUTta2DyLRvx8SqJfjyKT/dE/SfVtopkL75/Hwcvvj9KNdG4NdyBb+48XM1Z/0X6rShS6Ial+OmcOg5PCW3qEdyV3VyyZInIFD05k5sKD/1vM/eakhnJWTmWZbui7LasX7BwNqxDeMOuNoFWe7F/9pnJS5/7ARcfNTd8Bs+/lLSjEH6waq34ojBEzHUeA1enXrr+TVfLTsvf7yO11y7I5o4oyoX2U1qsuYGnESW+wIq/5jPdJGBU2vDxspTgIjMCvIItJ1ZrAK7T0C6D7KXf5Qn91qT2evJqj/eDVmei7aBlRh56hScf8hv9zRGMwPph2tPxtvnvw3P+2uAenHfiexzV4w7z72zgW1I8w1N8duqOzaNkwaKQpGXFqDBdRZFNCYJmysrQWF1Cg9QrL0kIDZDOk+BM3fCL9wpJ/da6fQ+WeHJPsjxBaDcGMafXoEvnvKj3Y8QZgDSz179JN65oIpHZB+4nl88mnni38bE08d6NJo0xqpxTWHrkThrFnuzE9heTkAHiUKohLWNPNoxPjqJ4foaCBIAcQBQ1D3Suhm0x2Ib2H0UMncbvNLvvQduXJ057h3MkwMQnWtQe+XtOO+wW//yQPrRK+/BwfsVMeLPgdvoOWjYve+aEeeJI3xMWIipNE7KHaYoE7pyt9VONEw6X6Tqp7kpOC/wLAyPbMVoY3MIUsiLBDCx2p0YvPgXBLCzBjJ7O/zijZhc8BB1PVXh8gK4s19CdeUp+Pzy3SMKpwTpivvOwPHHrEDZq0A0OhZtyfzxuh3i0SN9KqeqT414SMxo6sakFdaydqBErItagUQACrIbG3esQdkfhSBKQIofz/GjSO2WBhYAdsbA2XvhF66lWt8daH9xDBMLgcIWeOvejHMPvuXPClJLZ/YzN/XghCPegloNKNQHBobcu69uBhCAJoEZvQQbLiw3rcVNWjSdWb2Mau+xBDzUA86B4TgzAu7m4CbLII/DpqLzoJjfwaJyKjIjP+bi6l+gMetMyEIbqAa3ZxWu3LIQF99yxp8NpJaT/7nJG+BRBQVvXteq3HU/GHLuPcMT4y2qTsfkNsRgXEI0FYHmelIk9lTuSYyIqIZAptGBtWMrIdk32lNaUjkKifhTz9O9dWqQ2TvJb7sSI0f8AV0PN3jrCaDSOpwz//7dB9KTQ9cjly9gn8bpmfuLH798s3vHuQ2x3Rgit2iKWj7EDpTq55j1zfxI7NlAAgRcoJbH+okXEUfX2fLEGBD9JhlAmeMIxeA4ceFmNGb9C/euf4a2HgBR2IaJF96ELxz+i10GklXc3fHq1zG78Ub8qO0MPFI492NDzn1nN0gFCMHANUmTFktIRd6Uu6yLrCR0yk32LZjiT2/RFJsCDhqyBiaZ6B/BmlWn4pbqPSv5nC7DAEB+O4vJj3F2669pR8+5JPOd7DOKnXlcue7oXQZSapKfeVU7Pn/251BpjKDgzztqnXPLzyfcF/YypxOz0QDN6DGJYFI4ijXuifgnMRKS/1UOcpQ7iTmeQQHjk5MYbmyE4MAxCFyEafbStPqUAnaZISTJwn/B6/oyZq9/hLYcBDhVvHbfwbj03a/PZE/1+akdP4SfHUde9vW8lL36pu3OIyeAkrWfaTU4LcNeIXziWGq7fVQxp4tB0wRPgBQQIABZLmF4chvG/OGgdMhocde4WY/sIDUHKloxDs85s55k+9eofOB1yK+rUmkjKi+fgPOX37HTIGni7iePfw7t3gE4rPhZrHNvOXuUnjkB5KXHZF+fS8pNayUhEYVgVSDqC36JFRiJQKVeeJ810ZjUb6CmqzIRumuqX6wEMlgtG7XHMPoTnevGTNQrUGOAnZHvcumZ70IW+rnWiVz1rbhy7bE7DZI2eR6qXoIxrEZW9hyxwfnVbVVn/VwiYQepZUth1gyCTqT4TnqDZFwJjbKqqRAZEgICGVnAxsl18Liud80U01G7zSaWyTmU5nN7FQJx/m543eehuP4x2v4mwJnAZ/sfnxlCUDjpdyu/DlHvwGDtE4UhevD8qtg0N9IX2gxvtTXH4CzV75gqMdsaUhfJk6X2ZEFQ5SipcZQvPUhYItkG1ySxvCZH8x43IUfCVUyV45AZ/ilV+0/mve4BCcZVWw7eeZDEgY9iTe4neMG94qQJsepUiGiAKZtmGhTfObBMiy/dYARJM9En43OPG5Aspx+dbAWSca3vkrUDFcUsGfWF7Oy4lkbmfLh06+Mg4eN7Q0tmDtJtL1+E7MQg9q6+t31EPHeWJ8YKyYwwiG1ZyE7/hodhnjPbFsJ1XZSUgXnHCpS5JB9t+/JkIwioWoicDtW2wI5s5WzRluasx1Sfy87olRPvn/NpZ/2XiQi4enj6QAkAoH2ew6bMr7HR/fWJNdr8JiLdB4o5wWossOVXUf4xF7UWl5pHlTIk2FIyOpfhWcJNAKPBdajmXETs6Yq3VtIuHbGM1EKzcgRGo5Od0W/5+/3DWaXNXyYQ8P1t0wNKXPzr4+GW+7F39WP5Mq35iBSVnG7eNKnZwsJLFzDE3dRBvrgCG+Czdh6BJFNlPW5YbZApATLLaEVsa1ecurIPjwD47SzGvz4xcPbHN3Q/D2IX3xtaOjVIhx41GyOZh7HJuXVFnbYfp1lkbAQUmh2te6fRvRlY3KyCIcxIEYVp4yLMZYbHXkzlaRuZqlERZcUBvlaVmozXmue1szP+jXnjvaf7s56GqPfiyg2HtAaJyj34cfFxVGnju5lqnVFUeDrEtwHIU9RpCpa1mtlgAhRS8Cl5LOGzb+UWVg4bJ8WXKa6j1jKwBVBaDwlg8rrZmfiOKPcdLbsehbvXk7j8ycOag1TrfBIfHDtyrkdjbwtdoiRMrx6YmoEiemp1uDlmdmMu4pPkJTDd2W0GVMBNBMBnCQlfp6mhk9TFPhMYMiuq6EEpPA2A4nOjuKT6fOmMfUf4Hfug3IuuAzY2B6nsrEZFbHgDi9pCs+HXnSzIprI44QFwertxHHDlyD9KfCEdqOiBBMlekKNwghmu0mhOgAiPyKmOylMYT7LGKGfirZt1AYDqR7Azepnjd7RBuvjB2D52kIaKQ/Ax8WaQzOmU3TXYAGhpHTJ0zmvmVLHCYTK1py/hNALgsR/CZaeNmmmTYBRGYtNL6pbY5BQ4WfWSGkCk2pnSHf7UZGkjyCviu6sG0yD1btuvQ6J2eNARW+xsaiBU9S0tedp5SpQqHNNETMbPZFbKy5BG5qZlwJOelTBsijgzZgeV+cKQrmXlb5rSLsXJdt9YOkzVC4qVrqNkaT1K+25Ng+Q72xdAyP2TtZWoKd2yinyXiOhAImZmwnuJmAv9IQYkG0AbnJfWgwlHRRyjOr0++9rs5xQAaTpGF4Hd1IQHrTLPaLip+a4TSe0zk9fPovolp9HWKSt5/PuOPh0kSdWlIO5JHLJUDCAEKCGcVXzNFC0VMoW1UmApEyQ2J1gasQZFhzHDZ6kRvRVAVmqbGJBxX803DtUQiaMabJDFMJiYAYnGW31n/IONwjCcLfNx7s0DcRGX4S8ThFykdFmbm/r/an4zkqc6YaODUYCUUahPYApnhvqrPEMShxGyxOMPAJapR9oMB7WvFJohGh5qN6PdLCaAxlhbSUG1OisXwaPYkdT4XKbWcbu/z8pVS/uTt5IESC6KRB3HssXwMk1TjDnWJ6rYSpebKg9pi09TaHr7ujsQcBQrO44CLCWYGUTJVi9tb50lCjGV08sRe4SrJJrZDjuXpmeIMiea+Y+Qi5gan3osPw7UXVzw674QJPB8DQylNbbINNN51B+f9qBSgdiY6FI3Eiw+WdyM1H9tQEVFfCljKw+I/B5K+0OqWCPLfIRibBj01nxbGzItUWuRiCHJe/+KWmkJt09iybGTIUiE2TRFazr5jVe4NE5hU8XYOYcBZlK4MV2HmSEVHZW6LwOdJcGh8xq8RRjpo4iDkiM4ofBIyqg+kapnkrJmJDwev91csyBq3Ce9jci6ZAA+8XxJ3oc25spAPRB59P0xZ7ubS79MmjiZQDP2NLsesDJZVBeZpZICzWaiyk+k58cSSpnSRA5c5NGoe6j45YC4IpJmnG7amGiawLPoGY0eUf7rcScNEaxypAPxUsZ3TwR4nTeUhQCQT8/yaT7IppMUI0AXkuYWrCaiznZI/Vdq+jAMG4XRiihmR0LXQalIj2Kapb6qYlhpZl48BsPH2gmMtPNoYwDAC9nxT23kPfQPjCn5002GwrffsnlQM/CpLCKQpXowpARkeC1lpOMCsSeEoYOmcGJY6Iek4FDzVHEoLCDaRFpTvUTJfE6peAKYmCTxu9omM4Udk3m4nHxMwfDulTYNQGzgtMI01ROeGihudUMRpxwSjJkhhYQkCTHFzLYqezYIrtMttsBjCWz0Qxue2T7p922mvKqnQpN8RSPrLwHhMZeBSQkuktIz0zBoZc9NSWBuXpZtAzUqcqpC+t3zSF9UZQ1u0YEQsiUxzMuI4KqO0Vwk1itw9Ks5Pkme1YFNqJ8eZgR8bMEwGOhh4LiGy4+5LDECRi8rI7ISFM2TafvbiGjSiC3Iq+1wNJ/UvOgNCObYOpQS8H2gUQdqDYGBgW74zhDArEkAVh+uAhRlGwTUOCX8Vd6UCdqM/Eu2cw/F/TYeql3anGQKPQ4+tmdcXOUy4zVmLCSilsSdChgrkAqRyOQo1p+nbUIMG2dWuFsx16WkWCf5PuB5AUgeMwguHDiQ8FKEC8CguGMqsVUCUqpS8CtDoOIgSBPwoz6TCjLUwhwDpMZvSZ2YQb+WVbO8t8uSVzPzm8x4CJsjbMUpthusthYRngxuMQBiBXyLlSdjgALDwZeA9AHfA3yPIR2G5OB7QiAZO8/JNuYk/GMJ0cVbylTCp9QJJX0jCyFSbarPieWg5eFqDxngQOT1SYHFLks8xwyOdj+l/Bi2i0BumqneT+s5GzDRoOMQUXguFXAi0cYROJF154fnPgA3cIBdOCB4cQTc8JKQ7DyPuhDObPXlAQWwWG+pA4g4ILwWkU5KkT4VBNTfTI1KhQ2x9gIDikw41PU9POVKHmeBDttTpgTHVl4BR8FB0S0KOBGICkBRREJGpngYXQgA4hgslglAzABEEBYScMGoN9WypgpIpFJUOoj9pYBSMTJIxWkskqew7Y1eBVRSwFFYN2BWWux6dX4h42OjcNGhmltsMHokrqzIAbp4NMFRgDD9LH1VVuUe1l6RZE44KAZI4S7JDEcAvvRB4dd41Mi2+auCk8ADpZ4BlGEix/UtaDMiLlGmiR1FrTGtBMWbUwfF9jX8mvTwJMuIdubLXqpoUi/UrFB8qMRHQvhwi4IeIDUPU4xJirmHI26xARS1z0GUwZc+BFxNpJnvups+py0lEXTSxGDsAGsHhZyQxAcTeRgipr9noN8OaUdqkVjnUZ+Ytyzj+Q3cxdLopbJUbQtcqXjZwImIFwMUlVGBUgnOMKIISV1pgKLWhR9yHwEkCJ70QeyENEngMCf8dA59omu6wlRNejzRYBattBJfIiVLKIwloEQ0iDpFbZLh1XGv9LFJ7YVpsWk7t0N0EnD0aLUm0lTLTdFJscUGHRxwYKFFoSEZg8IxyHq0XJksBEjpga1vB9q/9qDN3hRncVKOdKBI+2cx2ylqm+JXsIVxqJwUVePwYYnvRkXRqEiMbPBe8Rt0dzzLUwBF1xQqQUo5itrShMItzQCSKkco99X8iHMSDmKdC1nJF4F15ksfkMkHOdK8FBkHyYenpsM90SQQRPFhAiZIF5FEIlwwpGSpRG0/Ep0xaYOM4DopJbJFQu/+ec+r0U3sUy3udAqgcGiGXmL1v2lykDRM7MTk5lhMSoNTVN0TTyYJjYsCTpKQHL2iCQtQwRFxD4MgNQ6BUdL+L3hmQvz4Sy+k86xZK7HiVMWk11D5kkiw2PC0RGWMUB1z7vIb9FDT1dEUDup6qw5UfM2JaFSJTQoAKhgJwGmO0axBBfwoj0QEtISUjOTzAdahtzhLA5KIrOaQqaCqLZrPJZDmC6X5EVC/xiSQaYgrTmXMHqyjs1+ONqriWukHL8maAOlvbit7RlXblKEBl3AQw2BAXX8hAcbkRtOEZxuoYFC4PMEs4UsJfQXGLtbs8Nh9KAn9pWsVBpoCQH2ScKof6fOE2wTcEQEA6x4tYnw4g+pY5ja/7txvBj9Toi+6nbCMznoKQhzqMVbYIeHWoExqmRxpUaiCbgLICDkpLOPHnKRHGMyZOxWX6WVYI7n6iVKTLs0mg9qXNAemyxEILvJDAgAuPXIcbT0+2nrljkbFvUL6omxzWGNw1MYU6qobTWIQOf0toGi3qhqGiH0/zXJRQVcmho06IiGf7/tIf16WtKJ2oWTO9ah8c8vQ7OJ0ACNt8jSxEBFoziy3rYllwuYXXIxvyWHHuo7f+NXsTVAdVNi4iNI9syoyCwdEIsocXWjmmLrHpITuYAeji60tDkJD6kc4dIimn+wWn824sCcTNBuwzZ/JcOAih+7nYpAuO2YMTpbRNVCr1yeLl/v1zIvNNlrEEQYFALY+NFqlUs2N9EBMJFQA1DUZ1h6UmC+gRNwBQdQh+uQ5WcnbGrTmokr3rZrdawZWM06zAcYAXBQrJe5/UnvW+icIf7zsFHTM2/5Co1L8ivTdsu2BAKxhentS4uocXVu6HVl09ia0Xw3q0LJTCSQ5iDrYiWzTStNLzaISM03TJV2OOzd3ygOf1kby6M0VfPDqcVRHO7DtlYEXSrPHOpyMd4y+rqy4hi30lkp/s6wqxtgo32wrWZyf+i4dgzJAJkcQIgDMdVy05dsgqRyLjlguGkSfCoxW5alFO7b66kulZK0f5Aa2qYsuLLzv72pXX5PaKfTPh6+GcH3MXrjJq2zvucyrFm5VQ71NcaEpskk5Z/3+1PvXQu5j2x0E5rcyfGYfwRafhCDNyDcVN9iMA1trzThMB4NgAqSWIqX9DEro4H3v+nFxTtW6neuF3zvI5D3k2ss7qiM9n/fqhXvi5poqqilGqFxrn2Ztkq+3TUhvIkieGX+pOGxKsgz1JiF5tax552Yqtmz6pZUuUu+bIld1AxRTCyXuG+rm5Xct9y+077m74dxXseaBHrTPG0KuY2JtY6znLL9WfIRb9ayFbGhVzARX3YBoLcvpLCHMshIsg1gBW5/TSlClU6tSNiCalYvK6H8exazHcDmHTux//0HV856fWz+5+cbIq973DNbcvRxv6d+CbPvo8/Xx2Z+U9eLDqRGT+vDmg0uZrQb3TPXmnGoFmfRO9nZH5WS4WUQklcx+NwGKLHnTSXbrNrgTeYJmfE69VhdZS+hvzJaH/eze0ofqXuGV1n9Q5L7rN6HnuCNx0dKX8WjD3VIfn32fcBtLhGjsi/jBTVCJshQQ1cVJnb0tNDR8r1RIKLolgGye4DiB2BMECAdoy3ZCuHVINDS92BwUMq5bQTm9pLdITdrWg20OZ9CHox4+yPvfl7T5B1TGNvVNvcX40hP+hC/edRSWzBmCWxh/oTE67yOy3nEjs+Do2z4pbmoysuhearuuwYbTIkgYiI3ra89mSJYguFYxR4bwSRsX9l7sHFB6tCKYZ7YYQzD72jDfm8tH/8fD2X/cfmf2eCyZv2J6+8AvPeFB/Pfv34zcrB1wcpUN9eFFn5G1WZeyzIyDwiVU5WPoJlDaZnfFBDI/wmT7/k8MbIpIrMXszCSlhEAGqrhpTsiEoFNoUI34qthqDg/iRZPmH4kKAMqgiLk4/L7Bxgd/sbx+CU4cXwVgBn8/6d4b1mDZYW9H+947QJC1sYfOujvX/+xLJLxlEF5vMiZK6xeTS5qJPTNfi66TEU0P+EFkCZkMQTghdwrAEUDeLSGXycLDBEBC2aeQbE/RX8BM/+qiUAVED47qmi4d/TYFmznZohZ6cdj4oPyf523J/OHpotNAf/4EADN8o+LyM36Dp65fAG4UUFz8K5npWnezP7H3/0Cj84dgpxoF9QEGRX8XQvvmNqe4xRR70SsrhHDdP+Io5e9MJA5qaNkpXBfV9aUHQgYmZxCa/ykgk4xsENcylxQY7V/5V4WrHaAglWge5vHx1+838aH/WlD9FMY3L47vzfjPxV130R04f/HD8Mt5/LLEoEzlpcamYz/D1d6Pwi8+muytDQkbdSZakCIdoPhrJFB0k0jASgBU3spThqj5SMqvhBeIO7KRZab6Ju2mkvWeqePIAqaZGC7asDe/5bH5/mnf3Nh2u98Q27Go/8idBylKFx5xBw6+9j2gRgdEcUtNtG/8mRwfPI3rXReBc6uiDmirywCivUpECbdFYkoovyAdJF23JawjhPG5dwqGJVkC7DTVGGHvpjFSGx+lQUu3PbWzG+Rn0MdHDQ/It124JfOHNePObfjto9e37MFOpcsfPB1zj7wFI2uXILvP86ivW7I/5bb+PZzKByAa+8Xfo4vjbeFjZdAFVdeo27ekJG2XqpQMv8Hw/GA5whdAoV3AzQR6SAiCcAVcIZB18+jvGETVeSn+ZIBu7Nph0t0C0nhhyuhVUyCawSjQixX1hfLMLxwoPvuvI5NrsbX2Eg7oOXHXgwQAA4vm4tybD4G/fRGyg79DYe+XUV5/4CBlt70HTuW9oMZykJ+N1/Ui2131fSKgTLB8gvQ52DzpAY0Gw/MZ0mUU2gUcF3CIIBwHQgg4QsB1stirY3/UMy/B57om9lSwTNI3W0qYCiSaRn0zdWMp7yff862l5X/64lDm/rrPhP7CMalyr+uvY6ppbNskbr96FQ5YOohZAw4qq4+B27l+h+hd/4AcXnwriB8hQp2AWUToALFqcMVGA5DoIHVvGiixQVhSsESeATJZCkSecEHkgkiASECQi/ZcD9jZAQkvaRjTn5mtzAubod5c/6RFZhcOwgJ50n8O1N9y0Y7MExUQoT9//Iz68bpTNp/B1x58Cyb/dDY6T7oY1LYWjWfPctz9f76A3PFj2amdCPJWgLwBgAvmYp/2KYBwC7LvEzwP8GpApSaBAiNfdOBQFkK4EMIBiWD/myMymNe+L5BfjTqPaSABwZJ4s7d4W4m8pMzUfpfpMkcirgsHYUC++Zo+b8X5Dac8kkEbvnrzZ3H1+17bvSCp6ZJffALthz4EOdEDMWsdqLgR3tMXOM6+P+tDZnQJnNpSkL8E5O8PcD/AnQwugpEH4DKziMEK3+qbKDOQc5DPdcKhbACOiEJDBCEE5pQG4BbXosbDiCytiH1FaEgnoU7bGrE1LjCDFAAsYniy6MEyv49X/GBWfeGF7PijObcTtz37dZyz7PkpQd9t6Uu3vRdzDn8W9W1zQe3rgPwwRGEE57QD33p5/6LIjXeQW++E8GaBuYvBnUTcxhJFMErMKPo+ZSfLuVkZ98AzHMfpYTEOOHUIxwc5Ek5oFXYV+pAvbUIFm5KhaiBBA6rVakv0m/xhcB246PXRdDQwKOGiHbOxfLJHLvpGod75LXLy5azowB3rvo1/HFw3BdR7MJ3zL+9FpruMRR+4H5vuPwClviE4hUlQpgoSDQR/uNIHkQRIgoQEBFD3gQu6gH996axP18Vr35HO9hKcMuDUQa4PhxiCCO25HrS1D6OMV+OhMukBnYSM6sqTbcUn2a1B4ZniBVpiFwloRfSjmxevK/Hs/1sdf/WG9uJBvktteGDjj3H2gvVT0mmPgjTd9KFLj8ENF9+PwTd24W0fPhzHfuhN2PHaVsyZOFKs77r5fM8ZuQTuZBZOHeT4EEKCiFDKdGFWxxgm6MVkoEQpgFSems6WLDUxjK97KW25KKITg+jgvf7gSnFRn3PKIxtqv4Qjcvj2Zb/FL780Oa3x/1WAZEtXPX8OJE0i683KThZXfsV3xy6AU3XI9UMnmVBwOtDTWce4eDoZMCVvOQTENInbLJqnelY2WKL6wcvVJfRjFi/YmuXc9+velu+V3MHhV0ZvwqzsIpzW9tyMxrrTEYc9nc456CqwqKGW31Av+H1fdZD9d93oDV7nJM4GZnlkBKibYyzBU3MjZAAJQX0Lw85bgWlQRB/mYkWtlw+4zZWNd79J/PIrIDEMUQXL9hkDBPwVg8TM2HTrXMCpo5EdmszL7otcyt2o7sIONq9k4cDRPp8WhIHJykVJijRPdKdZOIhBcFAIwKn34dC7ipz/8Jj30AcE5R/46UQbJryNePCVu/CR2Tt2aqx/teIuSl+97jy0vfVxEDtwON/fyA5fw1Q7WZCAI4qY296OSvZP8FGDXRPtDGEC6BwUUMActGNgooBZ9wp411V5ze1ttHR0yLsHOdGNzZVn8fdt1dc1xr96kADgmvsvwY6FtyDjd8Dl0qDnjP4IQh7jUB69pU7U8w+igXLMXxGH2PSPPUWWH0EgiyxmoYR5aMPc9Vm03S4gb5zk5x7soBXlEX4c3fRGrK79BGfmR3fJ+P4mQAKAa5+4EOsO/Da6x49Cxu9c5rvlG8ih5d35TniFP6GOEcPkTkBKy/zEziM4cFFAFp0oYi4K6B3Oof1xB+5vJMZvX4mbXl6Kj8pRfhbttAib5P/DGc7YLh3b3wxIAHDtyvPx0Su+iau/9lbkvDnHSLf2o7Z8dpALD6OKLUheLNO/1hwAFfwvkIGLIrJoRxazkEf3ZA6dGzIoPCXg3ONj4v5JvPLiXJxcGcGTGMXzyGIWJrASZ9D4Tva8dfqbAgkAblj1T2hrLMCWgVtRLA+ekivU/4NKT/RXsCH8dIADghOeu3CQQwZFmUGpnkFpMoPSNhfFDS5yLwu4zzAaz3gYe3kr7ty6Lz7hj+MljGM1jsYP8Ee8E6fTxtff6SnS3xxIAPCT1V9EwenExPwL0D5xzifzxa3nCVFxBFxPwK0JZCYF3FEH2W0CmS0OMhsJzgYBsQHgTTVs23YUrp18Gl9GBZtRxiaUsQEdOBBDeACn09rdOp7/D+kPi1OAeYdXAAAAJXRFWHRkYXRlOmNyZWF0ZQAyMDI0LTA4LTE5VDAyOjIyOjQzKzAwOjAwiiblOgAAACV0RVh0ZGF0ZTptb2RpZnkAMjAyNC0wOC0xOVQwMjoyMjo0MyswMDowMPt7XYYAAAAodEVYdGRhdGU6dGltZXN0YW1wADIwMjQtMDgtMTlUMDI6MjI6NDYrMDA6MDD+VlP+AAAAAElFTkSuQmCC;html=1;spacingLeft=10;labelPosition=right;align=left;fontSize=15;strokeWidth=3;" vertex="1" parent="wssLdagy5Da7dfHTv9jN-7">
          <mxGeometry x="10" y="9" width="43" height="39" as="geometry" />
        </mxCell>
        <mxCell id="wssLdagy5Da7dfHTv9jN-11" value="" style="edgeStyle=orthogonalEdgeStyle;fontSize=15;html=1;endArrow=blockThin;endFill=1;rounded=0;strokeWidth=3;endSize=4;startSize=4;dashed=0;strokeColor=#4284F3;exitX=1;exitY=0.5;exitDx=0;exitDy=0;entryX=0;entryY=0.75;entryDx=0;entryDy=0;entryPerimeter=0;" edge="1" parent="1" source="_Tn5D_dkqsPfIdNLR1im-36" target="_Tn5D_dkqsPfIdNLR1im-168">
          <mxGeometry x="520" y="203.94" width="100" as="geometry">
            <mxPoint x="1090" y="480" as="sourcePoint" />
            <mxPoint x="1090" y="587" as="targetPoint" />
          </mxGeometry>
        </mxCell>
        <mxCell id="wssLdagy5Da7dfHTv9jN-13" value="" style="edgeStyle=orthogonalEdgeStyle;fontSize=15;html=1;endArrow=blockThin;endFill=1;rounded=0;strokeWidth=3;endSize=4;startSize=4;dashed=0;strokeColor=#4284F3;exitX=0.5;exitY=1;exitDx=0;exitDy=0;entryX=0.25;entryY=0;entryDx=0;entryDy=0;entryPerimeter=0;exitPerimeter=0;" edge="1" parent="1" source="_Tn5D_dkqsPfIdNLR1im-168" target="wssLdagy5Da7dfHTv9jN-5">
          <mxGeometry x="520" y="203.94" width="100" as="geometry">
            <mxPoint x="1190" y="550" as="sourcePoint" />
            <mxPoint x="1232" y="561" as="targetPoint" />
          </mxGeometry>
        </mxCell>
        <mxCell id="wssLdagy5Da7dfHTv9jN-17" value="HTTPS" style="edgeStyle=orthogonalEdgeStyle;fontSize=15;html=1;endArrow=blockThin;endFill=1;rounded=0;strokeWidth=3;endSize=4;startSize=4;dashed=0;strokeColor=#4284F3;exitX=1;exitY=0.5;exitDx=0;exitDy=0;entryX=0;entryY=0.5;entryDx=0;entryDy=0;" edge="1" parent="1" source="_Tn5D_dkqsPfIdNLR1im-81" target="_Tn5D_dkqsPfIdNLR1im-17">
          <mxGeometry width="100" relative="1" as="geometry">
            <mxPoint x="220" y="270" as="sourcePoint" />
            <mxPoint x="680" y="270" as="targetPoint" />
          </mxGeometry>
        </mxCell>
        <mxCell id="wssLdagy5Da7dfHTv9jN-19" value="" style="group;fontSize=15;strokeWidth=3;" vertex="1" connectable="0" parent="1">
          <mxGeometry x="120" y="390" width="180" height="68" as="geometry" />
        </mxCell>
        <mxCell id="wssLdagy5Da7dfHTv9jN-23" value="" style="group" vertex="1" connectable="0" parent="wssLdagy5Da7dfHTv9jN-19">
          <mxGeometry width="180" height="68" as="geometry" />
        </mxCell>
        <mxCell id="wssLdagy5Da7dfHTv9jN-20" value="" style="shape=mxgraph.gcp2.doubleRect;strokeColor=#dddddd;shadow=1;strokeWidth=3;fontSize=15;" vertex="1" parent="wssLdagy5Da7dfHTv9jN-23">
          <mxGeometry width="180" height="68" as="geometry" />
        </mxCell>
        <mxCell id="wssLdagy5Da7dfHTv9jN-22" value="&lt;font face=&quot;helvetica&quot;&gt;&lt;span style=&quot;background-color: rgb(248, 249, 250);&quot;&gt;PACS&lt;/span&gt;&lt;/font&gt;&lt;br style=&quot;background-color: rgb(248, 249, 250); font-family: helvetica; color: rgb(153, 153, 153); font-size: 15px;&quot;&gt;&lt;font face=&quot;helvetica&quot; color=&quot;#999999&quot;&gt;&lt;span style=&quot;background-color: rgb(248, 249, 250);&quot;&gt;Pacs Or Modality&lt;/span&gt;&lt;/font&gt;" style="shape=image;verticalLabelPosition=middle;labelBackgroundColor=#ffffff;verticalAlign=middle;aspect=fixed;imageAspect=0;image=data:image/png,iVBORw0KGgoAAAANSUhEUgAAAeAAAAHgCAYAAAB91L6VAAAAAXNSR0IArs4c6QAAAARnQU1BAACxjwv8YQUAAAAJcEhZcwAADsMAAA7DAcdvqGQAAEmMSURBVHhe7Z0L2FVTwseNyGBGihQGmZJbDSn3SCi5TGFIn0skxUjfdGFchmTcRiop90pKIzTGtRKh5JooIZoJuUxRTG4lGt/6nv/mjNda9b5n77PP2Wvv/fs9z++ZZ/Dus886e+//Xvd1DAAAAFScdex/AAAAAOWHAAYAAEgAAhgAACABCGAAAIAEIIABAAASgAAGAABIAAIYAAAgAQhgAACABCCAAQAAEoAABgAASAACGAAAIAEIYAAAgAQggAEAABKAAAYAAEgAAhgAACABCGAAAIAEIIABAAASgAAGAABIAAIYAAAgAQhgAACABCCAAQAAEoAABgAASAACGAAAIAEIYAAAgAQggAEAABKAAAYAAEgAAhgAACABCGAAAIAEIIABAAASgAAGAABIAAIYAAAgAQhgAACABCCAAQAAEoAABgAASAACGAAAIAEIYAAAgAQggAEAABKAAAYAAEgAAhgAACABCGAAAIAEIIABAAASgAAGAABIAAIYAAAgAQhgAACABCCAAQAAEoAABgAASAACGCADrF692nzxxRdm6dKl5v333zcLFiwwr776qnnxxRfN9OnTzaOPPmoeeOABM2HCBDNmzBhz0003maFDh5qrrrrKXHbZZeYvf/mLue6668yNN95oRo0aZe68805zzz33BH8zZcoU8+STT5pXXnklOPbXX39tfzwARIAABkgJb7/9tnn88cfNrbfeas4//3xz/PHHm5YtW5q6deuaddZZp6L+4he/MI0aNTKtWrUyHTp0MCeffLLp06dPEOjjxo0LAlsvAStWrLC/BgD8AAEM4An//ve/zezZs829994b1Eh79uxpDj30UPPrX//aCcA0qReE5s2bB0F9xhlnmEsvvTSoWS9atMguAoBcQQADJMCnn35qpk6daq644grTqVMns9VWWznBlQcVzm3btjX9+vULas7z5s2ziwogsxDAAGVm5cqVZsaMGWbIkCGmS5cupnHjxk4Q4Y/WqlUraNo+++yzg77ohQsX2kUKkAkIYICYmTVrVjCYqVu3bqZZs2ZOwGB469evbzp27Giuvvpq89RTT5lVq1bZxQ6QOghggBJRDe2GG24wRxxxhBMcWD732GMPc8EFF5iZM2faPwlAKiCAAUKiaTia1nPuueeaXXbZxQkGrLx16tQxJ554YjDFSqPFAdIAAQxQBK+//nrQrPy73/3ObLjhhk4AoF/uv//+5sILLwzmMAP4CgEMsAaWL19uHnzwwWB0ruba2g94TI877rhj8DtOmzbN/pkBEoUABqiCQvf00083m2++ufMgx/Sr+cjqN3766aftnx6g4hDAkHueeeYZ88c//jGoKdkPbMyuatkYMGBAsFwnQBIQwJBL3nrrLXPNNdcEfYX2gxnzZ7t27czNN99sPv74Y/tSASgbBDDkhmXLlpnRo0cH80ntBzCi3GyzzUyPHj0YvAUVgQCGzEO/LkZR84y1VOj8+fPtSwogFghgyCSaq6vFMVq0aOE8WBHD2rVrV/PEE0/YlxlASRDAkCk0fWjw4MEskIFl8aijjgp2qwKIAwIYMsGSJUuC5sK0b92H6XDfffcNBm1pow2AqBDAkGreffddc8kll+R2Oz9M1qZNmwYvfnoBBAgLAQyp5M033zTnnXeeqVevnvNQRKy02267rfnLX/5ivvzyS/tSBVgrBDCkirlz55revXubjTbayHkIIibtrrvuGqwZ/n//93/2pQvgQABDKtAON7169TLrrruu89BD9M29997bjB071r6MAX4CAQxe891335lBgwaZhg0bOg85RN899NBDzd///nf7sgYIIIDBWzTdQzUJ+6GGmDY7d+5sXnjhBfsSh5xDAIN3zJo1y5xwwgnOQwwxzdaqVSsYOPjRRx/ZlzzkFAIYvEEL4Z9//vlmvfXWcx5eiFmxcePGDNSCAAIYvOCmm24yTZo0cR5WiFn1kEMOMZMmTbJvBcgRBDAkyuTJk4MHkf1wQsyL2ijkH//4h31rQA4ggCERtIJV9+7dnYcRYh7VSm4jRoygWTpnEMBQccaMGWMaNWrkPIQQ8+5vf/tb8/zzz9u3DGQUAhgqhmq9p512mvPQQcQfrV27thk4cKBZvXq1fQtBxiCAoSJQ6y2fdevWNc2aNTPt27c33bp1MxdffHGwU89DDz1kZs6caV588cVgCU+tn60VxT788EOzbNky88UXX5hVq1YFv4/+V/9f/1z/Xv+d/nv9nf5ex9HxdFwdX5+jz9Pn6vPtc8LS3W+//cwjjzxi30qQIQhgKCvUekt3s802M3vuuafp0qWLueiii8zo0aPNU089FQzcWbFihV3kiaDz0PnovG6//fYgpE866aRg274GDRo43wmLt1+/fuabb76xixwyAAEMZYNabzi1l7EWINGuOhMnTjQvv/yyWb58uV2sqUQB/dprrwW16GHDhpkePXqY3XbbzSkDXLNt2rQxzz33nF2skHIIYIgdar01u/nmm5sjjjjCXHrppebhhx82ixcvtosxF6jZW7XmwYMHBy8fegmxywq/d+ONNzbDhw9npHSGIIAhVqj1rt1jjjnG3HrrrWb27Nl2sUEVFixYYO66666gn9kuQ1zHdO3aNbcvbFmDAIZY0OAdar1rVsH77LPP2kUGRaANObTHrl2meVeD39ScD+mGAIaSefrpp03Lli2dhwR+P5L1s88+s4sMQvDGG28EgWOXLa5jBgwYQJN0iiGAoSTUpLrRRhs5Dwb8XragiweV489+9jOnfHGdoO98yZIldpFBCiCAITJ9+vRxHgb4o6q1QXw0b97cKWP83hYtWpjp06fbRQaeQwBDaObPn28OO+ww5yGAP1UjnCE+VJ52GeOPqiVKLVI0SacHAhhCcd9995ntttvOufnRlQCOFwK4OPv27UsIpwQCGIrmyiuvdG52XLu+BPC33377k2UmFy5cGAxseuWVV4KF/zUPV/+r/69/rn9fdblK/b0PEMDFe+SRR7LFYQoggKFG9CA++eSTnZscq1cjw8uNRlhrhSntq6zmRy0Beeqpp5qDDz7YNGnSxGywwQbOeUVRx9HxdFwdX5+jz9Pn6vMrMdJby1ra54Vrd4cddjCPPvqoXYzgEQQwVAtTjEpTq1yVyqeffhqMAh4/fnxQC9Qay3vvvbepV6+e83lJqvPReen8dJ46X523zr9UNB+YUdDhrVWrlrnppptokvYUAhjWyp133skUoxJt3LhxsJNQsWj3oVGjRpkzzzzTy5CNaiGc9b30/fQ9i4XwLd1zzz2XEPYQAhjWiNactW9ijOYvfvGLYAMCrZFdlbfeeit4yfnDH/4QLNihfWDtv82y+r763vr+KgeVhw39vvH5u9/9jhD2DAIYHP785z87Ny/G40EHHRTUiuPqm82a2nBAWy/utNNO5pe//KXz77E099hjD0LYIwhg+AmawmDftIiYHevWrWu+++47+9aHBCCA4b+wmQJifvzyyy/tRwBUGAIYAjp16uTcoIiYbZcuXWo/CqCCEMBg2rRp49yYiJgPFy1aZD8SoEIQwDnnN7/5jXNDImK+1PruUHkI4ByzzTbbODciIubT2bNn248IKDMEcE5hikd+1W+/9dZbB1N99tprL9O6deugJaRRo0bBghnrrbee8zeYD7XyHVQOAjiH/PznP3duPEyfm266abDerxazOProo02PHj3MRRddZK677jrz17/+1Tz22GPmxRdfNG+++WawuYI2ViiWr776yixevDhYHGPWrFlm2rRp5u9//7sZM2aMuf76683ll19uunfvHoT3Flts4Zwbptdnn33WvhygTBDAOUO1HvuGQ/9t1qyZ6dq1axCuM2bM8G4Kyb///e9g3eexY8eaP/3pT+a4444LatUsOJJO58yZY//EUAYI4Bxx+OGHOzca+qdWK1Jt9uabbw5CzZftAKOiUbZTp041I0aMCHZS2nbbbZ3vjP65YMEC+6eEmCGAc8Lvf/975wbD5K1fv77p2LGjufrqq4N9eVesWGH/dJlEe9WOHDnSnHjiiWbLLbd0ygX98P3337d/OogRAjgHXHPNNc6NhcmoPttu3boFtduXX37Z/qlyi0bgqm/5+OOPN5tvvrlTbpicn3zyif1zQUwQwBnnlltucW4orKzqv+3fv38wKApqRk3uag3QQK/DDjvMKU+svCtXrrR/JogBAjjDaCSsfSNhZVQ/7oUXXmimT59u/ywQknnz5gVh3KpVK6ecsXKygUP8EMAZ5cEHH3RuICyvTZs2NQMHDjTPP/+8/XNATGg6VO/evRnIlYA77rgjWxnGDAGcQZ588knn5sHy2b59+2B+7DfffGP/FFAmNFjtrrvuMieccALz2iuoBs0RwvFBAGcMLZqgVY7sGwfjVatJ9ezZM+irhGR59913zbBhw0zbtm2d3wnjd8iQIYRwTBDAGeKf//wnC22U2ebNm5urrroqeOiDf2jlL025YwGQ8qoFVwjh0iGAMwQLbZTPAw44wNx+++12kXvP559/Hkzx0epZctKkSebuu+8O1DxcqRrN2tR/p7/TcpZff/21fXhveeONN0y/fv2C5Trt3xLj8ZFHHiGES4QAzggamGLfIFi6RxxxhJk4caJd3ImxevXqIAgVrB9//HEQjIWAVVgqNC+99NIgfNQ/qvM/8MADTcuWLc0mm2zifL9i1IAn/b2OdcYZZwQDzRTcCnN9ts5B56Jz0rn59FB+++23g6UxWewjfrVxh1Zqg+gQwBlg+PDhzs2BpanwevTRR+2irjgKM4WbAlahp2BVEKqrQYH6s5/9zDn3JNS56Jx0bnoBUDi/9957wQuDD2hjiSuuuML8+te/ds4do6v1vrXRB0SDAE45kydPdm4KjK5qeEnuBqPQUnipJquXAIWadhtSwGm0ry+BW53azlDnq/NW7Vk1cJWrXiD0IpFkMC9fvjwo21133dU5b4ymNt7wqdUjTRDAKUaDrpo0aeLcEBjezp07m5kzZ9pFXHbUZKtAUjgppBRWWd7eT99N31EvF2rKVhN2En3Lq1atMjfddJNp0aKFc44YXjXzE8LhIYBTDIOuSvfggw82DzzwgF20ZUWBo5qgmmoZtf59H7Oa1hXGla4Za9/jSy65xKy//vrOeWE4x40bRwiHhABOKQy6Ks3ddtvNjB492i7WsqGBSqrlquanwFEzrX1OeVdlorJRS4Ca4dX3XSk0mOiYY45xzgmLV5toaB0CKB4COIUw6Cq6WqREu0NVotlTtTk1L6t2p5ouoRtOjbxW2am1QCOsK4FekujWie7+++9fsd8qCxDAKYNBV9E9+eSTzTvvvGMXaewo3DUlSAFinwNGU33HhWbqcjdzLlmyxPTp0ycVA958VNttlvs3ygoEcIpg0FU01TSmATflpNCvW1ibmId3eSw0UyuM1Uxdzge9to889NBDnXPAmr322mvL+ttkBQI4RTDoKrwdO3Y0r776ql2UsVEIXs1/zfLoZR/VVCeVu4K4nF0K1113nWnQoIHz+bh2NaiNddJrhgBOCRoxa1/kuHa1FrD6esuFBghpPimjmP1QU5vKWSNesGCB6dq1q/O5uHb32Wcf8+WXX9pFCVUggFOA3iTtixvXrnbFeeaZZ+xiLBk93AvNzNR2/VPN/nohuu2228o2EGjw4MF0L4SwV69eZXspygIEcAo46KCDnAsb1+y5555rF18saPCPpsdEXU8ZK6tqxBoIV44gnjp1ajCNzf5MXLPaK5sQXjMEsOfQ9Fyc6qPTQgBxo6ZmrdjEpu/pVCPRy7Frz0cffUSTdJE2bNjQzJs3zy5CIID9hqbn4mzfvn3sA61Uc9LLj0bc2p+H6VJNxgriCRMm2D9zydAkXZxHHnlk7C9BWYAA9hianms27ibnqnN4ebBmS7ViqBth0aJF9s9eEjRJF+eAAQMIYQsC2FNoeq7ecjQ5q59X01rsz8JsqX581VzjnLpEk3RxPvnkk3bR5RoC2ENoeq7evfbaK9YmZ63TrJHN1HjzpboX1CwdZ62MJunqVatenOWddghgD6Hpee2qhvrpp5/aRRYJDbDSikr08+ZX1YbVLK3Wj7i4//77TZ06dZzPwu+lKfpHCGDPoOl57Z5yyil2cUVGtV4W0cCCmtet+cNxMW3aNLPNNts4n4PfS1P09xDAHkHT89rt27evXVyR0Ohm1XqZz4trUvOHX3rpJfuyicTcuXPNLrvs4nwG0hRdgAD2CJqe1+z48ePtoopEYZAVfXRYneqSUF/uypUr7UsoNF999VWwJKP9GUhTtCCAPUELvtsXKK5j3nrrLbuoIqGpRfT1Yhg1ME+jm+NAc9Xt4yNN0QSwB2j/0UaNGjkXZ57VnM040EArDbKxj49YjHppmz59un1ZReK4445zjp9327Vrl+taMAHsARdccIFzYebZevXq2UUUCTU5q0/PPj5iGDVAK67lLLVwDF0gP/WWW26JpWzTCAGcMHPmzGGd4Spq5GgcaNcimpwxLhWamqEQR7+wAocQ/tGmTZuaZcuW2cWUCwjghDnttNOcCzKv7rjjjnbxhEZv0npQrrfees7xEUtVLSpxLGX5+OOPE8JVVCtgHmvBBHCCTJkyxbkQ82qLFi3s4gmNphgxyhnLrdYJj2Oq0n333ce1+oO1a9eOpUzTBgGcIB06dHAuxDzaunVru2hCo/Clvxcrpbo31C9cKrfeeish/INdunTJXS2YAE4IbVJtX4B5VLWJUmFVK0xCBWccq2ddccUVhPAPTpw4MVchTAAngHZh2X333Z2LL29ut912dtGE5r333iN8MTEVnFpQ4rvvvrMvzVD84Q9/IITXWcfsu+++JZdlmiCAE+Dqq692Lry8udFGG5l///vfdtGEQuGrKSL2sRErrZZKLbXmduKJJxLC66wTtCqUWpZpgQCuMO+++65p2LChc9HlzXnz5tlFEwqmGaFvasGXb7/91r5Ui0aho4Up7OPmTS3dmZdaMAFcYfr06eNccHlTo79LYdKkSdR80UtVEy4lhBcvXkz31DrrmLFjx+aiFkwAV5BXXnnFudDy5siRI+1iCYVWt2LhEvTZUpujtTjP1ltv7Rw3T2pGQx5qwQRwBenVq5dzoeXJgQMH2kUSCm2owDaCmAa7d+9eUoA8+uijwdxY+7h5csKECSW9yKQBArhCvPHGG7muuWmOXykQvpg2S22O1mCkPA/KOuSQQwhgiIf+/fs7F1he1CpXpWzrpvDN88tLHOpBruU5VY5V1UtNVav+O/33Be3jYXGW2hytMSN5DmGtFlZK+fkOAVwB3n77bbPppps6F1ce1HQjjViOigZcUfONpspNC51oX9t+/foFa2SrD14vNCpX/S7qUy+o/69/rn+v/04OGTIk+FsdQ8fSMfMcCFEsJYT1d4cddphzzLyopWWjll0aIIArwJ/+9CfnwsqLpawUpBWuGO1cvSqfqiGrwFSIquw0T1r7IWuZTi3+EhX9rY6hY+mYOnYhrPV5mn6jQTNMC1u7gwcPjhwk6r7Kc9lq1kTUsvMdArjM/Otf/8rtvF8FQlRYZMNVTcGqgephrMDVoLZC2Cb9gFI4K5QVyKq16Lej6fpHVRalhLCWaMxry8P//M//RC433yGAy8yf//xn54LKg0ceeaRdFEWj2pZqdfYx86pCV4GrsFXZpAHVmhXIegljqdAfnT59ul1URXP55ZfnNoRffPFFuzgyAQFcRj799FPTqFEj52LKulrj+Z///KddHEWxevXq3O9qpIesXkAUXuqbVeiqXNKIai4KY30P1dj12+a5T1+tF6Vsu6faYB5D+JxzzslkLZgALiODBg1yLqQ8OHr0aLsoikI3mELHPl5eVLOt+lM1CEpN8FlEYayavL5nXpup1UQfdVbAkiVLcrlSll7aFi5caBdH6iGAy8SKFSty2fR20kkn2UVRNBp1ax8vD+o6Ud9pKQOl0ohq9WqmVvN63mp1+s5Ra3RPPvmk2WCDDZxjZl2N4o9aZr5CAJeJ4cOHOxdQ1t1yyy3NggUL7KIoirxtrqDvqlqgvnfegtdGQawmapVHXuZ7F7YxjBooN954Y+5eWrbffnuzfPlyuyhSDQFcBrQE3W677eZcQFn35ptvtouiKNTHmZd+XzW5qgnSh5HLvlGoEat88hDEuhZK6Q/W6nJ5C+Hrr78+U/cNAVwG7rjjDufCybrHHXecXQxFoweufbwsWgheqBkFcatWrZwyzJpqCZk/f7799YsijxuT7LnnniWtse0bBHAZ6Nixo3PhZNl69epF3t9XfZ/28bKkHpAKXg08gnCoaV7jArI+JU3fL+qa0RdffHHuasG6l7JSCyaAY0ZBZF8wWXfYsGF2MRRF1td41uAqPSzy3sdbKlrkQwNwsnytRO0PVp9os2bNnONl2W7dukUqKx8hgGNGcx3tCybLtmnTxi6CotBDNasPVNVINJ2K4I0XTc3SAi9ZrPHpO0XtD1aXVxbLZG3WqVPHvP/++3YxpBICOGaaN2/uXDBZ9oEHHrCLoCg04tU+VhZUc7P65rLyhu4bGqilVoUs9g9rIGLU+cGdOnVyjpdlr7vuukzcYwRwjDz88MPOhZJltSpPFDQQKWsLMOj7qJk0LUtFph21oGSxNhx156SZM2dmriyqs3Xr1pkYjEUAx8ipp57qXChZtVatWpFG9GZxypH6eqOUBZSOxhE0aNDA+U3SqkI06nrR2nM8TyE8bdq0SC8rPkEAx4TeyH/xi184F0lWveCCC+wiKAr1kWfpIaGmdP32kBwq/x49eji/TVrVC91nn31mf80aWbx4sWncuLFzvKx61llnEcDwPSNGjHAukKyquYtR0CCarKx2pQFkNDn7gwa8aUrbhhtu6PxWaTTq1oVaDCdLL7jVWb9+fbN06VK7CFIFARwTWWtWrc7x48fbX79G9DDJysArbSKg+angH+oKyMIALW0+EHVUdPv27Z3jZdWxY8dGelHxBQI4BmbNmuVcGFHVIutaxlKLtauGFadq/q3pnxX+v/3Pq/6zqGh0sIJLNRX9bxrVuVPr9Rs1SWuZRvveSptaoCPKQKMHH3wwN7Xgzp07E8B559xzz3UujJpU84lqzT179jRDhw41kydPzszcNoCk0UuS+oXTPNpeIXrbbbdFCpi81II17ubDDz+0v35qIIBjYJtttnEujIJNmjQxRx11lDn//PPNhAkTGC0LUEEuu+wys/766zv3ZVpUd0eUZSrvueee3NSCo76k+AABXCITJ04M3sI0L613797BZvQvv/xypKYjAIgXPZjVdZDmwVlRA+aAAw5wjpVFjz766Ejl4wMEMABkHu2ulNb5wlF3TMrLEpW1a9c277zzjv31UwEBDAC5QEtYah1h+wGeBjX4MUotLwsjwovxhhtuiFQ+SUMAA0Bu0MpZ6667rvMA9131BUdZJzov84K1BjsBDADgMXpIazpdGgdmde/ePXTIrFq1KjfbFS5cuND++t5DAANArlCIaYpS2mqGWn1t0aJF9tepEU1zTNt3jeKoUaNCv6AkDQEMALlDS1emcf3oKLslLV++PBdrRJ900kmhyyZpCGAAyCVam7xNmzbOg9xn1RccZYnKK6+8MvO14K222ip10z8JYADILVoYJ239wQMGDAhd09NOSVp9zz5W1nziiSdCl02SEMAAkGvStlBH1BHR2gwl67VgrThIAAMApIi07VMdpS/4oYceStV3jKLmPaepGZoABoDco0FZaeoPVi34s88+s79Gjey6667OsbJmlNaBpCCAAQB+GJSVpuUqo6wRfdFFF2W+Fjxu3LjQ5ZIUBLBnqPlEu5/ojfyLL74IfP75580jjzyCHqnf5K233jJLliz57++k3wzSTZr6g7Wdadja3gsvvJD5AD799NMJYCieTz/9NHiY33vvvcGar8cff7zZcccdzS9/+cv/XlRaPg/90L7htUBCw4YNzW677WbOPvvsYCRm1sNYe1drOszjjz9uHn744eA7v/LKK+Zf//qX/Z+mCj24u3Tp4vzGPqq9jvUyGJa2bds6x8qSamZPSz8wAVwhVEOaO3fuf0P2tNNOM/vss0/w4NYDXGo6xJoe8Jgu9RvWq1fPHHnkkebGG28MaslpRkE7ZMiQIJh22WUXU6tWLec7V1XXsl5GunbtGnz/1157zT6k16SpKbpz586ha3vDhg3LfC1Yi4+kAQI4RvTWVQjZQYMGmfPOOy94COthtN122wVhW7VWi9lXL1X63fXSFWUZwaSYOXOmOeecc8yvfvUr5ztFsWnTpuaPf/yjmTNnjv1RXqKm6DS8DGurwrDN0Nq6Ty9J9rGy5OTJk0O/mCQBARwS1WbUXKwmtzFjxgRBq2ZHBa1qtGo61gPXviAQ9SKmGqH6+H1l7NixZu+993bOPU7btWtn7r//fvujvWL16tWp2MpPzdCDBw8OHTYnnHBCpmvBURYrSQICeA2oT1a1FQ20KQRtodm4UKNNw9sx+qdqxLqGdG35xN/+9jez++67O+dbTg866CAzbdo0+1S8YcaMGanYP7hly5ah+zzvuuuuTAdw+/btQ5dJEuQygFUDUZ+sarMKWjUbK2hVO1GzsQZBqTabtiXqMD2qj1gvdUkP1vrwww+D2pB9fpX0rLPOMitXrrRPzQvSsECHzi9s98ZXX30VNF/bx8qKm2yyCQGcNArawpQehW3VQVAKWfXLZr0vBP1WtWG9DCaB7oXNNtvMOackVB+xj7VhDcjaeeednfP1zSjN0L179/b+5aIU0zD4LzMBrLcdPciqTucpjDRWbYMmY/RVjRvQdVtJLrvsMuc8fPCGG26wTzVxNCDL96A64ogjQq+MNXHiRO+/Vynqdwv7UlJpUh3ACloNgDr44IODkK06nYfmY0yTao1RC00lUJOv/fk+6dsAGrWg6fexz9MnFaTTp0+3T71aPvjgg0wHcM+ePb26jtZEagNYTcqq3dqFjphWVRMO25cXlm7dujmf66OasuTTw1N9wb63okVpht5vv/2c42RFjeb3vR84tQGsJjvm1GLW1EtluQZm+V7ztVU3UthAKRdp6AvW0pRhy6tfv36ZrQVvsMEGBHC5UHMdA6gwi2rsQtwozOzPSYOameALQ4cO9TqsNKo5bAuKpp/5/J1K9fXXX7e/slcQwJh7dR1pDIGagPW/9r+vtGrq1PiGuNCcT/sz0qSmCPqAasE+9wVrUY6wOyRpzQPfm9ZLcfz48aHKo9IQwJgrNThP1426LxS4mo6m1cz0kNcoetUgfAhhncO7775rX/ahefvtt1OxmER1aorSihUr7K+WCBo97nONUaOhwwZOlvuBzz333NDlUUkIYMy8uk4KYasmTa1CVd3cW42qt4+RhGqKLrUPq1OnTs5x0+iZZ57pxYNUtWCfZ1hoAYqw05EUUj6/VJTioYceWvI9VE4IYMyUejhqIJPCS0uIKmzVzKYFWYq9ETW1zT5uUpbSFK11ne3jpdmpU6faXzERfF8jWrtXhWHSpEmZDeD69esXfd8nAQGMqVV9V4U9eFWzVTOympAVuKWMJFZw+9Ivptp4dbX16mjSpIlzvDTbunVrL2rBGozlcy04bD+w7hVfrvdyqFYLXyGAMRWqz7ZQs9WIXm1ErmtAgVtK2K4J1Zp9GmwTpRZ8/fXXO8fJgvfcc4/9VSvOm2++6dX1Ydu9e/fQa2vr5cY+TlZUDT/MC0klIYDRO/VwU81W6yQrbAtNyQrbSjQnKdB9WuRFfddh0cAl+zhZsE2bNl48TLt06eKcmy/utNNOZv78+fYpV4tWH8tqM/SIESO8uGbWBAGMianfT3sna4CUmlqrNiVrpbMkUejZ55uUYZep1F679jGy5AsvvGB/5Yrje79p2GUpn3rqKa+/Tyn27duXAI4bAjg9qn+pMP1HgavarZqSCyOSfdyg3reFK9QKUCydO3d2/j5L9unTJ/EHqvoVGzRo4JybL4btB168eHFmA7hjx46hyqKSEMAJWZgao6bOrFsYkazfzMewXRPqd7V/syRVc3wxqHy1BJ/991myUaNGiT9QV69ebXr06OGcmy+qHzhsGdWtW9c5ThZs3rx5RbquokAAV0idqx6ihVpfYWqM+hs1yjWL6rtJXy/+6vBtIJZaDXTN1ISaRu2/zaKvvPKK/dUrjs/N0FHWhdbmBfZxsuBGG23k7TOIAC6janpVX6JqU6VOjYHKot/LlwU5pJrui1mS8YILLnD+NosOHz7c/uoV5+OPP/Z2OlLLli1DL8jRtWtXb18oSpUAjhmfA1jLCJ533nk1rrgEfqHfSrtsKej0+/mwJGVVi9mYQCv/2H+XRRUWYWt4caNmaJ9aSaqqjRnCLshx5ZVXEsAVhgCOWfXrFlNTgWRR838hbNU/rcBVa4Waeu3f1Bc1SrwmttxyS+fvsqhqeEkHsPB1OpKWpAw7EOu+++4jgCsMARyTOhc9IIvpp4PKopqtpjUpcNUdoBHOhbD1tQlxTdY0EOvzzz/P7APUVhtMhAmXcjFy5Eiz4YYbOufng2EHYr322muZvX4I4JjxKYC1SlOYaSJQPnSjqa9di3aodqudjhS2vjYVhlEjyqtDKzRl9QG6JvXCkTQ+b1GogVhhgketQlldkjJMOVQSArhE1eSsmhUkg24s1W4VtqrZqpaoAUtZfJCoxl5djebZZ591/ibLxrFdYxxodS773HxQK2KFDZ6srR9eMGw5VAoCuAT1QFRNCyqHmvi1DnTVsNV1oKbkLIZuVXW9VTeS/rHHHnP+Jsu+/vrrdhEkgq/zgXVfhN1HWfdUFltRCOCYSTqAqfmWn6p9tnowqMwVuGryT1PfbVzWFMCPPvqo8zdZdt68eXYRJIJ2R/IxtNZbbz2zfPly+3SrpV+/fl5+l1IlgGMmyQDW54ZZmxeqpzD9RzVbTbXRYDbNwVXg+jYVKEkVwNWtJPb00087f5NlFy5caBdBIvi6IIfOKWwL3a233urldylVAjhmkgxgDeyBaKgJeW3Tf7LehFyqNfUBZ3kU65r0ZcbBjBkzvLx2dS2wKcP3EsAxk1QA19QMWCy6IFTz0xuqAkmLdmRV/VZVp/+oGdkuV6zZmkZBL1u2LJMPzzWpe7+6l5FKotHnPm7MoGthwoQJocrp5ZdfzuQ1RADHTBIBrM9ToJSKzl01PzWx5rEvE6NZzL7AWoDB/rssuvPOO4cKlnKiJSk1RsE+Rx8cPHhwqHJSs76PtflSJYBjJokALuYBWB1qdlUtJosXOJZfvbTVxJ577un8XRY9+uijQwVLOVGLWP/+/b2sOQ4YMCBUOS1dujSTzycCOGYqHcAaeRt1iUnNU1V4Z/HCxsqoa72YxV7OOOMM52+zqLozwgRLudGKWD4GcNjN6FetWpXJ5xQBHDOVDmCNyo2CztPn9YUxHaq7opiR9woC+2+zqEYe+4TOx8fg6ty5s/noo4/s060WX5fWLEUCOGYqHcBRRj5rgJVPW9phei32BfAf//iHlzWxuP3qq6/sr54os2fP9jKAjzjiiNBTkXwcUFaqBHDMVDKAtdZrMbWPqmi+puaz2sdCjKKaXIvlN7/5jfP3WbJDhw6hmlUrgUZC+xjAWo5y/vz59ulWyw477OAcJ+0SwDFTyQDWCMewP6AWlfDxhsT0GfYFUANv7GNkyZtvvtn+yomjkdA+zmjQMzLsvsDa6tE+TtoN+/yuFARwERYz+tSGpmeMy9NOOy3UA0Q1nqw2Q9eqVct89tln9ldOHO3M5GMAaznKsItxtG3b1jlO2g1z/1QSArgItYhEGDRamiUUMQ41+j7K3POjjjrKOVYWPPPMM71rfhaaiuTr4CW1xoWhU6dOmXuBI4BjppIBHHb6kWrMND9jHGr6WpSV16ZMmeIcKwuGaYqvJPqNfB28FHY1rFNOOYUArhAEcA3qM8Le9Fpswz4OYljVpBn22quKBivZx0yzp59+eqggqSSrV68OVueyz9kHb7vttlDl1qtXLwK4QhDANRhl+UnN2bSPgxhWjaIv5cHx7LPPOsdMq+r7ffvtt+2v6A0+B3DY5SgvvPBCArhCEMA1GDaA9UMTwFiq6vtdvHixfXmFRish2cdOo9dcc4391bxCTdCtWrVyztsHCWACOHYqFcBqBiSAsZLqmitm2cliSftKbIcddlioAEmCLNWAaYKuHARwEYYdhJX2Bx4ma6mbftg899xzzmekxfr163vd9FxAAaz52vb5+2DYAGYQVuUggIsw7DB+X7cmQ//VAL5ybDR/++23O5+VBn1b83lt+DwKOmwAMw2pchDARRh2HvCNN97INCQMrRZv0c5Z5eLqq692PtNnR48ebX8Fb1EA16lTx/kOPhh2FDQLcVQOArgIw6zDK9566y3TsGFD5ziIa1PhG3bR/CgMHDjQ+Wwf1UtsmtBKWL4uxBE2gFmKsnIQwEUYpU+OjRiwWNVlUYnwLfCXv/zFOQefTFPNt4CvS1HKsAtxsBlD5SCAi1CDqsI+IHV+1IKxOvXA1otaOfp8a+KOO+5wzidptXzrww8/bJ9qKvB1MwYZdgyLr33ZpUgAx0wlA1g3VtiLWGhJSvtYiFJho6lG2rYyKTS9zpcR+2qC117GacXX7Qg1mCrsZgy+NqWXIgEcM5UMYKmaSlg0MEPN1/axML/qZU5hU8oSk3GT9GIdl19+uX1KqWPGjBleBrCekWG2I1y1apWX36NUCeCYqXQAqzk5yghV1XCYloRSU4zUkuLjw2DmzJmmXbt2zjmXU72cvv766/appJKRI0d6OXVnk002CRXAS5cuJYArCAFcpKq5DBo0yD6NotCPr79li8L8qSUltZ+vmnuTbG4uFvXBlnsTBwXv008/bX90qunfv7+XAawRzWHGryxcuJAAriCpDeAkpvpoickoW8MV0DmrX9jXFXMwHvViqGZmTV/TACtfb/7qePXVV4M1geNaXlFBcMUVV6RiVauwaACWr61cnTt3Nh999JF9ymvl5Zdf9vJFolR9vQdTG8BffPFFULNQKKqWUW4V9rrJ4ui70xupBuDo/HVMPaylasj256K/6ppQs7J+Q/2WmruqJmZdI1G6K3xFA4zUxNqzZ0+z33771ThKduuttzZt2rQx55xzjhk3blyoGlgaUfnE9aISt+rfX7lypX3Ka+Wpp54igCtIagNY6MbWw07Ne5VQNVgFf9zouPZnYTrU9Zf1gFkT33zzTfCSoSbLBQsWBDVb1QT/85//2P9p5tEALF+nIIVdhlKLdhDAlSPVAQwAkDR33323t6EVdvqkr33ZpUoAAwBkkKFDh3oZWjqnMCOgxW9/+1svv0upEsAAABmkS5cuzgPfBxWky5cvt0+3Wpo2beocJwsSwAAAGUP93r4OwNJofPXVF4v6irM4BUkSwAAAGUP7Ffu6DeFOO+0UKng0mjuLzc8yTDlUEgIYACAiPg9a0hzgMCOgH3zwQW+/S6kSwAAAGaNVq1bOw94H11tvPTNgwIBQAXzttdcSwBWGAAYAiIBWxfN156Atttgi9BSkHj16ZDKAN9hgAwIYACBLaAEOXwNL/b9hlqAUBx54oHOcLBi2L7ySEMAAACFZvXq11/2/CtMwzc+i0mvrV8rDDz+cAAYAyArvvfeet9OPZNgBWJovnNUpSNrLPUxZVBICGAAgJD4vPynDrgH94osvev19SjFsWVQSAhgAICQasGQ/6H0y7ACsYcOGZTaA77vvPgIYACAL+N78rEFH8+fPt0+7Wo455pjMBnDYsqgkBDAAQAi0N7Kv2w9K9f+G2QNYaC9y+zhZcOONN/Z2AJYggAEAQuDr4hsFtadvmCbX2bNnZ7b227p1awIYACALaPMF38MqbJNrlvt/e/fuHeplpNIQwAAARXLZZZd5HVbbbrtt6ObnLPf/3n777QRwOfnkk0/MP/7xD0TMmB9++GFwf/uCBl81aNDAecj7ZPfu3UMFjv7brPb/yjlz5thf2StSG8Da57JDhw6ZnTyOiN/bt2/fUKFSLgYOHOh1TXGTTTYxEyZMCFVWM2fO9Po7laI2pPC5/1ekNoD1drz11ls7hY6I2dKHAFbfr89Tj2SU9Z8HDRqU2QDec889CeByoSaqzTbbzCl0RMyWl156aeIBrNqv761tYZefFJ06dXKOkxV79uwZujwqDQGMiF6bdAB//vnn3vf9yrDNzytWrDB169Z1jpMVNV87THkkAQGMiF6bdAAPHTrU+2Za7f+7aNEi+9Sr5bHHHvP+e5Xia6+9Zn9l7yCAEdFrkwzgN99802y33XbOOfmmRj9/++239ulXi++DykpRA9J87/8VBDAiem1SAazP9H3ThYJhN18Qu+++u3OcrNi+fXsCuJwQwIj5MKkAnjRpkqlTp45zPr6p5uewi2/ou2W19isHDBiQyDUTFgIYEb02iQBevXq199OOCoZdfENohHCWA3jy5MmhyyQJCGBE9NokAjgt/aPq63zppZfs06+WZcuWmfr16zvHypLLly+3v7aXEMCI6LWVDmDtDpSGpmd54IEHhi4bTc9Jw8tFVHfddddU9P8KAhgRvbaSAfz111+bLl26OOfgq4MHDw5dNkceeaRznCx5+umnhy6TpCCAEdFrKxnAaZjzW1BLT4bdenDu3Lmp+X5RvfPOOyt2vZQKAYyIXlupAJ4xY4ZZf/31nc/3VZVL2KZW37dTjMOw62EnCQGMiF5biQDWVoNpGfUstdNP2JWvRJbn/sq999479EtJkhDAiOi15Q5gTTlKy4IbBaNsvJD1ub+y3NdK3BDAiOi15X6oaspRmpqef/7zn4eeeiSyPvdXPvHEE2W9VuKGAEZEry1nAKvfNy1TjgpGqf0uXrw483N/69WrF3o97KQhgBHRa8sVwB9//HEqthmsqhbemD59uv1VauTKK6/MfO33hBNOKMt1Uk4IYET02nIEsMK3VatWzmf5rmq/Ydd91qpQjRs3do6VNW+44YbYr5NyQwAjotfGHcBabKNNmzbO5/iuRj6Hnfcr0jS3uRTnzJljf3XvSW0Af/jhh2brrbd2fgREzJZ9+/aNLYA14jlNK11VNUrf76pVq0yzZs2cY2XNfffdN1XTjwqkNoC/+eYb06FDB7PuuusGP4D+FxGzY+HhOmTIEPv2j4TCK63hG3Xk880335yL2q/6uMO+nPhAagNYqMlhypQp5p577gn+FxGzo+7rUaNGma+++sq+9UOjh3P//v1TG0ZRthwUaeznjqKW2EwjqQ5gAICaULNzmsN32223jdT3e8cdd6T2O4exXbt2kV5OfIAABoDMogdz2la5sh0wYECkgDnggAOcY2XR4cOHRyofHyCAASCTfP7556nfem+LLbaItLmAmu/zUPutXbu2efvtt+2vnxoIYADIHArfNE41qqqmHd12222Ranft27d3jpdFjz322Ejl4wsEMABkijfffDNVOxutzQMPPDDS0ooPPvhgLmq/8vbbbyeAAQB8QGs7b7fdds6DOm2q6TnKkpMiL7XfzTff3CxdutT++qmCAAaA1KPVrTRfeMMNN3Qe1Gl08ODBkWp2eZn3KzW4LkoZ+QQBDACpRus6p32wVVV32mmnSE3P2vEoD2s+F9RccQIYACAh7r777tRtJ1idUXc7Emme6xxWLTCSxqUnbQhgAEglI0eOzFT4yqgrXs2cOTM34SvTuvSkDQEMAKli9uzZqZ9itCZbtmwZac6v6NSpk3O8rKp1wqOsDOYjBDAApIL33nvPnHHGGUEzrf1QTrvabCFqqORlycmCaZ/7WxUCGAC8RiOc1derGqL9MM6CCs+oo56XL1+ei+0Gqzp+/PhIZeUjBDAAeEtWm5uresQRR0QOlIsvvjhXtd/tt9/erFixwi6G1EIAA4BXaPciLaih5mY1zdoP4SwZdacjoZeTrJeP7UUXXRT5ZcVHCOAycemll+bORx55xC6GUEyaNMn069fvv8fTwgpZVKN39V21XjH8iB6sWkbyhBNOyGQ/75qcMGGCXQxF06VLl1zVfrXIiq6PLEEAl4kvv/zSuYCy7jbbbBN5aTg9fLPax7c2VfvRi4YGF+UZ1Xiz3Me7NqNutCDytOJVwTPPPDNyefkKAVxGzjvvPOciyrp6K4+Kgkhr4NrHzLpqRlQ/oEIoL2Gs2r+amdXioZWftPOPXS5Ztm/fvpHDRHN+N954Y+eYWfeZZ56xiyL1EMBl5IMPPnAuojx4/fXX20VRNGpiykvz45pULXDgwIFB/55G/0Z9SPuIarpaNlIvGnrhyOPLltRiG1GWmhSfffaZ2WeffZxjZt3jjjsuU/dCAQK4zJx99tnOxZQHVbuJih7QeasRrUnVDKuGcVpR6KrfW9vr5f131QtWKUsoagOCvDU9y4ceeogAhvC89tprzsWUB/faa6/Ig4xUU1LfqH3MvKomavUXa3CSgkyBHLVsK4Ga0QsD6hS6atHIY2jYljLiWYwYMSKX5di2bdtMhq8ggCvAqaee6lxUeVCDJqKigFHg2MfE7x/kasLVS4qCTs32qmVWsslan6PP0++kz1boquVCU4dUy8tzN8KaVHN7KSOen3rqKbPBBhs4x82DWumrUtd1pSGAK4AGTdgXVV4cPny4XRxFowe8gsY+JroWQllN1mr+VyjG+dDSsRS2CnsdXzXxQg1Xn53HmlmxqmxKGfH8ySefBLv/2MfNg6U22fsOAVwhNIjAvrjy4uTJk+3iKBoFCSFcvHrYq8laNVDVuvQAU/mpNUG108I8awWoaqyqQRfU/9c8Zf17/bf6GwWs+qIVsjqejqvj570vt1hVTgrfUkKkW7duuX3BueWWWyK/uKQBArhCPPzww87FlRebNGli/vnPf9pFUjRq3szbHNFKmteHe7nVi4peZkoJ36FDh+b298l67VcQwBXk0EMPdS6yvHj44YfbxREKhbBqYvZxEX11wIABJQXIY489Fmy9Zx83L2a99isI4Apy5513OhdZnuzdu7ddJKFQ/6OaRO3jIvqkmp0VvlHn+oq33nord7scVTUPtV9BAFeYvA6mKFjKoCyhEKY5Gn01jmbnJUuWBNP47GPnyTzUfgUBXGHGjRvnXGx587777rOLJRQ0R6OPlrKvb1Wyvv1iTeal9isI4AQ46qijnIsuT6qWUOrOSTRHo0+q2VnhW2pwdOjQwTl23sxL7VcQwAkwbdo056LLm3Xq1DFz5861iyYUhDD6oKZmxRG+xx57rHPsvLnvvvuWXI5pggBOiJ49ezoXX95s0KBBsG1jKTBPGJNUrTma51sqJ510knPsPDpx4sTc1H4FAZwQWhNWtUD7AsybWuChVLRilhaYyOt8SUxGjUN46aWX7MsxNOeccw7X7g9bmeYpfAUBnCBaNtC+CPPoLrvsYhdNaBTCKk/VSOzjI8atVgn76KOP7MswNIMGDSJ811nH1K5dO5aXmbRBACeI9vbceeednYsxjx500EF28URCSymyEQCWU4VvKXN8C9x1112E7w9ecMEFuav9CgI4YW699VbnYsyrcYWwtutjmhLGrUY6a45vHEHx5JNPEr4/2LRpU7Ns2TK7iHIBAewBhxxyiHNR5tW4QlhzhTU4i4ccxqE2oohjsJV44IEHuC6rmKdpRzYEsAfkeaOGNRlXCOumVr8wO/dgKSp8p0+fbl9ekdBCPITvj7Zr1y634SsIYE845ZRTnIszz8YVwkJb7Wm0tf0ZiDWp/t5FixbZl1QkbrzxRsLX8oknnrCLKVcQwJ4wZ84cU7duXecCzbNxhrAW7dDD1P4MxDVZaHLW6Po4uPrqqwlfy7wOvKoKAewRI0aMcC7SvLvrrrvGtjJOYb6w/RmIVdUAvrianMX5559P+FruueeeZsWKFXZR5Q4C2DM6d+7sXKx5d8MNNwxqsHFBkzSuSc0h1zaCmh4YFz169CB816AGouW99isIYM/QPqBbbbWVc8HiOubBBx+0iysyhSZpFu5ABaSuBa1OF1coLF++nLWd16JW/oqrnNMOAewho0aNci5a/N5rr73WLq7IrF692tx9993UhnOuar1xBsLChQuD8Qv25+D3zftxrCCWFQhgTzn11FOdixe/V816X331lV1kkVHfsBZY0MAb+7Mwm2pqmsYDaL54nEydOtU0b97c+Tz83vHjx8f6spN2CGBP0YOhcePGzgWM39u6dWsza9Ysu9hKQmV+xhln0CydYRW82vBdg6ziDgJtSUh/79pVpSLuMk87BLDH6G3RvojxR+vVq2fGjBljF1vJqFlaD2keptlSzZ9xTi0qoCbVrl27Op+HP6oNVz788EO76HIPAew5Z511lnMx408977zz7GIrGb2p0z+cDdW1oBXR4prOVhU1Oe+2227OZ+JP1QBKar8uBLDnaMN5zYW1L2j8qVr3WSPI46bQLE3/cPrUy5P69uOcwlYVmpyL85JLLiF81wIBnALuu+8+56JG10aNGpm///3vdvHFgh7iCmIeuP6rlyX9VppWVA5oci7eww8/nPCtBgI4Jfzxj390Lm5cs2qSXrVqlV2EsaAasUbPMlDLPxW8+m3KOc2FJufibdCggXn11VftIoQqEMApomPHjs5Fjmt2v/32K9tC73qjL9SI6SNOVrVI6DdQH2+5mpoL0OQcztGjR1P7rQECOEW88847Zscdd3QudFy7l19+uV2MsaKHvvoZNcKWWnHlVBCqzMvZx1vgqaeeMh06dHDOAdfu2WefTfgWAQGcMqZMmeJc7Fi96oeaPXu2XZSxUqgVF8LYPgeMx0L/7owZM4KVzMrJsmXLzLnnnkutN6QHHnhgrAvlZBkCOIUMGzbMueixeuvUqRNsCVeuvuGqfP7550FAqD9S84mpGUdXC2fohUZlqZcozQqoRM3qjjvuMDvvvLNzPli96vd9+eWX7eKEtUAAp5Tf//73zsWPNbvHHnuYO++80y7OsqFBW5pPXNj4gdpUzRb6dVVmI0eOjH25yOpQyB9//PHOOWFx3nXXXRV5QcoKBHBKUU2ubdu2zg2AxakBberbqyRagUlbISpYmFfsWmheVhlV+iGu++nPf/6z2WijjZzzwuJU90ulf7e0QwCnGA3xZ+vC0tRgEe1eU0nUd6mmVAWNHlpaRCSPo6kL6zJXbV4ud7/umtA8+7322ss5PyxevVQSvuEhgFPOvffe69wMGM769esHQbh48WK7eCuCasYKoCFDhgQPMoXxJptsEgSUfa5pVE3Kan7Xd9J30yAdha6a5ivZvGzz4osvmtNPP905XwxnixYtzJIlS+zihSIggDOAptrYNwWGV60JSQZxAdUkFEyqIad1IFdh8JReKPRioUFp+k4+1JK0ExIrWcWjmuxVnhANAjgjnHzyyc7NgdH0JYiFAks1ZIWXasmqNWrRCfWVqula4ZxE83VhHq4+X+ehoFWZ6fx0njpfjQZPokl5bWgKHwOs4lWD5Hx4qUorBHBG+OKLL0ybNm2cGwSjWwjiJJtJq0PhprnHqimrlqnactVgVkAqnEtVx1KzsUJWn6HPUtCqVquwjXt7v7jR+uBHHXWU8/tiaV544YWEb4kQwBlCD+MmTZo4NwqW5qabbmp69eplnn32WbvIvaZQe9bgJr1EhDWpQVFxoSkxhxxyiPN7Yul26dKF8I0BAjhjTJs2zWy44YbODYPx2KlTJ3PPPffYxQ4eoTWItRa4/dthPO69996Eb0wQwBlk7Nixzk2D8apmWTXFlnPnHSie5557zpx//vksA1pmNVf7u+++s4sfIkIAZ5SrrrrKuXkwfjfbbDNz2mmnBXNJv/32W/tngDKi+dt6CVL/tP27YHlkulG8EMAZRv2W9g2E5XP77bc3//u//2sef/xx+6eAmNBgQy0letxxx2VmnnRanDVrlv1zQIkQwBnnmGOOcW4kLL/atP3iiy82L7zwgv2TQASmTp0arFrGym/J+Oijj9o/CcQAAZwDWGYvWdVffNFFFwXTdqA4Vq5cGYSupoHtvvvuTpli5dQ0LgZdlQcCOCdsvfXWzo2FlbdZs2amf//+5rHHHrN/otzz9NNPmyuuuCKYx1y3bl2n7LDyjh8/nvAtIwRwjrBvLkzWHXbYIVgS8brrrqvIBvO+oc1Ehg4dGkzt0nrcdvlgst52222Eb5khgHPGBhts4Nxo6IdaV3f//fc3f/jDH4K5xu+//77986WWb775xsybNy+Yo3viiSfSl+u5w4YNI3wrAAGcQ7QrjX3DoZ9qmpMWlejWrZu5+uqrg/64N954w9vaslbQUvP6DTfcYHr37m0OO+ww06hRI+d7ob9qCiPhWxkI4Jyy+eabOzcepsvGjRubdu3aBRtxaI3ma665xowZM8ZMnjw5WKP5gw8+CGqepaC5zdpUQfM/33nnnSD8X3rppaC/dty4ccFIb21woFHfaduxCV3VB0/4Vg4COMcwMCsf1q5d2/zyl78M+ll/9atfBeuF77rrrsHobNWuDzjgANOqVavgn2kuc8OGDYNWkvXXX985FmbXW265hfCtMARwzvn1r3/t3IiImC//9re/Eb4JQACD2XnnnZ0bEhHzIfPTk4MAhgAWO0DMn+rTh+QggOG/sGIWYn5cunSp/QiACkMAw0/QgBz7RkXE7KgZEPT3+gEBDA6nn366c9MiYvrVCzbh6w8EMKyRW2+91bl5ETG99ujRg/D1DAIY1srzzz/v3MSImD4vv/xywtdDCGCoFq1HrIUb7BsaEdMh6zr7CwEMNfKf//zHnHTSSc6NjYh+q80vCF9/IYChaC655BLnBkdE/9xmm21Y3SoFEMAQiptvvtm52RHRH7VBx+uvv27fuuAhBDCE5qGHHjJbbrmlc+MjYrL26tXL260qwYUAhkhou7vWrVs7DwBErLy1atUyw4cPp8k5ZRDAEJmvv/7a9OnTx3kYIGLl1DaSU6dOtW9PSAEEMJTMX//612DQh/1gQMTyeuyxx5r33nvPviUhJRDAEAsLFiwIHgb2AwIRyyOLa6QfAhhi5aqrrnIeFIgYn9o6dMqUKfatBymEAIbYeeyxx0zLli2dBwcilmb37t3NsmXL7FsOUgoBDGVh+fLl5qyzznIeIIgY3k033TSYg0+Tc7YggKGsjBo1ytSvX995oCBicR566KFm1qxZ9q0FGYAAhrIzd+5cc8IJJzgPFkRcuxtttBEDrTIOAQwVY/z48aZ58+bOgwYRf+oxxxxDrTcHEMBQUT777DNz4YUXmnXXXdd56CDmXc2np683PxDAkAjPPfec6dSpk/MAQsyrGuH8zjvv2LcKZBgCGBJl5MiRpkmTJs7DCDEvtmjRwtx77732rQE5gACGxPnoo49M3759nQcTYpatV69eMMhq5cqV9i0BOYEABm944oknTPv27Z0HFWLWVHPz/Pnz7VsAcgYBDN6hQSjNmjVzHlqIabddu3Zm8uTJ9iUPOYUABi9ZsWKFGTRokNluu+2chxhi2txhhx3MTTfdxOhm+AkEMHjNxx9/bC655JKgv8x+qCH67lZbbWUGDBgQXMcANgQwpIKFCxcGA7XWX3995yGH6JuF4P3Xv/5lX8oA/4UAhlQxZ84cc8YZZzgPPEQfJHghDAQwpJKnn36a9aXRGxW8l156KcELoSCAIdVMmjTJHHvssc4DEbESNm3a1FxxxRVm8eLF9qUJUCMEMGSC559/3vTq1cvUqVPHeUgixu2+++4bTJdjEQ0oBQIYMsWiRYuCGslOO+3kPDQRS/Woo45i2UiIDQIYMsk333xjRo8ebdq2bes8RBHD2rVr12ClNoA4IYAh82jloRNPPNF5qCJWpxbPuPjii81rr71mX1IAsUAAQ27QFKb+/fubBg0aOA9bxIJHHnmkGTduXNCKAlBOCGDIHZ988okZM2aM+d3vfmdq167tPIAxf2655ZamT58+wWA+gEpBAEOueffdd82IESPYhSmH6uVLg6puvPHG4KUMoNIQwAA/MG/ePHPVVVcFU0zshzVmw80228x06dIlGKD3wQcf2JcAQEUhgAHWwHPPPWcuvPBC07x5c+chjulSO2r16NEjmD60fPly+6cGSAwCGKAGpk6dGvQPtmrVynm4o5/us88+5oILLjBTpkwx//nPf+yfFMALCGCAECxYsMCMGjXKnHrqqaZx48bOgx+TsWHDhkHTslanevPNN+2fDcBLCGCAEpg7d64ZOnSo6dixo6lbt64TDFg+q9Zyv/76a/unAfAeAhggRtR3rKUwDz74YCcwsDT32GMPc84555i77rrLvP/++3bRA6QOAhigjKiGPHbsWNO3b98glDUK1w4WXLO77bab6d27t5k4caL5+OOP7aIFSD0EMECF0fSXhx9+OKgpH3/88cGWdnb45El9/06dOgWjzrUC1UsvvWRWrFhhFxtA5iCAATxA29qp+VqDiDTi+uijjza777672XTTTZ3ASqMaJLX//vubU045xQwcONDcc889wbxrRihDniGAATxHc1e1jvX9999vrrvuOu8C+uc//7nZZpttTIsWLUyHDh2CfZmHDBliHnjggSBkqc0CrBkCGCDlFAL68ccfNw899FBQu7zjjjuC2rRGaF955ZXBrj7aiOLss8823bp1C6bsqNlXS3Bqy0YFp/5/586dzcknn2y6d+8e/LcK+/PPP98MGDAgCP8777wzGHWsZmIt4/nll1/apwMARUIAAwAAJAABDAAAkAAEMAAAQAIQwAAAAAlAAAMAACQAAQwAAJAABDAAAEACEMAAAAAJQAADAAAkAAEMAACQAAQwAABAAhDAAAAACUAAAwAAJAABDAAAkAAEMAAAQAIQwAAAAAlAAAMAACQAAQwAAJAABDAAAEACEMAAAAAJQAADAAAkAAEMAACQAAQwAABAAhDAAAAACUAAAwAAJAABDAAAkAAEMAAAQAIQwAAAAAlAAAMAACQAAQwAAJAABDAAAEACEMAAAAAJQAADAAAkAAEMAACQAAQwAABAAhDAAAAACUAAAwAAJAABDAAAkAAEMAAAQAIQwAAAAAlAAAMAACQAAQwAAJAABDAAAEACEMAAAAAJQAADAAAkAAEMAACQAAQwAABAAhDAAAAACUAAAwAAJAABDAAAkAAEMAAAQAIQwAAAAAlAAAMAACQAAQwAAJAABDAAAEACEMAAAAAJQAADAAAkAAEMAACQAAQwAABAAhDAAAAACfD/H7/soRHncTsAAAAASUVORK5CYII=;html=1;spacingLeft=10;labelPosition=right;align=left;fontSize=15;strokeWidth=3;" vertex="1" parent="wssLdagy5Da7dfHTv9jN-23">
          <mxGeometry x="13.5" y="9.999999999999998" width="43" height="43" as="geometry" />
        </mxCell>
        <mxCell id="wssLdagy5Da7dfHTv9jN-24" value="" style="group;fontSize=15;strokeWidth=3;" vertex="1" connectable="0" parent="1">
          <mxGeometry x="414" y="387.5" width="180" height="68" as="geometry" />
        </mxCell>
        <mxCell id="wssLdagy5Da7dfHTv9jN-25" value="" style="group;fontSize=15;strokeWidth=3;" vertex="1" connectable="0" parent="wssLdagy5Da7dfHTv9jN-24">
          <mxGeometry width="180" height="68" as="geometry" />
        </mxCell>
        <mxCell id="wssLdagy5Da7dfHTv9jN-26" value="" style="shape=mxgraph.gcp2.doubleRect;strokeColor=#dddddd;shadow=1;strokeWidth=3;fontSize=15;" vertex="1" parent="wssLdagy5Da7dfHTv9jN-25">
          <mxGeometry y="2.5" width="180" height="68" as="geometry" />
        </mxCell>
        <mxCell id="wssLdagy5Da7dfHTv9jN-27" value="&lt;font face=&quot;helvetica&quot; style=&quot;font-size: 15px;&quot;&gt;&lt;span style=&quot;background-color: rgb(248, 249, 250); font-size: 15px;&quot;&gt;Gateway&lt;/span&gt;&lt;/font&gt;&lt;br style=&quot;background-color: rgb(248, 249, 250); font-family: helvetica; color: rgb(153, 153, 153); font-size: 15px;&quot;&gt;&lt;font color=&quot;#999999&quot; face=&quot;helvetica&quot; style=&quot;background-color: rgb(248, 249, 250); font-size: 15px;&quot;&gt;AgentH / SpringBoot&lt;/font&gt;" style="shape=image;verticalLabelPosition=middle;labelBackgroundColor=#ffffff;verticalAlign=middle;aspect=fixed;imageAspect=0;image=data:image/png,iVBORw0KGgoAAAANSUhEUgAAAGkAAABgCAYAAAAejVzyAAAAIGNIUk0AAHomAACAhAAA+gAAAIDoAAB1MAAA6mAAADqYAAAXcJy6UTwAAAAGYktHRAD/AP8A/6C9p5MAAAAJcEhZcwAALiMAAC4jAXilP3YAAAAHdElNRQfoCBMCFjB92tHqAAAkOUlEQVR42t19eZheRZnv761zvr2XdHc66Q50CA0hJCRhMbIOgijKongVLu7jrgMj3ovAdQCfqw4i4jaDoDzjDAMKKiKgeF0GURh22XfClpCdJN1Jev3Wc+q9f5ytqk59X3eHmKiV5+Q7p05Vnar3V+9adU4T/gLTZ25qw/zlEptXEfY/3EehkEcp140B9zBc/dzN7pF70axSZnZ/zmmfnxGFQYdy+ziUHRBweomcHoLTIUiUCJQFKOMg42RQuiQn2i59ZvWrOGu//97TQ5xRcvd0B6J04Z9KmDtYQ7Xso6Nboi3fjRMWvRl3bLk+X0Bhb+nz4k288uDTF71hmSNy+wk4/UTUCXCBSQqGD0YdEhLBuQSDAUjk0IleXr69gTHcee5dAGhPD3dGaY+CdM5vgX0PIYyNMPrnE9ryC/CB3pfxvfHcHOnz8lfxyN8tnn3oUQ7llgiiuUx+RqIBD6OQqMdgADJukwEkIBAARhalusv5tQ4yOO36A/Dzzj056pmnPQLSV1e6mLtvAdVKDe3FuTip/3O4e+JLvZ7vHXEjLz2pr7TsWEHOQpBfkKijgYkQFIkAhoQTCGRc64kBOMhPuChuIiZ8uPPlPTHk15V2K0jfWCOwdJ/DsX5iJTqy+2Hr2OPZkuSDn/Sue9fs4pJTBWGxpEbOxzjqqILhAzCBIIuw0oFLcgO+cpDbkePOIR/13UrcXZV2C0jf3ihwyLwzsaZyD+oowWevs+FVTti/+w0fFIKOBzV6fIyijkoIjErw6Jyt8AR30DSfQHA5t6VDDoyO4NXdRNZdm/6sIH1zXQYDA4swUd6GcWwHM3eXG0OnzS4t/igRHylpMtfAJBieokvSAisitgkUx/9TU6AAAQf5Db3lk8tD2W/vARK//vRnAenCBxwsPGQeGl4FLndDyq3tZW/ruzryA2eRqB/uY4crUY7FGSDC30hs2YFKUhqoZiA5cJBBfu0VnSQPGfnMbiXurkri9Tehp+8P92DU9VFw52GsMuw2vPJJs4r7/tx18Z9SDB9dx2uuj7EYIAYUg0A9oNwPzgKDmuM8GeYGeXq9ZIAZOMitWYpTUXK79jS9dyrtMk666EGBZYcdgYZXwbve+E5sqz23aJ+eoz8PUXufT0MdEpMIyBpwSpqc3EJkkSLampVki9ZiOMg0MlxY14Z5WL1xw24n8K5Iu4ST/m3rfrj0SB9Z6ob0kB/11n7CzTq/8p1tn27Qxo6Ac2Q41zkmsso3CS9FvKHyR/rf9BLBRXYig9KmPHfhvQfesKfpvVPJeT2VhQv8ePR4ZEQnNuTvQL1RXZgtuN+SzvYvNGjzHB/jUB3NKHFLRZ8ILVL+N5P9HsW8FJ0V0fNaPw79Xt1rjMnCMrzj4hwOeuNyPPK7l3YzqXc+7XR85P/ck8VxR3wYnl/DN/7hpzj/mne9w3OGL2vQpqUeRmEHJyKfvRucyo2MCBvDi1RLUXk1v5v3e8wZ2+u0a3732Objz3xeehNZyHoRfqUTta2DyLRvx8SqJfjyKT/dE/SfVtopkL75/Hwcvvj9KNdG4NdyBb+48XM1Z/0X6rShS6Ial+OmcOg5PCW3qEdyV3VyyZInIFD05k5sKD/1vM/eakhnJWTmWZbui7LasX7BwNqxDeMOuNoFWe7F/9pnJS5/7ARcfNTd8Bs+/lLSjEH6waq34ojBEzHUeA1enXrr+TVfLTsvf7yO11y7I5o4oyoX2U1qsuYGnESW+wIq/5jPdJGBU2vDxspTgIjMCvIItJ1ZrAK7T0C6D7KXf5Qn91qT2evJqj/eDVmei7aBlRh56hScf8hv9zRGMwPph2tPxtvnvw3P+2uAenHfiexzV4w7z72zgW1I8w1N8duqOzaNkwaKQpGXFqDBdRZFNCYJmysrQWF1Cg9QrL0kIDZDOk+BM3fCL9wpJ/da6fQ+WeHJPsjxBaDcGMafXoEvnvKj3Y8QZgDSz179JN65oIpHZB+4nl88mnni38bE08d6NJo0xqpxTWHrkThrFnuzE9heTkAHiUKohLWNPNoxPjqJ4foaCBIAcQBQ1D3Suhm0x2Ib2H0UMncbvNLvvQduXJ057h3MkwMQnWtQe+XtOO+wW//yQPrRK+/BwfsVMeLPgdvoOWjYve+aEeeJI3xMWIipNE7KHaYoE7pyt9VONEw6X6Tqp7kpOC/wLAyPbMVoY3MIUsiLBDCx2p0YvPgXBLCzBjJ7O/zijZhc8BB1PVXh8gK4s19CdeUp+Pzy3SMKpwTpivvOwPHHrEDZq0A0OhZtyfzxuh3i0SN9KqeqT414SMxo6sakFdaydqBErItagUQACrIbG3esQdkfhSBKQIofz/GjSO2WBhYAdsbA2XvhF66lWt8daH9xDBMLgcIWeOvejHMPvuXPClJLZ/YzN/XghCPegloNKNQHBobcu69uBhCAJoEZvQQbLiw3rcVNWjSdWb2Mau+xBDzUA86B4TgzAu7m4CbLII/DpqLzoJjfwaJyKjIjP+bi6l+gMetMyEIbqAa3ZxWu3LIQF99yxp8NpJaT/7nJG+BRBQVvXteq3HU/GHLuPcMT4y2qTsfkNsRgXEI0FYHmelIk9lTuSYyIqIZAptGBtWMrIdk32lNaUjkKifhTz9O9dWqQ2TvJb7sSI0f8AV0PN3jrCaDSOpwz//7dB9KTQ9cjly9gn8bpmfuLH798s3vHuQ2x3Rgit2iKWj7EDpTq55j1zfxI7NlAAgRcoJbH+okXEUfX2fLEGBD9JhlAmeMIxeA4ceFmNGb9C/euf4a2HgBR2IaJF96ELxz+i10GklXc3fHq1zG78Ub8qO0MPFI492NDzn1nN0gFCMHANUmTFktIRd6Uu6yLrCR0yk32LZjiT2/RFJsCDhqyBiaZ6B/BmlWn4pbqPSv5nC7DAEB+O4vJj3F2669pR8+5JPOd7DOKnXlcue7oXQZSapKfeVU7Pn/251BpjKDgzztqnXPLzyfcF/YypxOz0QDN6DGJYFI4ijXuifgnMRKS/1UOcpQ7iTmeQQHjk5MYbmyE4MAxCFyEafbStPqUAnaZISTJwn/B6/oyZq9/hLYcBDhVvHbfwbj03a/PZE/1+akdP4SfHUde9vW8lL36pu3OIyeAkrWfaTU4LcNeIXziWGq7fVQxp4tB0wRPgBQQIABZLmF4chvG/OGgdMhocde4WY/sIDUHKloxDs85s55k+9eofOB1yK+rUmkjKi+fgPOX37HTIGni7iePfw7t3gE4rPhZrHNvOXuUnjkB5KXHZF+fS8pNayUhEYVgVSDqC36JFRiJQKVeeJ810ZjUb6CmqzIRumuqX6wEMlgtG7XHMPoTnevGTNQrUGOAnZHvcumZ70IW+rnWiVz1rbhy7bE7DZI2eR6qXoIxrEZW9hyxwfnVbVVn/VwiYQepZUth1gyCTqT4TnqDZFwJjbKqqRAZEgICGVnAxsl18Liud80U01G7zSaWyTmU5nN7FQJx/m543eehuP4x2v4mwJnAZ/sfnxlCUDjpdyu/DlHvwGDtE4UhevD8qtg0N9IX2gxvtTXH4CzV75gqMdsaUhfJk6X2ZEFQ5SipcZQvPUhYItkG1ySxvCZH8x43IUfCVUyV45AZ/ilV+0/mve4BCcZVWw7eeZDEgY9iTe4neMG94qQJsepUiGiAKZtmGhTfObBMiy/dYARJM9En43OPG5Aspx+dbAWSca3vkrUDFcUsGfWF7Oy4lkbmfLh06+Mg4eN7Q0tmDtJtL1+E7MQg9q6+t31EPHeWJ8YKyYwwiG1ZyE7/hodhnjPbFsJ1XZSUgXnHCpS5JB9t+/JkIwioWoicDtW2wI5s5WzRluasx1Sfy87olRPvn/NpZ/2XiQi4enj6QAkAoH2ew6bMr7HR/fWJNdr8JiLdB4o5wWossOVXUf4xF7UWl5pHlTIk2FIyOpfhWcJNAKPBdajmXETs6Yq3VtIuHbGM1EKzcgRGo5Od0W/5+/3DWaXNXyYQ8P1t0wNKXPzr4+GW+7F39WP5Mq35iBSVnG7eNKnZwsJLFzDE3dRBvrgCG+Czdh6BJFNlPW5YbZApATLLaEVsa1ecurIPjwD47SzGvz4xcPbHN3Q/D2IX3xtaOjVIhx41GyOZh7HJuXVFnbYfp1lkbAQUmh2te6fRvRlY3KyCIcxIEYVp4yLMZYbHXkzlaRuZqlERZcUBvlaVmozXmue1szP+jXnjvaf7s56GqPfiyg2HtAaJyj34cfFxVGnju5lqnVFUeDrEtwHIU9RpCpa1mtlgAhRS8Cl5LOGzb+UWVg4bJ8WXKa6j1jKwBVBaDwlg8rrZmfiOKPcdLbsehbvXk7j8ycOag1TrfBIfHDtyrkdjbwtdoiRMrx6YmoEiemp1uDlmdmMu4pPkJTDd2W0GVMBNBMBnCQlfp6mhk9TFPhMYMiuq6EEpPA2A4nOjuKT6fOmMfUf4Hfug3IuuAzY2B6nsrEZFbHgDi9pCs+HXnSzIprI44QFwertxHHDlyD9KfCEdqOiBBMlekKNwghmu0mhOgAiPyKmOylMYT7LGKGfirZt1AYDqR7Azepnjd7RBuvjB2D52kIaKQ/Ax8WaQzOmU3TXYAGhpHTJ0zmvmVLHCYTK1py/hNALgsR/CZaeNmmmTYBRGYtNL6pbY5BQ4WfWSGkCk2pnSHf7UZGkjyCviu6sG0yD1btuvQ6J2eNARW+xsaiBU9S0tedp5SpQqHNNETMbPZFbKy5BG5qZlwJOelTBsijgzZgeV+cKQrmXlb5rSLsXJdt9YOkzVC4qVrqNkaT1K+25Ng+Q72xdAyP2TtZWoKd2yinyXiOhAImZmwnuJmAv9IQYkG0AbnJfWgwlHRRyjOr0++9rs5xQAaTpGF4Hd1IQHrTLPaLip+a4TSe0zk9fPovolp9HWKSt5/PuOPh0kSdWlIO5JHLJUDCAEKCGcVXzNFC0VMoW1UmApEyQ2J1gasQZFhzHDZ6kRvRVAVmqbGJBxX803DtUQiaMabJDFMJiYAYnGW31n/IONwjCcLfNx7s0DcRGX4S8ThFykdFmbm/r/an4zkqc6YaODUYCUUahPYApnhvqrPEMShxGyxOMPAJapR9oMB7WvFJohGh5qN6PdLCaAxlhbSUG1OisXwaPYkdT4XKbWcbu/z8pVS/uTt5IESC6KRB3HssXwMk1TjDnWJ6rYSpebKg9pi09TaHr7ujsQcBQrO44CLCWYGUTJVi9tb50lCjGV08sRe4SrJJrZDjuXpmeIMiea+Y+Qi5gan3osPw7UXVzw674QJPB8DQylNbbINNN51B+f9qBSgdiY6FI3Eiw+WdyM1H9tQEVFfCljKw+I/B5K+0OqWCPLfIRibBj01nxbGzItUWuRiCHJe/+KWmkJt09iybGTIUiE2TRFazr5jVe4NE5hU8XYOYcBZlK4MV2HmSEVHZW6LwOdJcGh8xq8RRjpo4iDkiM4ofBIyqg+kapnkrJmJDwev91csyBq3Ce9jci6ZAA+8XxJ3oc25spAPRB59P0xZ7ubS79MmjiZQDP2NLsesDJZVBeZpZICzWaiyk+k58cSSpnSRA5c5NGoe6j45YC4IpJmnG7amGiawLPoGY0eUf7rcScNEaxypAPxUsZ3TwR4nTeUhQCQT8/yaT7IppMUI0AXkuYWrCaiznZI/Vdq+jAMG4XRiihmR0LXQalIj2Kapb6qYlhpZl48BsPH2gmMtPNoYwDAC9nxT23kPfQPjCn5002GwrffsnlQM/CpLCKQpXowpARkeC1lpOMCsSeEoYOmcGJY6Iek4FDzVHEoLCDaRFpTvUTJfE6peAKYmCTxu9omM4Udk3m4nHxMwfDulTYNQGzgtMI01ROeGihudUMRpxwSjJkhhYQkCTHFzLYqezYIrtMttsBjCWz0Qxue2T7p922mvKqnQpN8RSPrLwHhMZeBSQkuktIz0zBoZc9NSWBuXpZtAzUqcqpC+t3zSF9UZQ1u0YEQsiUxzMuI4KqO0Vwk1itw9Ks5Pkme1YFNqJ8eZgR8bMEwGOhh4LiGy4+5LDECRi8rI7ISFM2TafvbiGjSiC3Iq+1wNJ/UvOgNCObYOpQS8H2gUQdqDYGBgW74zhDArEkAVh+uAhRlGwTUOCX8Vd6UCdqM/Eu2cw/F/TYeql3anGQKPQ4+tmdcXOUy4zVmLCSilsSdChgrkAqRyOQo1p+nbUIMG2dWuFsx16WkWCf5PuB5AUgeMwguHDiQ8FKEC8CguGMqsVUCUqpS8CtDoOIgSBPwoz6TCjLUwhwDpMZvSZ2YQb+WVbO8t8uSVzPzm8x4CJsjbMUpthusthYRngxuMQBiBXyLlSdjgALDwZeA9AHfA3yPIR2G5OB7QiAZO8/JNuYk/GMJ0cVbylTCp9QJJX0jCyFSbarPieWg5eFqDxngQOT1SYHFLks8xwyOdj+l/Bi2i0BumqneT+s5GzDRoOMQUXguFXAi0cYROJF154fnPgA3cIBdOCB4cQTc8JKQ7DyPuhDObPXlAQWwWG+pA4g4ILwWkU5KkT4VBNTfTI1KhQ2x9gIDikw41PU9POVKHmeBDttTpgTHVl4BR8FB0S0KOBGICkBRREJGpngYXQgA4hgslglAzABEEBYScMGoN9WypgpIpFJUOoj9pYBSMTJIxWkskqew7Y1eBVRSwFFYN2BWWux6dX4h42OjcNGhmltsMHokrqzIAbp4NMFRgDD9LH1VVuUe1l6RZE44KAZI4S7JDEcAvvRB4dd41Mi2+auCk8ADpZ4BlGEix/UtaDMiLlGmiR1FrTGtBMWbUwfF9jX8mvTwJMuIdubLXqpoUi/UrFB8qMRHQvhwi4IeIDUPU4xJirmHI26xARS1z0GUwZc+BFxNpJnvups+py0lEXTSxGDsAGsHhZyQxAcTeRgipr9noN8OaUdqkVjnUZ+Ytyzj+Q3cxdLopbJUbQtcqXjZwImIFwMUlVGBUgnOMKIISV1pgKLWhR9yHwEkCJ70QeyENEngMCf8dA59omu6wlRNejzRYBattBJfIiVLKIwloEQ0iDpFbZLh1XGv9LFJ7YVpsWk7t0N0EnD0aLUm0lTLTdFJscUGHRxwYKFFoSEZg8IxyHq0XJksBEjpga1vB9q/9qDN3hRncVKOdKBI+2cx2ylqm+JXsIVxqJwUVePwYYnvRkXRqEiMbPBe8Rt0dzzLUwBF1xQqQUo5itrShMItzQCSKkco99X8iHMSDmKdC1nJF4F15ksfkMkHOdK8FBkHyYenpsM90SQQRPFhAiZIF5FEIlwwpGSpRG0/Ep0xaYOM4DopJbJFQu/+ec+r0U3sUy3udAqgcGiGXmL1v2lykDRM7MTk5lhMSoNTVN0TTyYJjYsCTpKQHL2iCQtQwRFxD4MgNQ6BUdL+L3hmQvz4Sy+k86xZK7HiVMWk11D5kkiw2PC0RGWMUB1z7vIb9FDT1dEUDup6qw5UfM2JaFSJTQoAKhgJwGmO0axBBfwoj0QEtISUjOTzAdahtzhLA5KIrOaQqaCqLZrPJZDmC6X5EVC/xiSQaYgrTmXMHqyjs1+ONqriWukHL8maAOlvbit7RlXblKEBl3AQw2BAXX8hAcbkRtOEZxuoYFC4PMEs4UsJfQXGLtbs8Nh9KAn9pWsVBpoCQH2ScKof6fOE2wTcEQEA6x4tYnw4g+pY5ja/7txvBj9Toi+6nbCMznoKQhzqMVbYIeHWoExqmRxpUaiCbgLICDkpLOPHnKRHGMyZOxWX6WVYI7n6iVKTLs0mg9qXNAemyxEILvJDAgAuPXIcbT0+2nrljkbFvUL6omxzWGNw1MYU6qobTWIQOf0toGi3qhqGiH0/zXJRQVcmho06IiGf7/tIf16WtKJ2oWTO9ah8c8vQ7OJ0ACNt8jSxEBFoziy3rYllwuYXXIxvyWHHuo7f+NXsTVAdVNi4iNI9syoyCwdEIsocXWjmmLrHpITuYAeji60tDkJD6kc4dIimn+wWn824sCcTNBuwzZ/JcOAih+7nYpAuO2YMTpbRNVCr1yeLl/v1zIvNNlrEEQYFALY+NFqlUs2N9EBMJFQA1DUZ1h6UmC+gRNwBQdQh+uQ5WcnbGrTmokr3rZrdawZWM06zAcYAXBQrJe5/UnvW+icIf7zsFHTM2/5Co1L8ivTdsu2BAKxhentS4uocXVu6HVl09ia0Xw3q0LJTCSQ5iDrYiWzTStNLzaISM03TJV2OOzd3ygOf1kby6M0VfPDqcVRHO7DtlYEXSrPHOpyMd4y+rqy4hi30lkp/s6wqxtgo32wrWZyf+i4dgzJAJkcQIgDMdVy05dsgqRyLjlguGkSfCoxW5alFO7b66kulZK0f5Aa2qYsuLLzv72pXX5PaKfTPh6+GcH3MXrjJq2zvucyrFm5VQ71NcaEpskk5Z/3+1PvXQu5j2x0E5rcyfGYfwRafhCDNyDcVN9iMA1trzThMB4NgAqSWIqX9DEro4H3v+nFxTtW6neuF3zvI5D3k2ss7qiM9n/fqhXvi5poqqilGqFxrn2Ztkq+3TUhvIkieGX+pOGxKsgz1JiF5tax552Yqtmz6pZUuUu+bIld1AxRTCyXuG+rm5Xct9y+077m74dxXseaBHrTPG0KuY2JtY6znLL9WfIRb9ayFbGhVzARX3YBoLcvpLCHMshIsg1gBW5/TSlClU6tSNiCalYvK6H8exazHcDmHTux//0HV856fWz+5+cbIq973DNbcvRxv6d+CbPvo8/Xx2Z+U9eLDqRGT+vDmg0uZrQb3TPXmnGoFmfRO9nZH5WS4WUQklcx+NwGKLHnTSXbrNrgTeYJmfE69VhdZS+hvzJaH/eze0ofqXuGV1n9Q5L7rN6HnuCNx0dKX8WjD3VIfn32fcBtLhGjsi/jBTVCJshQQ1cVJnb0tNDR8r1RIKLolgGye4DiB2BMECAdoy3ZCuHVINDS92BwUMq5bQTm9pLdITdrWg20OZ9CHox4+yPvfl7T5B1TGNvVNvcX40hP+hC/edRSWzBmCWxh/oTE67yOy3nEjs+Do2z4pbmoysuhearuuwYbTIkgYiI3ra89mSJYguFYxR4bwSRsX9l7sHFB6tCKYZ7YYQzD72jDfm8tH/8fD2X/cfmf2eCyZv2J6+8AvPeFB/Pfv34zcrB1wcpUN9eFFn5G1WZeyzIyDwiVU5WPoJlDaZnfFBDI/wmT7/k8MbIpIrMXszCSlhEAGqrhpTsiEoFNoUI34qthqDg/iRZPmH4kKAMqgiLk4/L7Bxgd/sbx+CU4cXwVgBn8/6d4b1mDZYW9H+947QJC1sYfOujvX/+xLJLxlEF5vMiZK6xeTS5qJPTNfi66TEU0P+EFkCZkMQTghdwrAEUDeLSGXycLDBEBC2aeQbE/RX8BM/+qiUAVED47qmi4d/TYFmznZohZ6cdj4oPyf523J/OHpotNAf/4EADN8o+LyM36Dp65fAG4UUFz8K5npWnezP7H3/0Cj84dgpxoF9QEGRX8XQvvmNqe4xRR70SsrhHDdP+Io5e9MJA5qaNkpXBfV9aUHQgYmZxCa/ykgk4xsENcylxQY7V/5V4WrHaAglWge5vHx1+838aH/WlD9FMY3L47vzfjPxV130R04f/HD8Mt5/LLEoEzlpcamYz/D1d6Pwi8+muytDQkbdSZakCIdoPhrJFB0k0jASgBU3spThqj5SMqvhBeIO7KRZab6Ju2mkvWeqePIAqaZGC7asDe/5bH5/mnf3Nh2u98Q27Go/8idBylKFx5xBw6+9j2gRgdEcUtNtG/8mRwfPI3rXReBc6uiDmirywCivUpECbdFYkoovyAdJF23JawjhPG5dwqGJVkC7DTVGGHvpjFSGx+lQUu3PbWzG+Rn0MdHDQ/It124JfOHNePObfjto9e37MFOpcsfPB1zj7wFI2uXILvP86ivW7I/5bb+PZzKByAa+8Xfo4vjbeFjZdAFVdeo27ekJG2XqpQMv8Hw/GA5whdAoV3AzQR6SAiCcAVcIZB18+jvGETVeSn+ZIBu7Nph0t0C0nhhyuhVUyCawSjQixX1hfLMLxwoPvuvI5NrsbX2Eg7oOXHXgwQAA4vm4tybD4G/fRGyg79DYe+XUV5/4CBlt70HTuW9oMZykJ+N1/Ui2131fSKgTLB8gvQ52DzpAY0Gw/MZ0mUU2gUcF3CIIBwHQgg4QsB1stirY3/UMy/B57om9lSwTNI3W0qYCiSaRn0zdWMp7yff862l5X/64lDm/rrPhP7CMalyr+uvY6ppbNskbr96FQ5YOohZAw4qq4+B27l+h+hd/4AcXnwriB8hQp2AWUToALFqcMVGA5DoIHVvGiixQVhSsESeATJZCkSecEHkgkiASECQi/ZcD9jZAQkvaRjTn5mtzAubod5c/6RFZhcOwgJ50n8O1N9y0Y7MExUQoT9//Iz68bpTNp/B1x58Cyb/dDY6T7oY1LYWjWfPctz9f76A3PFj2amdCPJWgLwBgAvmYp/2KYBwC7LvEzwP8GpApSaBAiNfdOBQFkK4EMIBiWD/myMymNe+L5BfjTqPaSABwZJ4s7d4W4m8pMzUfpfpMkcirgsHYUC++Zo+b8X5Dac8kkEbvnrzZ3H1+17bvSCp6ZJffALthz4EOdEDMWsdqLgR3tMXOM6+P+tDZnQJnNpSkL8E5O8PcD/AnQwugpEH4DKziMEK3+qbKDOQc5DPdcKhbACOiEJDBCEE5pQG4BbXosbDiCytiH1FaEgnoU7bGrE1LjCDFAAsYniy6MEyv49X/GBWfeGF7PijObcTtz37dZyz7PkpQd9t6Uu3vRdzDn8W9W1zQe3rgPwwRGEE57QD33p5/6LIjXeQW++E8GaBuYvBnUTcxhJFMErMKPo+ZSfLuVkZ98AzHMfpYTEOOHUIxwc5Ek5oFXYV+pAvbUIFm5KhaiBBA6rVakv0m/xhcB246PXRdDQwKOGiHbOxfLJHLvpGod75LXLy5azowB3rvo1/HFw3BdR7MJ3zL+9FpruMRR+4H5vuPwClviE4hUlQpgoSDQR/uNIHkQRIgoQEBFD3gQu6gH996axP18Vr35HO9hKcMuDUQa4PhxiCCO25HrS1D6OMV+OhMukBnYSM6sqTbcUn2a1B4ZniBVpiFwloRfSjmxevK/Hs/1sdf/WG9uJBvktteGDjj3H2gvVT0mmPgjTd9KFLj8ENF9+PwTd24W0fPhzHfuhN2PHaVsyZOFKs77r5fM8ZuQTuZBZOHeT4EEKCiFDKdGFWxxgm6MVkoEQpgFSems6WLDUxjK97KW25KKITg+jgvf7gSnFRn3PKIxtqv4Qjcvj2Zb/FL780Oa3x/1WAZEtXPX8OJE0i683KThZXfsV3xy6AU3XI9UMnmVBwOtDTWce4eDoZMCVvOQTENInbLJqnelY2WKL6wcvVJfRjFi/YmuXc9+velu+V3MHhV0ZvwqzsIpzW9tyMxrrTEYc9nc456CqwqKGW31Av+H1fdZD9d93oDV7nJM4GZnlkBKibYyzBU3MjZAAJQX0Lw85bgWlQRB/mYkWtlw+4zZWNd79J/PIrIDEMUQXL9hkDBPwVg8TM2HTrXMCpo5EdmszL7otcyt2o7sIONq9k4cDRPp8WhIHJykVJijRPdKdZOIhBcFAIwKn34dC7ipz/8Jj30AcE5R/46UQbJryNePCVu/CR2Tt2aqx/teIuSl+97jy0vfVxEDtwON/fyA5fw1Q7WZCAI4qY296OSvZP8FGDXRPtDGEC6BwUUMActGNgooBZ9wp411V5ze1ttHR0yLsHOdGNzZVn8fdt1dc1xr96kADgmvsvwY6FtyDjd8Dl0qDnjP4IQh7jUB69pU7U8w+igXLMXxGH2PSPPUWWH0EgiyxmoYR5aMPc9Vm03S4gb5zk5x7soBXlEX4c3fRGrK79BGfmR3fJ+P4mQAKAa5+4EOsO/Da6x49Cxu9c5rvlG8ih5d35TniFP6GOEcPkTkBKy/zEziM4cFFAFp0oYi4K6B3Oof1xB+5vJMZvX4mbXl6Kj8pRfhbttAib5P/DGc7YLh3b3wxIAHDtyvPx0Su+iau/9lbkvDnHSLf2o7Z8dpALD6OKLUheLNO/1hwAFfwvkIGLIrJoRxazkEf3ZA6dGzIoPCXg3ONj4v5JvPLiXJxcGcGTGMXzyGIWJrASZ9D4Tva8dfqbAgkAblj1T2hrLMCWgVtRLA+ekivU/4NKT/RXsCH8dIADghOeu3CQQwZFmUGpnkFpMoPSNhfFDS5yLwu4zzAaz3gYe3kr7ty6Lz7hj+MljGM1jsYP8Ee8E6fTxtff6SnS3xxIAPCT1V9EwenExPwL0D5xzifzxa3nCVFxBFxPwK0JZCYF3FEH2W0CmS0OMhsJzgYBsQHgTTVs23YUrp18Gl9GBZtRxiaUsQEdOBBDeACn09rdOp7/D+kPi1OAeYdXAAAAJXRFWHRkYXRlOmNyZWF0ZQAyMDI0LTA4LTE5VDAyOjIyOjQzKzAwOjAwiiblOgAAACV0RVh0ZGF0ZTptb2RpZnkAMjAyNC0wOC0xOVQwMjoyMjo0MyswMDowMPt7XYYAAAAodEVYdGRhdGU6dGltZXN0YW1wADIwMjQtMDgtMTlUMDI6MjI6NDYrMDA6MDD+VlP+AAAAAElFTkSuQmCC;html=1;spacingLeft=10;labelPosition=right;align=left;fontSize=15;strokeWidth=3;" vertex="1" parent="wssLdagy5Da7dfHTv9jN-25">
          <mxGeometry x="10" y="9" width="43" height="39" as="geometry" />
        </mxCell>
        <mxCell id="wssLdagy5Da7dfHTv9jN-30" value="DICOM (TLS1.3) / HTTPS" style="edgeStyle=orthogonalEdgeStyle;fontSize=15;html=1;endArrow=blockThin;endFill=1;rounded=0;strokeWidth=3;endSize=4;startSize=4;dashed=0;strokeColor=#4284F3;exitX=0;exitY=0.5;exitDx=0;exitDy=0;entryX=1;entryY=0.5;entryDx=0;entryDy=0;" edge="1" parent="1" source="_Tn5D_dkqsPfIdNLR1im-17" target="wssLdagy5Da7dfHTv9jN-26">
          <mxGeometry width="100" relative="1" as="geometry">
            <mxPoint x="400" y="430" as="sourcePoint" />
            <mxPoint x="514" y="430" as="targetPoint" />
          </mxGeometry>
        </mxCell>
        <mxCell id="wssLdagy5Da7dfHTv9jN-18" value="DICOM" style="edgeStyle=orthogonalEdgeStyle;fontSize=15;html=1;endArrow=blockThin;endFill=1;rounded=0;strokeWidth=3;endSize=4;startSize=4;dashed=0;strokeColor=#4284F3;exitX=1;exitY=0.5;exitDx=0;exitDy=0;entryX=0;entryY=0.5;entryDx=0;entryDy=0;startArrow=blockThin;startFill=1;" edge="1" parent="1" source="wssLdagy5Da7dfHTv9jN-20" target="wssLdagy5Da7dfHTv9jN-26">
          <mxGeometry width="100" relative="1" as="geometry">
            <mxPoint x="320" y="423.94" as="sourcePoint" />
            <mxPoint x="700" y="423.94" as="targetPoint" />
          </mxGeometry>
        </mxCell>
        <mxCell id="_Tn5D_dkqsPfIdNLR1im-2" value="" style="aspect=fixed;html=1;points=[];align=center;image;fontSize=15;image=img/lib/mscae/Kubernetes.svg;strokeWidth=3;" parent="1" vertex="1">
          <mxGeometry x="949.1634942084943" y="224.23" width="16.431857142857144" height="15.771428571428572" as="geometry" />
        </mxCell>
        <mxCell id="_Tn5D_dkqsPfIdNLR1im-236" value="" style="group;fontSize=15;strokeWidth=3;" parent="1" vertex="1" connectable="0">
          <mxGeometry x="1720" y="304" width="180" height="60" as="geometry" />
        </mxCell>
        <mxCell id="_Tn5D_dkqsPfIdNLR1im-237" value="" style="group;fontSize=15;strokeWidth=3;" parent="_Tn5D_dkqsPfIdNLR1im-236" vertex="1" connectable="0">
          <mxGeometry width="180" height="60" as="geometry" />
        </mxCell>
        <mxCell id="_Tn5D_dkqsPfIdNLR1im-238" value="" style="strokeColor=#dddddd;shadow=1;strokeWidth=3;absoluteArcSize=1;fillColor=#ffffff;verticalAlign=middle;html=0;fontSize=15;" parent="_Tn5D_dkqsPfIdNLR1im-237" vertex="1">
          <mxGeometry x="-3" y="4.5" width="180" height="60" as="geometry" />
        </mxCell>
        <mxCell id="_Tn5D_dkqsPfIdNLR1im-235" value="&lt;font face=&quot;helvetica&quot; style=&quot;color: rgb(0, 0, 0); font-size: 15px; font-style: normal; font-weight: 400; letter-spacing: normal; text-align: left; text-indent: 0px; text-transform: none; word-spacing: 0px;&quot;&gt;&lt;span style=&quot;background-color: rgb(248, 249, 250); font-size: 15px;&quot;&gt;AWS S3&lt;/span&gt;&lt;/font&gt;&lt;br style=&quot;font-size: 15px; font-style: normal; font-weight: 400; letter-spacing: normal; text-align: left; text-indent: 0px; text-transform: none; word-spacing: 0px; font-family: helvetica; background-color: rgb(248, 249, 250); color: rgb(153, 153, 153);&quot;&gt;&lt;font color=&quot;#999999&quot; face=&quot;helvetica&quot; style=&quot;font-size: 15px;&quot;&gt;Storage&lt;/font&gt;" style="points=[[0,0,0],[0.25,0,0],[0.5,0,0],[0.75,0,0],[1,0,0],[0,1,0],[0.25,1,0],[0.5,1,0],[0.75,1,0],[1,1,0],[0,0.25,0],[0,0.5,0],[0,0.75,0],[1,0.25,0],[1,0.5,0],[1,0.75,0]];outlineConnect=0;fontColor=#232F3E;gradientColor=#60A337;gradientDirection=north;fillColor=#277116;strokeColor=#ffffff;dashed=0;verticalLabelPosition=middle;verticalAlign=middle;align=left;html=1;fontSize=15;fontStyle=0;aspect=fixed;shape=mxgraph.aws4.resourceIcon;resIcon=mxgraph.aws4.s3;rounded=1;shadow=1;glass=0;sketch=0;labelPosition=right;spacingLeft=10;strokeWidth=3;" parent="_Tn5D_dkqsPfIdNLR1im-237" vertex="1">
          <mxGeometry x="10" y="10" width="39" height="39" as="geometry" />
        </mxCell>
        <mxCell id="_Tn5D_dkqsPfIdNLR1im-167" value="" style="group;fontSize=15;strokeWidth=3;" parent="1" vertex="1" connectable="0">
          <mxGeometry x="1720" y="390" width="180" height="68" as="geometry" />
        </mxCell>
        <mxCell id="_Tn5D_dkqsPfIdNLR1im-166" value="" style="shape=mxgraph.gcp2.doubleRect;strokeColor=#dddddd;shadow=1;strokeWidth=3;fontSize=15;" parent="_Tn5D_dkqsPfIdNLR1im-167" vertex="1">
          <mxGeometry width="180" height="68" as="geometry" />
        </mxCell>
        <mxCell id="_Tn5D_dkqsPfIdNLR1im-7" value="&lt;font face=&quot;helvetica&quot; style=&quot;color: rgb(0, 0, 0); font-size: 15px; font-style: normal; font-weight: 400; letter-spacing: normal; text-align: left; text-indent: 0px; text-transform: none; word-spacing: 0px;&quot;&gt;&lt;span style=&quot;background-color: rgb(248, 249, 250); font-size: 15px;&quot;&gt;AWS RDS&lt;/span&gt;&lt;/font&gt;&lt;br style=&quot;font-size: 15px; font-style: normal; font-weight: 400; letter-spacing: normal; text-align: left; text-indent: 0px; text-transform: none; word-spacing: 0px; font-family: helvetica; background-color: rgb(248, 249, 250); color: rgb(153, 153, 153);&quot;&gt;&lt;font color=&quot;#999999&quot; face=&quot;helvetica&quot; style=&quot;font-size: 15px;&quot;&gt;&lt;span style=&quot;background-color: rgb(248, 249, 250); font-size: 15px;&quot;&gt;Maria DB&lt;/span&gt;&lt;/font&gt;" style="aspect=fixed;html=1;points=[];align=left;image;fontSize=15;image=img/lib/mscae/Database_General.svg;labelPosition=right;verticalLabelPosition=middle;verticalAlign=middle;spacingLeft=10;strokeWidth=3;" parent="_Tn5D_dkqsPfIdNLR1im-167" vertex="1">
          <mxGeometry x="10" y="10" width="29.64" height="39" as="geometry" />
        </mxCell>
        <mxCell id="_Tn5D_dkqsPfIdNLR1im-41" value="Node Group (Pod &amp;amp; StatefulSet)" style="points=[[0,0,0],[0.25,0,0],[0.5,0,0],[0.75,0,0],[1,0,0],[1,0.25,0],[1,0.5,0],[1,0.75,0],[1,1,0],[0.75,1,0],[0.5,1,0],[0.25,1,0],[0,1,0],[0,0.75,0],[0,0.5,0],[0,0.25,0]];rounded=1;absoluteArcSize=1;arcSize=2;html=1;strokeColor=none;gradientColor=none;shadow=0;dashed=0;fontSize=15;fontColor=#9E9E9E;align=left;verticalAlign=top;spacing=10;spacingTop=-4;fillColor=#EFEBE9;strokeWidth=3;" parent="1" vertex="1">
          <mxGeometry x="1200" y="253.94" width="480" height="410" as="geometry" />
        </mxCell>
        <mxCell id="_Tn5D_dkqsPfIdNLR1im-168" value="Auto Scaling" style="points=[[0,0,0],[0.25,0,0],[0.5,0,0],[0.75,0,0],[1,0,0],[1,0.25,0],[1,0.5,0],[1,0.75,0],[1,1,0],[0.75,1,0],[0.5,1,0],[0.25,1,0],[0,1,0],[0,0.75,0],[0,0.5,0],[0,0.25,0]];rounded=1;absoluteArcSize=1;arcSize=2;html=1;shadow=0;dashed=1;fontSize=15;align=left;verticalAlign=top;spacing=10;spacingTop=-4;labelBackgroundColor=none;strokeWidth=3;strokeColor=#4284F3;perimeterSpacing=4;fillColor=none;dashPattern=1 2;fontColor=#9E9E9E;" parent="1" vertex="1">
          <mxGeometry x="1210" y="290" width="200" height="290" as="geometry" />
        </mxCell>
        <mxCell id="_Tn5D_dkqsPfIdNLR1im-132" value="Helm Chart" style="points=[[0,0,0],[0.25,0,0],[0.5,0,0],[0.75,0,0],[1,0,0],[1,0.25,0],[1,0.5,0],[1,0.75,0],[1,1,0],[0.75,1,0],[0.5,1,0],[0.25,1,0],[0,1,0],[0,0.75,0],[0,0.5,0],[0,0.25,0]];rounded=1;absoluteArcSize=1;arcSize=2;html=1;shadow=0;dashed=1;fontSize=15;align=left;verticalAlign=top;spacing=10;spacingTop=-4;labelBackgroundColor=none;strokeWidth=3;strokeColor=#4284F3;perimeterSpacing=4;fillColor=none;dashPattern=1 2;fontColor=#9E9E9E;" parent="1" vertex="1">
          <mxGeometry x="1460" y="266.44" width="200" height="383.56" as="geometry" />
        </mxCell>
        <mxCell id="_Tn5D_dkqsPfIdNLR1im-50" value="" style="group;fontSize=15;strokeWidth=3;" parent="1" vertex="1" connectable="0">
          <mxGeometry x="1250" y="561" width="180" height="68" as="geometry" />
        </mxCell>
        <mxCell id="_Tn5D_dkqsPfIdNLR1im-64" value="" style="group;fontSize=15;strokeWidth=3;" parent="1" vertex="1" connectable="0">
          <mxGeometry x="1220" y="320" width="180" height="68" as="geometry" />
        </mxCell>
        <mxCell id="_Tn5D_dkqsPfIdNLR1im-63" value="" style="shape=mxgraph.gcp2.doubleRect;strokeColor=#dddddd;shadow=1;strokeWidth=3;fontSize=15;" parent="_Tn5D_dkqsPfIdNLR1im-64" vertex="1">
          <mxGeometry width="180" height="68" as="geometry" />
        </mxCell>
        <mxCell id="_Tn5D_dkqsPfIdNLR1im-230" value="&lt;font color=&quot;#000000&quot; face=&quot;helvetica&quot; style=&quot;background-color: rgb(248, 249, 250); font-size: 15px;&quot;&gt;Web&lt;/font&gt;&lt;br style=&quot;background-color: rgb(248, 249, 250); font-family: helvetica; color: rgb(153, 153, 153); font-size: 15px;&quot;&gt;&lt;font color=&quot;#999999&quot; face=&quot;helvetica&quot; style=&quot;background-color: rgb(248, 249, 250); font-size: 15px;&quot;&gt;React / Nginx&lt;/font&gt;" style="shape=image;verticalLabelPosition=middle;labelBackgroundColor=#ffffff;verticalAlign=middle;aspect=fixed;imageAspect=0;image=data:image/png,iVBORw0KGgoAAAANSUhEUgAAAGkAAABgCAYAAAAejVzyAAAAIGNIUk0AAHomAACAhAAA+gAAAIDoAAB1MAAA6mAAADqYAAAXcJy6UTwAAAAGYktHRAD/AP8A/6C9p5MAAAAJcEhZcwAALiMAAC4jAXilP3YAAAAHdElNRQfoCBMCFjB92tHqAAAkOUlEQVR42t19eZheRZnv761zvr2XdHc66Q50CA0hJCRhMbIOgijKongVLu7jrgMj3ovAdQCfqw4i4jaDoDzjDAMKKiKgeF0GURh22XfClpCdJN1Jev3Wc+q9f5ytqk59X3eHmKiV5+Q7p05Vnar3V+9adU4T/gLTZ25qw/zlEptXEfY/3EehkEcp140B9zBc/dzN7pF70axSZnZ/zmmfnxGFQYdy+ziUHRBweomcHoLTIUiUCJQFKOMg42RQuiQn2i59ZvWrOGu//97TQ5xRcvd0B6J04Z9KmDtYQ7Xso6Nboi3fjRMWvRl3bLk+X0Bhb+nz4k288uDTF71hmSNy+wk4/UTUCXCBSQqGD0YdEhLBuQSDAUjk0IleXr69gTHcee5dAGhPD3dGaY+CdM5vgX0PIYyNMPrnE9ryC/CB3pfxvfHcHOnz8lfxyN8tnn3oUQ7llgiiuUx+RqIBD6OQqMdgADJukwEkIBAARhalusv5tQ4yOO36A/Dzzj056pmnPQLSV1e6mLtvAdVKDe3FuTip/3O4e+JLvZ7vHXEjLz2pr7TsWEHOQpBfkKijgYkQFIkAhoQTCGRc64kBOMhPuChuIiZ8uPPlPTHk15V2K0jfWCOwdJ/DsX5iJTqy+2Hr2OPZkuSDn/Sue9fs4pJTBWGxpEbOxzjqqILhAzCBIIuw0oFLcgO+cpDbkePOIR/13UrcXZV2C0jf3ihwyLwzsaZyD+oowWevs+FVTti/+w0fFIKOBzV6fIyijkoIjErw6Jyt8AR30DSfQHA5t6VDDoyO4NXdRNZdm/6sIH1zXQYDA4swUd6GcWwHM3eXG0OnzS4t/igRHylpMtfAJBieokvSAisitgkUx/9TU6AAAQf5Db3lk8tD2W/vARK//vRnAenCBxwsPGQeGl4FLndDyq3tZW/ruzryA2eRqB/uY4crUY7FGSDC30hs2YFKUhqoZiA5cJBBfu0VnSQPGfnMbiXurkri9Tehp+8P92DU9VFw52GsMuw2vPJJs4r7/tx18Z9SDB9dx2uuj7EYIAYUg0A9oNwPzgKDmuM8GeYGeXq9ZIAZOMitWYpTUXK79jS9dyrtMk666EGBZYcdgYZXwbve+E5sqz23aJ+eoz8PUXufT0MdEpMIyBpwSpqc3EJkkSLampVki9ZiOMg0MlxY14Z5WL1xw24n8K5Iu4ST/m3rfrj0SB9Z6ob0kB/11n7CzTq/8p1tn27Qxo6Ac2Q41zkmsso3CS9FvKHyR/rf9BLBRXYig9KmPHfhvQfesKfpvVPJeT2VhQv8ePR4ZEQnNuTvQL1RXZgtuN+SzvYvNGjzHB/jUB3NKHFLRZ8ILVL+N5P9HsW8FJ0V0fNaPw79Xt1rjMnCMrzj4hwOeuNyPPK7l3YzqXc+7XR85P/ck8VxR3wYnl/DN/7hpzj/mne9w3OGL2vQpqUeRmEHJyKfvRucyo2MCBvDi1RLUXk1v5v3e8wZ2+u0a3732Objz3xeehNZyHoRfqUTta2DyLRvx8SqJfjyKT/dE/SfVtopkL75/Hwcvvj9KNdG4NdyBb+48XM1Z/0X6rShS6Ial+OmcOg5PCW3qEdyV3VyyZInIFD05k5sKD/1vM/eakhnJWTmWZbui7LasX7BwNqxDeMOuNoFWe7F/9pnJS5/7ARcfNTd8Bs+/lLSjEH6waq34ojBEzHUeA1enXrr+TVfLTsvf7yO11y7I5o4oyoX2U1qsuYGnESW+wIq/5jPdJGBU2vDxspTgIjMCvIItJ1ZrAK7T0C6D7KXf5Qn91qT2evJqj/eDVmei7aBlRh56hScf8hv9zRGMwPph2tPxtvnvw3P+2uAenHfiexzV4w7z72zgW1I8w1N8duqOzaNkwaKQpGXFqDBdRZFNCYJmysrQWF1Cg9QrL0kIDZDOk+BM3fCL9wpJ/da6fQ+WeHJPsjxBaDcGMafXoEvnvKj3Y8QZgDSz179JN65oIpHZB+4nl88mnni38bE08d6NJo0xqpxTWHrkThrFnuzE9heTkAHiUKohLWNPNoxPjqJ4foaCBIAcQBQ1D3Suhm0x2Ib2H0UMncbvNLvvQduXJ057h3MkwMQnWtQe+XtOO+wW//yQPrRK+/BwfsVMeLPgdvoOWjYve+aEeeJI3xMWIipNE7KHaYoE7pyt9VONEw6X6Tqp7kpOC/wLAyPbMVoY3MIUsiLBDCx2p0YvPgXBLCzBjJ7O/zijZhc8BB1PVXh8gK4s19CdeUp+Pzy3SMKpwTpivvOwPHHrEDZq0A0OhZtyfzxuh3i0SN9KqeqT414SMxo6sakFdaydqBErItagUQACrIbG3esQdkfhSBKQIofz/GjSO2WBhYAdsbA2XvhF66lWt8daH9xDBMLgcIWeOvejHMPvuXPClJLZ/YzN/XghCPegloNKNQHBobcu69uBhCAJoEZvQQbLiw3rcVNWjSdWb2Mau+xBDzUA86B4TgzAu7m4CbLII/DpqLzoJjfwaJyKjIjP+bi6l+gMetMyEIbqAa3ZxWu3LIQF99yxp8NpJaT/7nJG+BRBQVvXteq3HU/GHLuPcMT4y2qTsfkNsRgXEI0FYHmelIk9lTuSYyIqIZAptGBtWMrIdk32lNaUjkKifhTz9O9dWqQ2TvJb7sSI0f8AV0PN3jrCaDSOpwz//7dB9KTQ9cjly9gn8bpmfuLH798s3vHuQ2x3Rgit2iKWj7EDpTq55j1zfxI7NlAAgRcoJbH+okXEUfX2fLEGBD9JhlAmeMIxeA4ceFmNGb9C/euf4a2HgBR2IaJF96ELxz+i10GklXc3fHq1zG78Ub8qO0MPFI492NDzn1nN0gFCMHANUmTFktIRd6Uu6yLrCR0yk32LZjiT2/RFJsCDhqyBiaZ6B/BmlWn4pbqPSv5nC7DAEB+O4vJj3F2669pR8+5JPOd7DOKnXlcue7oXQZSapKfeVU7Pn/251BpjKDgzztqnXPLzyfcF/YypxOz0QDN6DGJYFI4ijXuifgnMRKS/1UOcpQ7iTmeQQHjk5MYbmyE4MAxCFyEafbStPqUAnaZISTJwn/B6/oyZq9/hLYcBDhVvHbfwbj03a/PZE/1+akdP4SfHUde9vW8lL36pu3OIyeAkrWfaTU4LcNeIXziWGq7fVQxp4tB0wRPgBQQIABZLmF4chvG/OGgdMhocde4WY/sIDUHKloxDs85s55k+9eofOB1yK+rUmkjKi+fgPOX37HTIGni7iePfw7t3gE4rPhZrHNvOXuUnjkB5KXHZF+fS8pNayUhEYVgVSDqC36JFRiJQKVeeJ810ZjUb6CmqzIRumuqX6wEMlgtG7XHMPoTnevGTNQrUGOAnZHvcumZ70IW+rnWiVz1rbhy7bE7DZI2eR6qXoIxrEZW9hyxwfnVbVVn/VwiYQepZUth1gyCTqT4TnqDZFwJjbKqqRAZEgICGVnAxsl18Liud80U01G7zSaWyTmU5nN7FQJx/m543eehuP4x2v4mwJnAZ/sfnxlCUDjpdyu/DlHvwGDtE4UhevD8qtg0N9IX2gxvtTXH4CzV75gqMdsaUhfJk6X2ZEFQ5SipcZQvPUhYItkG1ySxvCZH8x43IUfCVUyV45AZ/ilV+0/mve4BCcZVWw7eeZDEgY9iTe4neMG94qQJsepUiGiAKZtmGhTfObBMiy/dYARJM9En43OPG5Aspx+dbAWSca3vkrUDFcUsGfWF7Oy4lkbmfLh06+Mg4eN7Q0tmDtJtL1+E7MQg9q6+t31EPHeWJ8YKyYwwiG1ZyE7/hodhnjPbFsJ1XZSUgXnHCpS5JB9t+/JkIwioWoicDtW2wI5s5WzRluasx1Sfy87olRPvn/NpZ/2XiQi4enj6QAkAoH2ew6bMr7HR/fWJNdr8JiLdB4o5wWossOVXUf4xF7UWl5pHlTIk2FIyOpfhWcJNAKPBdajmXETs6Yq3VtIuHbGM1EKzcgRGo5Od0W/5+/3DWaXNXyYQ8P1t0wNKXPzr4+GW+7F39WP5Mq35iBSVnG7eNKnZwsJLFzDE3dRBvrgCG+Czdh6BJFNlPW5YbZApATLLaEVsa1ecurIPjwD47SzGvz4xcPbHN3Q/D2IX3xtaOjVIhx41GyOZh7HJuXVFnbYfp1lkbAQUmh2te6fRvRlY3KyCIcxIEYVp4yLMZYbHXkzlaRuZqlERZcUBvlaVmozXmue1szP+jXnjvaf7s56GqPfiyg2HtAaJyj34cfFxVGnju5lqnVFUeDrEtwHIU9RpCpa1mtlgAhRS8Cl5LOGzb+UWVg4bJ8WXKa6j1jKwBVBaDwlg8rrZmfiOKPcdLbsehbvXk7j8ycOag1TrfBIfHDtyrkdjbwtdoiRMrx6YmoEiemp1uDlmdmMu4pPkJTDd2W0GVMBNBMBnCQlfp6mhk9TFPhMYMiuq6EEpPA2A4nOjuKT6fOmMfUf4Hfug3IuuAzY2B6nsrEZFbHgDi9pCs+HXnSzIprI44QFwertxHHDlyD9KfCEdqOiBBMlekKNwghmu0mhOgAiPyKmOylMYT7LGKGfirZt1AYDqR7Azepnjd7RBuvjB2D52kIaKQ/Ax8WaQzOmU3TXYAGhpHTJ0zmvmVLHCYTK1py/hNALgsR/CZaeNmmmTYBRGYtNL6pbY5BQ4WfWSGkCk2pnSHf7UZGkjyCviu6sG0yD1btuvQ6J2eNARW+xsaiBU9S0tedp5SpQqHNNETMbPZFbKy5BG5qZlwJOelTBsijgzZgeV+cKQrmXlb5rSLsXJdt9YOkzVC4qVrqNkaT1K+25Ng+Q72xdAyP2TtZWoKd2yinyXiOhAImZmwnuJmAv9IQYkG0AbnJfWgwlHRRyjOr0++9rs5xQAaTpGF4Hd1IQHrTLPaLip+a4TSe0zk9fPovolp9HWKSt5/PuOPh0kSdWlIO5JHLJUDCAEKCGcVXzNFC0VMoW1UmApEyQ2J1gasQZFhzHDZ6kRvRVAVmqbGJBxX803DtUQiaMabJDFMJiYAYnGW31n/IONwjCcLfNx7s0DcRGX4S8ThFykdFmbm/r/an4zkqc6YaODUYCUUahPYApnhvqrPEMShxGyxOMPAJapR9oMB7WvFJohGh5qN6PdLCaAxlhbSUG1OisXwaPYkdT4XKbWcbu/z8pVS/uTt5IESC6KRB3HssXwMk1TjDnWJ6rYSpebKg9pi09TaHr7ujsQcBQrO44CLCWYGUTJVi9tb50lCjGV08sRe4SrJJrZDjuXpmeIMiea+Y+Qi5gan3osPw7UXVzw674QJPB8DQylNbbINNN51B+f9qBSgdiY6FI3Eiw+WdyM1H9tQEVFfCljKw+I/B5K+0OqWCPLfIRibBj01nxbGzItUWuRiCHJe/+KWmkJt09iybGTIUiE2TRFazr5jVe4NE5hU8XYOYcBZlK4MV2HmSEVHZW6LwOdJcGh8xq8RRjpo4iDkiM4ofBIyqg+kapnkrJmJDwev91csyBq3Ce9jci6ZAA+8XxJ3oc25spAPRB59P0xZ7ubS79MmjiZQDP2NLsesDJZVBeZpZICzWaiyk+k58cSSpnSRA5c5NGoe6j45YC4IpJmnG7amGiawLPoGY0eUf7rcScNEaxypAPxUsZ3TwR4nTeUhQCQT8/yaT7IppMUI0AXkuYWrCaiznZI/Vdq+jAMG4XRiihmR0LXQalIj2Kapb6qYlhpZl48BsPH2gmMtPNoYwDAC9nxT23kPfQPjCn5002GwrffsnlQM/CpLCKQpXowpARkeC1lpOMCsSeEoYOmcGJY6Iek4FDzVHEoLCDaRFpTvUTJfE6peAKYmCTxu9omM4Udk3m4nHxMwfDulTYNQGzgtMI01ROeGihudUMRpxwSjJkhhYQkCTHFzLYqezYIrtMttsBjCWz0Qxue2T7p922mvKqnQpN8RSPrLwHhMZeBSQkuktIz0zBoZc9NSWBuXpZtAzUqcqpC+t3zSF9UZQ1u0YEQsiUxzMuI4KqO0Vwk1itw9Ks5Pkme1YFNqJ8eZgR8bMEwGOhh4LiGy4+5LDECRi8rI7ISFM2TafvbiGjSiC3Iq+1wNJ/UvOgNCObYOpQS8H2gUQdqDYGBgW74zhDArEkAVh+uAhRlGwTUOCX8Vd6UCdqM/Eu2cw/F/TYeql3anGQKPQ4+tmdcXOUy4zVmLCSilsSdChgrkAqRyOQo1p+nbUIMG2dWuFsx16WkWCf5PuB5AUgeMwguHDiQ8FKEC8CguGMqsVUCUqpS8CtDoOIgSBPwoz6TCjLUwhwDpMZvSZ2YQb+WVbO8t8uSVzPzm8x4CJsjbMUpthusthYRngxuMQBiBXyLlSdjgALDwZeA9AHfA3yPIR2G5OB7QiAZO8/JNuYk/GMJ0cVbylTCp9QJJX0jCyFSbarPieWg5eFqDxngQOT1SYHFLks8xwyOdj+l/Bi2i0BumqneT+s5GzDRoOMQUXguFXAi0cYROJF154fnPgA3cIBdOCB4cQTc8JKQ7DyPuhDObPXlAQWwWG+pA4g4ILwWkU5KkT4VBNTfTI1KhQ2x9gIDikw41PU9POVKHmeBDttTpgTHVl4BR8FB0S0KOBGICkBRREJGpngYXQgA4hgslglAzABEEBYScMGoN9WypgpIpFJUOoj9pYBSMTJIxWkskqew7Y1eBVRSwFFYN2BWWux6dX4h42OjcNGhmltsMHokrqzIAbp4NMFRgDD9LH1VVuUe1l6RZE44KAZI4S7JDEcAvvRB4dd41Mi2+auCk8ADpZ4BlGEix/UtaDMiLlGmiR1FrTGtBMWbUwfF9jX8mvTwJMuIdubLXqpoUi/UrFB8qMRHQvhwi4IeIDUPU4xJirmHI26xARS1z0GUwZc+BFxNpJnvups+py0lEXTSxGDsAGsHhZyQxAcTeRgipr9noN8OaUdqkVjnUZ+Ytyzj+Q3cxdLopbJUbQtcqXjZwImIFwMUlVGBUgnOMKIISV1pgKLWhR9yHwEkCJ70QeyENEngMCf8dA59omu6wlRNejzRYBattBJfIiVLKIwloEQ0iDpFbZLh1XGv9LFJ7YVpsWk7t0N0EnD0aLUm0lTLTdFJscUGHRxwYKFFoSEZg8IxyHq0XJksBEjpga1vB9q/9qDN3hRncVKOdKBI+2cx2ylqm+JXsIVxqJwUVePwYYnvRkXRqEiMbPBe8Rt0dzzLUwBF1xQqQUo5itrShMItzQCSKkco99X8iHMSDmKdC1nJF4F15ksfkMkHOdK8FBkHyYenpsM90SQQRPFhAiZIF5FEIlwwpGSpRG0/Ep0xaYOM4DopJbJFQu/+ec+r0U3sUy3udAqgcGiGXmL1v2lykDRM7MTk5lhMSoNTVN0TTyYJjYsCTpKQHL2iCQtQwRFxD4MgNQ6BUdL+L3hmQvz4Sy+k86xZK7HiVMWk11D5kkiw2PC0RGWMUB1z7vIb9FDT1dEUDup6qw5UfM2JaFSJTQoAKhgJwGmO0axBBfwoj0QEtISUjOTzAdahtzhLA5KIrOaQqaCqLZrPJZDmC6X5EVC/xiSQaYgrTmXMHqyjs1+ONqriWukHL8maAOlvbit7RlXblKEBl3AQw2BAXX8hAcbkRtOEZxuoYFC4PMEs4UsJfQXGLtbs8Nh9KAn9pWsVBpoCQH2ScKof6fOE2wTcEQEA6x4tYnw4g+pY5ja/7txvBj9Toi+6nbCMznoKQhzqMVbYIeHWoExqmRxpUaiCbgLICDkpLOPHnKRHGMyZOxWX6WVYI7n6iVKTLs0mg9qXNAemyxEILvJDAgAuPXIcbT0+2nrljkbFvUL6omxzWGNw1MYU6qobTWIQOf0toGi3qhqGiH0/zXJRQVcmho06IiGf7/tIf16WtKJ2oWTO9ah8c8vQ7OJ0ACNt8jSxEBFoziy3rYllwuYXXIxvyWHHuo7f+NXsTVAdVNi4iNI9syoyCwdEIsocXWjmmLrHpITuYAeji60tDkJD6kc4dIimn+wWn824sCcTNBuwzZ/JcOAih+7nYpAuO2YMTpbRNVCr1yeLl/v1zIvNNlrEEQYFALY+NFqlUs2N9EBMJFQA1DUZ1h6UmC+gRNwBQdQh+uQ5WcnbGrTmokr3rZrdawZWM06zAcYAXBQrJe5/UnvW+icIf7zsFHTM2/5Co1L8ivTdsu2BAKxhentS4uocXVu6HVl09ia0Xw3q0LJTCSQ5iDrYiWzTStNLzaISM03TJV2OOzd3ygOf1kby6M0VfPDqcVRHO7DtlYEXSrPHOpyMd4y+rqy4hi30lkp/s6wqxtgo32wrWZyf+i4dgzJAJkcQIgDMdVy05dsgqRyLjlguGkSfCoxW5alFO7b66kulZK0f5Aa2qYsuLLzv72pXX5PaKfTPh6+GcH3MXrjJq2zvucyrFm5VQ71NcaEpskk5Z/3+1PvXQu5j2x0E5rcyfGYfwRafhCDNyDcVN9iMA1trzThMB4NgAqSWIqX9DEro4H3v+nFxTtW6neuF3zvI5D3k2ss7qiM9n/fqhXvi5poqqilGqFxrn2Ztkq+3TUhvIkieGX+pOGxKsgz1JiF5tax552Yqtmz6pZUuUu+bIld1AxRTCyXuG+rm5Xct9y+077m74dxXseaBHrTPG0KuY2JtY6znLL9WfIRb9ayFbGhVzARX3YBoLcvpLCHMshIsg1gBW5/TSlClU6tSNiCalYvK6H8exazHcDmHTux//0HV856fWz+5+cbIq973DNbcvRxv6d+CbPvo8/Xx2Z+U9eLDqRGT+vDmg0uZrQb3TPXmnGoFmfRO9nZH5WS4WUQklcx+NwGKLHnTSXbrNrgTeYJmfE69VhdZS+hvzJaH/eze0ofqXuGV1n9Q5L7rN6HnuCNx0dKX8WjD3VIfn32fcBtLhGjsi/jBTVCJshQQ1cVJnb0tNDR8r1RIKLolgGye4DiB2BMECAdoy3ZCuHVINDS92BwUMq5bQTm9pLdITdrWg20OZ9CHox4+yPvfl7T5B1TGNvVNvcX40hP+hC/edRSWzBmCWxh/oTE67yOy3nEjs+Do2z4pbmoysuhearuuwYbTIkgYiI3ra89mSJYguFYxR4bwSRsX9l7sHFB6tCKYZ7YYQzD72jDfm8tH/8fD2X/cfmf2eCyZv2J6+8AvPeFB/Pfv34zcrB1wcpUN9eFFn5G1WZeyzIyDwiVU5WPoJlDaZnfFBDI/wmT7/k8MbIpIrMXszCSlhEAGqrhpTsiEoFNoUI34qthqDg/iRZPmH4kKAMqgiLk4/L7Bxgd/sbx+CU4cXwVgBn8/6d4b1mDZYW9H+947QJC1sYfOujvX/+xLJLxlEF5vMiZK6xeTS5qJPTNfi66TEU0P+EFkCZkMQTghdwrAEUDeLSGXycLDBEBC2aeQbE/RX8BM/+qiUAVED47qmi4d/TYFmznZohZ6cdj4oPyf523J/OHpotNAf/4EADN8o+LyM36Dp65fAG4UUFz8K5npWnezP7H3/0Cj84dgpxoF9QEGRX8XQvvmNqe4xRR70SsrhHDdP+Io5e9MJA5qaNkpXBfV9aUHQgYmZxCa/ykgk4xsENcylxQY7V/5V4WrHaAglWge5vHx1+838aH/WlD9FMY3L47vzfjPxV130R04f/HD8Mt5/LLEoEzlpcamYz/D1d6Pwi8+muytDQkbdSZakCIdoPhrJFB0k0jASgBU3spThqj5SMqvhBeIO7KRZab6Ju2mkvWeqePIAqaZGC7asDe/5bH5/mnf3Nh2u98Q27Go/8idBylKFx5xBw6+9j2gRgdEcUtNtG/8mRwfPI3rXReBc6uiDmirywCivUpECbdFYkoovyAdJF23JawjhPG5dwqGJVkC7DTVGGHvpjFSGx+lQUu3PbWzG+Rn0MdHDQ/It124JfOHNePObfjto9e37MFOpcsfPB1zj7wFI2uXILvP86ivW7I/5bb+PZzKByAa+8Xfo4vjbeFjZdAFVdeo27ekJG2XqpQMv8Hw/GA5whdAoV3AzQR6SAiCcAVcIZB18+jvGETVeSn+ZIBu7Nph0t0C0nhhyuhVUyCawSjQixX1hfLMLxwoPvuvI5NrsbX2Eg7oOXHXgwQAA4vm4tybD4G/fRGyg79DYe+XUV5/4CBlt70HTuW9oMZykJ+N1/Ui2131fSKgTLB8gvQ52DzpAY0Gw/MZ0mUU2gUcF3CIIBwHQgg4QsB1stirY3/UMy/B57om9lSwTNI3W0qYCiSaRn0zdWMp7yff862l5X/64lDm/rrPhP7CMalyr+uvY6ppbNskbr96FQ5YOohZAw4qq4+B27l+h+hd/4AcXnwriB8hQp2AWUToALFqcMVGA5DoIHVvGiixQVhSsESeATJZCkSecEHkgkiASECQi/ZcD9jZAQkvaRjTn5mtzAubod5c/6RFZhcOwgJ50n8O1N9y0Y7MExUQoT9//Iz68bpTNp/B1x58Cyb/dDY6T7oY1LYWjWfPctz9f76A3PFj2amdCPJWgLwBgAvmYp/2KYBwC7LvEzwP8GpApSaBAiNfdOBQFkK4EMIBiWD/myMymNe+L5BfjTqPaSABwZJ4s7d4W4m8pMzUfpfpMkcirgsHYUC++Zo+b8X5Dac8kkEbvnrzZ3H1+17bvSCp6ZJffALthz4EOdEDMWsdqLgR3tMXOM6+P+tDZnQJnNpSkL8E5O8PcD/AnQwugpEH4DKziMEK3+qbKDOQc5DPdcKhbACOiEJDBCEE5pQG4BbXosbDiCytiH1FaEgnoU7bGrE1LjCDFAAsYniy6MEyv49X/GBWfeGF7PijObcTtz37dZyz7PkpQd9t6Uu3vRdzDn8W9W1zQe3rgPwwRGEE57QD33p5/6LIjXeQW++E8GaBuYvBnUTcxhJFMErMKPo+ZSfLuVkZ98AzHMfpYTEOOHUIxwc5Ek5oFXYV+pAvbUIFm5KhaiBBA6rVakv0m/xhcB246PXRdDQwKOGiHbOxfLJHLvpGod75LXLy5azowB3rvo1/HFw3BdR7MJ3zL+9FpruMRR+4H5vuPwClviE4hUlQpgoSDQR/uNIHkQRIgoQEBFD3gQu6gH996axP18Vr35HO9hKcMuDUQa4PhxiCCO25HrS1D6OMV+OhMukBnYSM6sqTbcUn2a1B4ZniBVpiFwloRfSjmxevK/Hs/1sdf/WG9uJBvktteGDjj3H2gvVT0mmPgjTd9KFLj8ENF9+PwTd24W0fPhzHfuhN2PHaVsyZOFKs77r5fM8ZuQTuZBZOHeT4EEKCiFDKdGFWxxgm6MVkoEQpgFSems6WLDUxjK97KW25KKITg+jgvf7gSnFRn3PKIxtqv4Qjcvj2Zb/FL780Oa3x/1WAZEtXPX8OJE0i683KThZXfsV3xy6AU3XI9UMnmVBwOtDTWce4eDoZMCVvOQTENInbLJqnelY2WKL6wcvVJfRjFi/YmuXc9+velu+V3MHhV0ZvwqzsIpzW9tyMxrrTEYc9nc456CqwqKGW31Av+H1fdZD9d93oDV7nJM4GZnlkBKibYyzBU3MjZAAJQX0Lw85bgWlQRB/mYkWtlw+4zZWNd79J/PIrIDEMUQXL9hkDBPwVg8TM2HTrXMCpo5EdmszL7otcyt2o7sIONq9k4cDRPp8WhIHJykVJijRPdKdZOIhBcFAIwKn34dC7ipz/8Jj30AcE5R/46UQbJryNePCVu/CR2Tt2aqx/teIuSl+97jy0vfVxEDtwON/fyA5fw1Q7WZCAI4qY296OSvZP8FGDXRPtDGEC6BwUUMActGNgooBZ9wp411V5ze1ttHR0yLsHOdGNzZVn8fdt1dc1xr96kADgmvsvwY6FtyDjd8Dl0qDnjP4IQh7jUB69pU7U8w+igXLMXxGH2PSPPUWWH0EgiyxmoYR5aMPc9Vm03S4gb5zk5x7soBXlEX4c3fRGrK79BGfmR3fJ+P4mQAKAa5+4EOsO/Da6x49Cxu9c5rvlG8ih5d35TniFP6GOEcPkTkBKy/zEziM4cFFAFp0oYi4K6B3Oof1xB+5vJMZvX4mbXl6Kj8pRfhbttAib5P/DGc7YLh3b3wxIAHDtyvPx0Su+iau/9lbkvDnHSLf2o7Z8dpALD6OKLUheLNO/1hwAFfwvkIGLIrJoRxazkEf3ZA6dGzIoPCXg3ONj4v5JvPLiXJxcGcGTGMXzyGIWJrASZ9D4Tva8dfqbAgkAblj1T2hrLMCWgVtRLA+ekivU/4NKT/RXsCH8dIADghOeu3CQQwZFmUGpnkFpMoPSNhfFDS5yLwu4zzAaz3gYe3kr7ty6Lz7hj+MljGM1jsYP8Ee8E6fTxtff6SnS3xxIAPCT1V9EwenExPwL0D5xzifzxa3nCVFxBFxPwK0JZCYF3FEH2W0CmS0OMhsJzgYBsQHgTTVs23YUrp18Gl9GBZtRxiaUsQEdOBBDeACn09rdOp7/D+kPi1OAeYdXAAAAJXRFWHRkYXRlOmNyZWF0ZQAyMDI0LTA4LTE5VDAyOjIyOjQzKzAwOjAwiiblOgAAACV0RVh0ZGF0ZTptb2RpZnkAMjAyNC0wOC0xOVQwMjoyMjo0MyswMDowMPt7XYYAAAAodEVYdGRhdGU6dGltZXN0YW1wADIwMjQtMDgtMTlUMDI6MjI6NDYrMDA6MDD+VlP+AAAAAElFTkSuQmCC;html=1;spacingLeft=10;labelPosition=right;align=left;fontSize=15;strokeWidth=3;" parent="_Tn5D_dkqsPfIdNLR1im-64" vertex="1">
          <mxGeometry x="10" y="10" width="43" height="39" as="geometry" />
        </mxCell>
        <mxCell id="_Tn5D_dkqsPfIdNLR1im-69" value="" style="group;fontSize=15;strokeWidth=3;" parent="1" vertex="1" connectable="0">
          <mxGeometry x="1220" y="403.94" width="180" height="68" as="geometry" />
        </mxCell>
        <mxCell id="_Tn5D_dkqsPfIdNLR1im-229" value="" style="group;fontSize=15;strokeWidth=3;" parent="_Tn5D_dkqsPfIdNLR1im-69" vertex="1" connectable="0">
          <mxGeometry width="180" height="68" as="geometry" />
        </mxCell>
        <mxCell id="_Tn5D_dkqsPfIdNLR1im-67" value="" style="shape=mxgraph.gcp2.doubleRect;strokeColor=#dddddd;shadow=1;strokeWidth=3;fontSize=15;" parent="_Tn5D_dkqsPfIdNLR1im-229" vertex="1">
          <mxGeometry width="180" height="68" as="geometry" />
        </mxCell>
        <mxCell id="_Tn5D_dkqsPfIdNLR1im-228" value="&lt;font color=&quot;#000000&quot; face=&quot;helvetica&quot; style=&quot;background-color: rgb(248, 249, 250); font-size: 15px;&quot;&gt;Was&lt;/font&gt;&lt;br style=&quot;background-color: rgb(248, 249, 250); font-family: helvetica; color: rgb(153, 153, 153); font-size: 15px;&quot;&gt;&lt;font color=&quot;#999999&quot; face=&quot;helvetica&quot; style=&quot;background-color: rgb(248, 249, 250); font-size: 15px;&quot;&gt;Java /&amp;nbsp;&lt;/font&gt;&lt;span style=&quot;color: rgb(153, 153, 153); font-family: helvetica; background-color: rgb(248, 249, 250); font-size: 15px;&quot;&gt;SpringBoot&lt;/span&gt;" style="shape=image;verticalLabelPosition=middle;labelBackgroundColor=#ffffff;verticalAlign=middle;aspect=fixed;imageAspect=0;image=data:image/png,iVBORw0KGgoAAAANSUhEUgAAAGkAAABgCAYAAAAejVzyAAAAIGNIUk0AAHomAACAhAAA+gAAAIDoAAB1MAAA6mAAADqYAAAXcJy6UTwAAAAGYktHRAD/AP8A/6C9p5MAAAAJcEhZcwAALiMAAC4jAXilP3YAAAAHdElNRQfoCBMCFjB92tHqAAAkOUlEQVR42t19eZheRZnv761zvr2XdHc66Q50CA0hJCRhMbIOgijKongVLu7jrgMj3ovAdQCfqw4i4jaDoDzjDAMKKiKgeF0GURh22XfClpCdJN1Jev3Wc+q9f5ytqk59X3eHmKiV5+Q7p05Vnar3V+9adU4T/gLTZ25qw/zlEptXEfY/3EehkEcp140B9zBc/dzN7pF70axSZnZ/zmmfnxGFQYdy+ziUHRBweomcHoLTIUiUCJQFKOMg42RQuiQn2i59ZvWrOGu//97TQ5xRcvd0B6J04Z9KmDtYQ7Xso6Nboi3fjRMWvRl3bLk+X0Bhb+nz4k288uDTF71hmSNy+wk4/UTUCXCBSQqGD0YdEhLBuQSDAUjk0IleXr69gTHcee5dAGhPD3dGaY+CdM5vgX0PIYyNMPrnE9ryC/CB3pfxvfHcHOnz8lfxyN8tnn3oUQ7llgiiuUx+RqIBD6OQqMdgADJukwEkIBAARhalusv5tQ4yOO36A/Dzzj056pmnPQLSV1e6mLtvAdVKDe3FuTip/3O4e+JLvZ7vHXEjLz2pr7TsWEHOQpBfkKijgYkQFIkAhoQTCGRc64kBOMhPuChuIiZ8uPPlPTHk15V2K0jfWCOwdJ/DsX5iJTqy+2Hr2OPZkuSDn/Sue9fs4pJTBWGxpEbOxzjqqILhAzCBIIuw0oFLcgO+cpDbkePOIR/13UrcXZV2C0jf3ihwyLwzsaZyD+oowWevs+FVTti/+w0fFIKOBzV6fIyijkoIjErw6Jyt8AR30DSfQHA5t6VDDoyO4NXdRNZdm/6sIH1zXQYDA4swUd6GcWwHM3eXG0OnzS4t/igRHylpMtfAJBieokvSAisitgkUx/9TU6AAAQf5Db3lk8tD2W/vARK//vRnAenCBxwsPGQeGl4FLndDyq3tZW/ruzryA2eRqB/uY4crUY7FGSDC30hs2YFKUhqoZiA5cJBBfu0VnSQPGfnMbiXurkri9Tehp+8P92DU9VFw52GsMuw2vPJJs4r7/tx18Z9SDB9dx2uuj7EYIAYUg0A9oNwPzgKDmuM8GeYGeXq9ZIAZOMitWYpTUXK79jS9dyrtMk666EGBZYcdgYZXwbve+E5sqz23aJ+eoz8PUXufT0MdEpMIyBpwSpqc3EJkkSLampVki9ZiOMg0MlxY14Z5WL1xw24n8K5Iu4ST/m3rfrj0SB9Z6ob0kB/11n7CzTq/8p1tn27Qxo6Ac2Q41zkmsso3CS9FvKHyR/rf9BLBRXYig9KmPHfhvQfesKfpvVPJeT2VhQv8ePR4ZEQnNuTvQL1RXZgtuN+SzvYvNGjzHB/jUB3NKHFLRZ8ILVL+N5P9HsW8FJ0V0fNaPw79Xt1rjMnCMrzj4hwOeuNyPPK7l3YzqXc+7XR85P/ck8VxR3wYnl/DN/7hpzj/mne9w3OGL2vQpqUeRmEHJyKfvRucyo2MCBvDi1RLUXk1v5v3e8wZ2+u0a3732Objz3xeehNZyHoRfqUTta2DyLRvx8SqJfjyKT/dE/SfVtopkL75/Hwcvvj9KNdG4NdyBb+48XM1Z/0X6rShS6Ial+OmcOg5PCW3qEdyV3VyyZInIFD05k5sKD/1vM/eakhnJWTmWZbui7LasX7BwNqxDeMOuNoFWe7F/9pnJS5/7ARcfNTd8Bs+/lLSjEH6waq34ojBEzHUeA1enXrr+TVfLTsvf7yO11y7I5o4oyoX2U1qsuYGnESW+wIq/5jPdJGBU2vDxspTgIjMCvIItJ1ZrAK7T0C6D7KXf5Qn91qT2evJqj/eDVmei7aBlRh56hScf8hv9zRGMwPph2tPxtvnvw3P+2uAenHfiexzV4w7z72zgW1I8w1N8duqOzaNkwaKQpGXFqDBdRZFNCYJmysrQWF1Cg9QrL0kIDZDOk+BM3fCL9wpJ/da6fQ+WeHJPsjxBaDcGMafXoEvnvKj3Y8QZgDSz179JN65oIpHZB+4nl88mnni38bE08d6NJo0xqpxTWHrkThrFnuzE9heTkAHiUKohLWNPNoxPjqJ4foaCBIAcQBQ1D3Suhm0x2Ib2H0UMncbvNLvvQduXJ057h3MkwMQnWtQe+XtOO+wW//yQPrRK+/BwfsVMeLPgdvoOWjYve+aEeeJI3xMWIipNE7KHaYoE7pyt9VONEw6X6Tqp7kpOC/wLAyPbMVoY3MIUsiLBDCx2p0YvPgXBLCzBjJ7O/zijZhc8BB1PVXh8gK4s19CdeUp+Pzy3SMKpwTpivvOwPHHrEDZq0A0OhZtyfzxuh3i0SN9KqeqT414SMxo6sakFdaydqBErItagUQACrIbG3esQdkfhSBKQIofz/GjSO2WBhYAdsbA2XvhF66lWt8daH9xDBMLgcIWeOvejHMPvuXPClJLZ/YzN/XghCPegloNKNQHBobcu69uBhCAJoEZvQQbLiw3rcVNWjSdWb2Mau+xBDzUA86B4TgzAu7m4CbLII/DpqLzoJjfwaJyKjIjP+bi6l+gMetMyEIbqAa3ZxWu3LIQF99yxp8NpJaT/7nJG+BRBQVvXteq3HU/GHLuPcMT4y2qTsfkNsRgXEI0FYHmelIk9lTuSYyIqIZAptGBtWMrIdk32lNaUjkKifhTz9O9dWqQ2TvJb7sSI0f8AV0PN3jrCaDSOpwz//7dB9KTQ9cjly9gn8bpmfuLH798s3vHuQ2x3Rgit2iKWj7EDpTq55j1zfxI7NlAAgRcoJbH+okXEUfX2fLEGBD9JhlAmeMIxeA4ceFmNGb9C/euf4a2HgBR2IaJF96ELxz+i10GklXc3fHq1zG78Ub8qO0MPFI492NDzn1nN0gFCMHANUmTFktIRd6Uu6yLrCR0yk32LZjiT2/RFJsCDhqyBiaZ6B/BmlWn4pbqPSv5nC7DAEB+O4vJj3F2669pR8+5JPOd7DOKnXlcue7oXQZSapKfeVU7Pn/251BpjKDgzztqnXPLzyfcF/YypxOz0QDN6DGJYFI4ijXuifgnMRKS/1UOcpQ7iTmeQQHjk5MYbmyE4MAxCFyEafbStPqUAnaZISTJwn/B6/oyZq9/hLYcBDhVvHbfwbj03a/PZE/1+akdP4SfHUde9vW8lL36pu3OIyeAkrWfaTU4LcNeIXziWGq7fVQxp4tB0wRPgBQQIABZLmF4chvG/OGgdMhocde4WY/sIDUHKloxDs85s55k+9eofOB1yK+rUmkjKi+fgPOX37HTIGni7iePfw7t3gE4rPhZrHNvOXuUnjkB5KXHZF+fS8pNayUhEYVgVSDqC36JFRiJQKVeeJ810ZjUb6CmqzIRumuqX6wEMlgtG7XHMPoTnevGTNQrUGOAnZHvcumZ70IW+rnWiVz1rbhy7bE7DZI2eR6qXoIxrEZW9hyxwfnVbVVn/VwiYQepZUth1gyCTqT4TnqDZFwJjbKqqRAZEgICGVnAxsl18Liud80U01G7zSaWyTmU5nN7FQJx/m543eehuP4x2v4mwJnAZ/sfnxlCUDjpdyu/DlHvwGDtE4UhevD8qtg0N9IX2gxvtTXH4CzV75gqMdsaUhfJk6X2ZEFQ5SipcZQvPUhYItkG1ySxvCZH8x43IUfCVUyV45AZ/ilV+0/mve4BCcZVWw7eeZDEgY9iTe4neMG94qQJsepUiGiAKZtmGhTfObBMiy/dYARJM9En43OPG5Aspx+dbAWSca3vkrUDFcUsGfWF7Oy4lkbmfLh06+Mg4eN7Q0tmDtJtL1+E7MQg9q6+t31EPHeWJ8YKyYwwiG1ZyE7/hodhnjPbFsJ1XZSUgXnHCpS5JB9t+/JkIwioWoicDtW2wI5s5WzRluasx1Sfy87olRPvn/NpZ/2XiQi4enj6QAkAoH2ew6bMr7HR/fWJNdr8JiLdB4o5wWossOVXUf4xF7UWl5pHlTIk2FIyOpfhWcJNAKPBdajmXETs6Yq3VtIuHbGM1EKzcgRGo5Od0W/5+/3DWaXNXyYQ8P1t0wNKXPzr4+GW+7F39WP5Mq35iBSVnG7eNKnZwsJLFzDE3dRBvrgCG+Czdh6BJFNlPW5YbZApATLLaEVsa1ecurIPjwD47SzGvz4xcPbHN3Q/D2IX3xtaOjVIhx41GyOZh7HJuXVFnbYfp1lkbAQUmh2te6fRvRlY3KyCIcxIEYVp4yLMZYbHXkzlaRuZqlERZcUBvlaVmozXmue1szP+jXnjvaf7s56GqPfiyg2HtAaJyj34cfFxVGnju5lqnVFUeDrEtwHIU9RpCpa1mtlgAhRS8Cl5LOGzb+UWVg4bJ8WXKa6j1jKwBVBaDwlg8rrZmfiOKPcdLbsehbvXk7j8ycOag1TrfBIfHDtyrkdjbwtdoiRMrx6YmoEiemp1uDlmdmMu4pPkJTDd2W0GVMBNBMBnCQlfp6mhk9TFPhMYMiuq6EEpPA2A4nOjuKT6fOmMfUf4Hfug3IuuAzY2B6nsrEZFbHgDi9pCs+HXnSzIprI44QFwertxHHDlyD9KfCEdqOiBBMlekKNwghmu0mhOgAiPyKmOylMYT7LGKGfirZt1AYDqR7Azepnjd7RBuvjB2D52kIaKQ/Ax8WaQzOmU3TXYAGhpHTJ0zmvmVLHCYTK1py/hNALgsR/CZaeNmmmTYBRGYtNL6pbY5BQ4WfWSGkCk2pnSHf7UZGkjyCviu6sG0yD1btuvQ6J2eNARW+xsaiBU9S0tedp5SpQqHNNETMbPZFbKy5BG5qZlwJOelTBsijgzZgeV+cKQrmXlb5rSLsXJdt9YOkzVC4qVrqNkaT1K+25Ng+Q72xdAyP2TtZWoKd2yinyXiOhAImZmwnuJmAv9IQYkG0AbnJfWgwlHRRyjOr0++9rs5xQAaTpGF4Hd1IQHrTLPaLip+a4TSe0zk9fPovolp9HWKSt5/PuOPh0kSdWlIO5JHLJUDCAEKCGcVXzNFC0VMoW1UmApEyQ2J1gasQZFhzHDZ6kRvRVAVmqbGJBxX803DtUQiaMabJDFMJiYAYnGW31n/IONwjCcLfNx7s0DcRGX4S8ThFykdFmbm/r/an4zkqc6YaODUYCUUahPYApnhvqrPEMShxGyxOMPAJapR9oMB7WvFJohGh5qN6PdLCaAxlhbSUG1OisXwaPYkdT4XKbWcbu/z8pVS/uTt5IESC6KRB3HssXwMk1TjDnWJ6rYSpebKg9pi09TaHr7ujsQcBQrO44CLCWYGUTJVi9tb50lCjGV08sRe4SrJJrZDjuXpmeIMiea+Y+Qi5gan3osPw7UXVzw674QJPB8DQylNbbINNN51B+f9qBSgdiY6FI3Eiw+WdyM1H9tQEVFfCljKw+I/B5K+0OqWCPLfIRibBj01nxbGzItUWuRiCHJe/+KWmkJt09iybGTIUiE2TRFazr5jVe4NE5hU8XYOYcBZlK4MV2HmSEVHZW6LwOdJcGh8xq8RRjpo4iDkiM4ofBIyqg+kapnkrJmJDwev91csyBq3Ce9jci6ZAA+8XxJ3oc25spAPRB59P0xZ7ubS79MmjiZQDP2NLsesDJZVBeZpZICzWaiyk+k58cSSpnSRA5c5NGoe6j45YC4IpJmnG7amGiawLPoGY0eUf7rcScNEaxypAPxUsZ3TwR4nTeUhQCQT8/yaT7IppMUI0AXkuYWrCaiznZI/Vdq+jAMG4XRiihmR0LXQalIj2Kapb6qYlhpZl48BsPH2gmMtPNoYwDAC9nxT23kPfQPjCn5002GwrffsnlQM/CpLCKQpXowpARkeC1lpOMCsSeEoYOmcGJY6Iek4FDzVHEoLCDaRFpTvUTJfE6peAKYmCTxu9omM4Udk3m4nHxMwfDulTYNQGzgtMI01ROeGihudUMRpxwSjJkhhYQkCTHFzLYqezYIrtMttsBjCWz0Qxue2T7p922mvKqnQpN8RSPrLwHhMZeBSQkuktIz0zBoZc9NSWBuXpZtAzUqcqpC+t3zSF9UZQ1u0YEQsiUxzMuI4KqO0Vwk1itw9Ks5Pkme1YFNqJ8eZgR8bMEwGOhh4LiGy4+5LDECRi8rI7ISFM2TafvbiGjSiC3Iq+1wNJ/UvOgNCObYOpQS8H2gUQdqDYGBgW74zhDArEkAVh+uAhRlGwTUOCX8Vd6UCdqM/Eu2cw/F/TYeql3anGQKPQ4+tmdcXOUy4zVmLCSilsSdChgrkAqRyOQo1p+nbUIMG2dWuFsx16WkWCf5PuB5AUgeMwguHDiQ8FKEC8CguGMqsVUCUqpS8CtDoOIgSBPwoz6TCjLUwhwDpMZvSZ2YQb+WVbO8t8uSVzPzm8x4CJsjbMUpthusthYRngxuMQBiBXyLlSdjgALDwZeA9AHfA3yPIR2G5OB7QiAZO8/JNuYk/GMJ0cVbylTCp9QJJX0jCyFSbarPieWg5eFqDxngQOT1SYHFLks8xwyOdj+l/Bi2i0BumqneT+s5GzDRoOMQUXguFXAi0cYROJF154fnPgA3cIBdOCB4cQTc8JKQ7DyPuhDObPXlAQWwWG+pA4g4ILwWkU5KkT4VBNTfTI1KhQ2x9gIDikw41PU9POVKHmeBDttTpgTHVl4BR8FB0S0KOBGICkBRREJGpngYXQgA4hgslglAzABEEBYScMGoN9WypgpIpFJUOoj9pYBSMTJIxWkskqew7Y1eBVRSwFFYN2BWWux6dX4h42OjcNGhmltsMHokrqzIAbp4NMFRgDD9LH1VVuUe1l6RZE44KAZI4S7JDEcAvvRB4dd41Mi2+auCk8ADpZ4BlGEix/UtaDMiLlGmiR1FrTGtBMWbUwfF9jX8mvTwJMuIdubLXqpoUi/UrFB8qMRHQvhwi4IeIDUPU4xJirmHI26xARS1z0GUwZc+BFxNpJnvups+py0lEXTSxGDsAGsHhZyQxAcTeRgipr9noN8OaUdqkVjnUZ+Ytyzj+Q3cxdLopbJUbQtcqXjZwImIFwMUlVGBUgnOMKIISV1pgKLWhR9yHwEkCJ70QeyENEngMCf8dA59omu6wlRNejzRYBattBJfIiVLKIwloEQ0iDpFbZLh1XGv9LFJ7YVpsWk7t0N0EnD0aLUm0lTLTdFJscUGHRxwYKFFoSEZg8IxyHq0XJksBEjpga1vB9q/9qDN3hRncVKOdKBI+2cx2ylqm+JXsIVxqJwUVePwYYnvRkXRqEiMbPBe8Rt0dzzLUwBF1xQqQUo5itrShMItzQCSKkco99X8iHMSDmKdC1nJF4F15ksfkMkHOdK8FBkHyYenpsM90SQQRPFhAiZIF5FEIlwwpGSpRG0/Ep0xaYOM4DopJbJFQu/+ec+r0U3sUy3udAqgcGiGXmL1v2lykDRM7MTk5lhMSoNTVN0TTyYJjYsCTpKQHL2iCQtQwRFxD4MgNQ6BUdL+L3hmQvz4Sy+k86xZK7HiVMWk11D5kkiw2PC0RGWMUB1z7vIb9FDT1dEUDup6qw5UfM2JaFSJTQoAKhgJwGmO0axBBfwoj0QEtISUjOTzAdahtzhLA5KIrOaQqaCqLZrPJZDmC6X5EVC/xiSQaYgrTmXMHqyjs1+ONqriWukHL8maAOlvbit7RlXblKEBl3AQw2BAXX8hAcbkRtOEZxuoYFC4PMEs4UsJfQXGLtbs8Nh9KAn9pWsVBpoCQH2ScKof6fOE2wTcEQEA6x4tYnw4g+pY5ja/7txvBj9Toi+6nbCMznoKQhzqMVbYIeHWoExqmRxpUaiCbgLICDkpLOPHnKRHGMyZOxWX6WVYI7n6iVKTLs0mg9qXNAemyxEILvJDAgAuPXIcbT0+2nrljkbFvUL6omxzWGNw1MYU6qobTWIQOf0toGi3qhqGiH0/zXJRQVcmho06IiGf7/tIf16WtKJ2oWTO9ah8c8vQ7OJ0ACNt8jSxEBFoziy3rYllwuYXXIxvyWHHuo7f+NXsTVAdVNi4iNI9syoyCwdEIsocXWjmmLrHpITuYAeji60tDkJD6kc4dIimn+wWn824sCcTNBuwzZ/JcOAih+7nYpAuO2YMTpbRNVCr1yeLl/v1zIvNNlrEEQYFALY+NFqlUs2N9EBMJFQA1DUZ1h6UmC+gRNwBQdQh+uQ5WcnbGrTmokr3rZrdawZWM06zAcYAXBQrJe5/UnvW+icIf7zsFHTM2/5Co1L8ivTdsu2BAKxhentS4uocXVu6HVl09ia0Xw3q0LJTCSQ5iDrYiWzTStNLzaISM03TJV2OOzd3ygOf1kby6M0VfPDqcVRHO7DtlYEXSrPHOpyMd4y+rqy4hi30lkp/s6wqxtgo32wrWZyf+i4dgzJAJkcQIgDMdVy05dsgqRyLjlguGkSfCoxW5alFO7b66kulZK0f5Aa2qYsuLLzv72pXX5PaKfTPh6+GcH3MXrjJq2zvucyrFm5VQ71NcaEpskk5Z/3+1PvXQu5j2x0E5rcyfGYfwRafhCDNyDcVN9iMA1trzThMB4NgAqSWIqX9DEro4H3v+nFxTtW6neuF3zvI5D3k2ss7qiM9n/fqhXvi5poqqilGqFxrn2Ztkq+3TUhvIkieGX+pOGxKsgz1JiF5tax552Yqtmz6pZUuUu+bIld1AxRTCyXuG+rm5Xct9y+077m74dxXseaBHrTPG0KuY2JtY6znLL9WfIRb9ayFbGhVzARX3YBoLcvpLCHMshIsg1gBW5/TSlClU6tSNiCalYvK6H8exazHcDmHTux//0HV856fWz+5+cbIq973DNbcvRxv6d+CbPvo8/Xx2Z+U9eLDqRGT+vDmg0uZrQb3TPXmnGoFmfRO9nZH5WS4WUQklcx+NwGKLHnTSXbrNrgTeYJmfE69VhdZS+hvzJaH/eze0ofqXuGV1n9Q5L7rN6HnuCNx0dKX8WjD3VIfn32fcBtLhGjsi/jBTVCJshQQ1cVJnb0tNDR8r1RIKLolgGye4DiB2BMECAdoy3ZCuHVINDS92BwUMq5bQTm9pLdITdrWg20OZ9CHox4+yPvfl7T5B1TGNvVNvcX40hP+hC/edRSWzBmCWxh/oTE67yOy3nEjs+Do2z4pbmoysuhearuuwYbTIkgYiI3ra89mSJYguFYxR4bwSRsX9l7sHFB6tCKYZ7YYQzD72jDfm8tH/8fD2X/cfmf2eCyZv2J6+8AvPeFB/Pfv34zcrB1wcpUN9eFFn5G1WZeyzIyDwiVU5WPoJlDaZnfFBDI/wmT7/k8MbIpIrMXszCSlhEAGqrhpTsiEoFNoUI34qthqDg/iRZPmH4kKAMqgiLk4/L7Bxgd/sbx+CU4cXwVgBn8/6d4b1mDZYW9H+947QJC1sYfOujvX/+xLJLxlEF5vMiZK6xeTS5qJPTNfi66TEU0P+EFkCZkMQTghdwrAEUDeLSGXycLDBEBC2aeQbE/RX8BM/+qiUAVED47qmi4d/TYFmznZohZ6cdj4oPyf523J/OHpotNAf/4EADN8o+LyM36Dp65fAG4UUFz8K5npWnezP7H3/0Cj84dgpxoF9QEGRX8XQvvmNqe4xRR70SsrhHDdP+Io5e9MJA5qaNkpXBfV9aUHQgYmZxCa/ykgk4xsENcylxQY7V/5V4WrHaAglWge5vHx1+838aH/WlD9FMY3L47vzfjPxV130R04f/HD8Mt5/LLEoEzlpcamYz/D1d6Pwi8+muytDQkbdSZakCIdoPhrJFB0k0jASgBU3spThqj5SMqvhBeIO7KRZab6Ju2mkvWeqePIAqaZGC7asDe/5bH5/mnf3Nh2u98Q27Go/8idBylKFx5xBw6+9j2gRgdEcUtNtG/8mRwfPI3rXReBc6uiDmirywCivUpECbdFYkoovyAdJF23JawjhPG5dwqGJVkC7DTVGGHvpjFSGx+lQUu3PbWzG+Rn0MdHDQ/It124JfOHNePObfjto9e37MFOpcsfPB1zj7wFI2uXILvP86ivW7I/5bb+PZzKByAa+8Xfo4vjbeFjZdAFVdeo27ekJG2XqpQMv8Hw/GA5whdAoV3AzQR6SAiCcAVcIZB18+jvGETVeSn+ZIBu7Nph0t0C0nhhyuhVUyCawSjQixX1hfLMLxwoPvuvI5NrsbX2Eg7oOXHXgwQAA4vm4tybD4G/fRGyg79DYe+XUV5/4CBlt70HTuW9oMZykJ+N1/Ui2131fSKgTLB8gvQ52DzpAY0Gw/MZ0mUU2gUcF3CIIBwHQgg4QsB1stirY3/UMy/B57om9lSwTNI3W0qYCiSaRn0zdWMp7yff862l5X/64lDm/rrPhP7CMalyr+uvY6ppbNskbr96FQ5YOohZAw4qq4+B27l+h+hd/4AcXnwriB8hQp2AWUToALFqcMVGA5DoIHVvGiixQVhSsESeATJZCkSecEHkgkiASECQi/ZcD9jZAQkvaRjTn5mtzAubod5c/6RFZhcOwgJ50n8O1N9y0Y7MExUQoT9//Iz68bpTNp/B1x58Cyb/dDY6T7oY1LYWjWfPctz9f76A3PFj2amdCPJWgLwBgAvmYp/2KYBwC7LvEzwP8GpApSaBAiNfdOBQFkK4EMIBiWD/myMymNe+L5BfjTqPaSABwZJ4s7d4W4m8pMzUfpfpMkcirgsHYUC++Zo+b8X5Dac8kkEbvnrzZ3H1+17bvSCp6ZJffALthz4EOdEDMWsdqLgR3tMXOM6+P+tDZnQJnNpSkL8E5O8PcD/AnQwugpEH4DKziMEK3+qbKDOQc5DPdcKhbACOiEJDBCEE5pQG4BbXosbDiCytiH1FaEgnoU7bGrE1LjCDFAAsYniy6MEyv49X/GBWfeGF7PijObcTtz37dZyz7PkpQd9t6Uu3vRdzDn8W9W1zQe3rgPwwRGEE57QD33p5/6LIjXeQW++E8GaBuYvBnUTcxhJFMErMKPo+ZSfLuVkZ98AzHMfpYTEOOHUIxwc5Ek5oFXYV+pAvbUIFm5KhaiBBA6rVakv0m/xhcB246PXRdDQwKOGiHbOxfLJHLvpGod75LXLy5azowB3rvo1/HFw3BdR7MJ3zL+9FpruMRR+4H5vuPwClviE4hUlQpgoSDQR/uNIHkQRIgoQEBFD3gQu6gH996axP18Vr35HO9hKcMuDUQa4PhxiCCO25HrS1D6OMV+OhMukBnYSM6sqTbcUn2a1B4ZniBVpiFwloRfSjmxevK/Hs/1sdf/WG9uJBvktteGDjj3H2gvVT0mmPgjTd9KFLj8ENF9+PwTd24W0fPhzHfuhN2PHaVsyZOFKs77r5fM8ZuQTuZBZOHeT4EEKCiFDKdGFWxxgm6MVkoEQpgFSems6WLDUxjK97KW25KKITg+jgvf7gSnFRn3PKIxtqv4Qjcvj2Zb/FL780Oa3x/1WAZEtXPX8OJE0i683KThZXfsV3xy6AU3XI9UMnmVBwOtDTWce4eDoZMCVvOQTENInbLJqnelY2WKL6wcvVJfRjFi/YmuXc9+velu+V3MHhV0ZvwqzsIpzW9tyMxrrTEYc9nc456CqwqKGW31Av+H1fdZD9d93oDV7nJM4GZnlkBKibYyzBU3MjZAAJQX0Lw85bgWlQRB/mYkWtlw+4zZWNd79J/PIrIDEMUQXL9hkDBPwVg8TM2HTrXMCpo5EdmszL7otcyt2o7sIONq9k4cDRPp8WhIHJykVJijRPdKdZOIhBcFAIwKn34dC7ipz/8Jj30AcE5R/46UQbJryNePCVu/CR2Tt2aqx/teIuSl+97jy0vfVxEDtwON/fyA5fw1Q7WZCAI4qY296OSvZP8FGDXRPtDGEC6BwUUMActGNgooBZ9wp411V5ze1ttHR0yLsHOdGNzZVn8fdt1dc1xr96kADgmvsvwY6FtyDjd8Dl0qDnjP4IQh7jUB69pU7U8w+igXLMXxGH2PSPPUWWH0EgiyxmoYR5aMPc9Vm03S4gb5zk5x7soBXlEX4c3fRGrK79BGfmR3fJ+P4mQAKAa5+4EOsO/Da6x49Cxu9c5rvlG8ih5d35TniFP6GOEcPkTkBKy/zEziM4cFFAFp0oYi4K6B3Oof1xB+5vJMZvX4mbXl6Kj8pRfhbttAib5P/DGc7YLh3b3wxIAHDtyvPx0Su+iau/9lbkvDnHSLf2o7Z8dpALD6OKLUheLNO/1hwAFfwvkIGLIrJoRxazkEf3ZA6dGzIoPCXg3ONj4v5JvPLiXJxcGcGTGMXzyGIWJrASZ9D4Tva8dfqbAgkAblj1T2hrLMCWgVtRLA+ekivU/4NKT/RXsCH8dIADghOeu3CQQwZFmUGpnkFpMoPSNhfFDS5yLwu4zzAaz3gYe3kr7ty6Lz7hj+MljGM1jsYP8Ee8E6fTxtff6SnS3xxIAPCT1V9EwenExPwL0D5xzifzxa3nCVFxBFxPwK0JZCYF3FEH2W0CmS0OMhsJzgYBsQHgTTVs23YUrp18Gl9GBZtRxiaUsQEdOBBDeACn09rdOp7/D+kPi1OAeYdXAAAAJXRFWHRkYXRlOmNyZWF0ZQAyMDI0LTA4LTE5VDAyOjIyOjQzKzAwOjAwiiblOgAAACV0RVh0ZGF0ZTptb2RpZnkAMjAyNC0wOC0xOVQwMjoyMjo0MyswMDowMPt7XYYAAAAodEVYdGRhdGU6dGltZXN0YW1wADIwMjQtMDgtMTlUMDI6MjI6NDYrMDA6MDD+VlP+AAAAAElFTkSuQmCC;html=1;spacingLeft=10;labelPosition=right;align=left;fontSize=15;strokeWidth=3;" parent="_Tn5D_dkqsPfIdNLR1im-229" vertex="1">
          <mxGeometry x="10" y="9" width="43" height="39" as="geometry" />
        </mxCell>
        <mxCell id="_Tn5D_dkqsPfIdNLR1im-83" value="" style="group;fontSize=15;strokeWidth=3;" parent="1" vertex="1" connectable="0">
          <mxGeometry x="1470" y="470" width="180" height="68" as="geometry" />
        </mxCell>
        <mxCell id="_Tn5D_dkqsPfIdNLR1im-84" value="" style="shape=mxgraph.gcp2.doubleRect;strokeColor=#dddddd;shadow=1;strokeWidth=3;fontSize=15;" parent="_Tn5D_dkqsPfIdNLR1im-83" vertex="1">
          <mxGeometry width="180" height="68" as="geometry" />
        </mxCell>
        <mxCell id="_Tn5D_dkqsPfIdNLR1im-85" value="&lt;font color=&quot;#000000&quot; face=&quot;helvetica&quot; style=&quot;font-size: 15px;&quot;&gt;App&lt;/font&gt;&lt;br style=&quot;font-family: helvetica; color: rgb(153, 153, 153); font-size: 15px;&quot;&gt;&lt;font color=&quot;#999999&quot; face=&quot;helvetica&quot; style=&quot;font-size: 15px;&quot;&gt;K8S Event Watcher&lt;/font&gt;" style="outlineConnect=0;fontColor=#232F3E;gradientColor=none;fillColor=#5A30B5;strokeColor=none;dashed=0;verticalLabelPosition=middle;verticalAlign=middle;align=left;html=1;fontSize=15;fontStyle=0;aspect=fixed;pointerEvents=1;shape=mxgraph.aws4.service;spacingLeft=10;labelPosition=right;strokeWidth=3;" parent="_Tn5D_dkqsPfIdNLR1im-83" vertex="1">
          <mxGeometry x="10" y="14.5" width="40.03" height="39" as="geometry" />
        </mxCell>
        <mxCell id="_Tn5D_dkqsPfIdNLR1im-89" value="" style="group;fontSize=15;strokeWidth=3;" parent="1" vertex="1" connectable="0">
          <mxGeometry x="1470" y="560" width="180" height="68" as="geometry" />
        </mxCell>
        <mxCell id="_Tn5D_dkqsPfIdNLR1im-90" value="" style="shape=mxgraph.gcp2.doubleRect;strokeColor=#dddddd;shadow=1;strokeWidth=3;fontSize=15;" parent="_Tn5D_dkqsPfIdNLR1im-89" vertex="1">
          <mxGeometry width="180" height="68" as="geometry" />
        </mxCell>
        <mxCell id="_Tn5D_dkqsPfIdNLR1im-91" value="&lt;font color=&quot;#000000&quot; face=&quot;helvetica&quot; style=&quot;font-size: 15px;&quot;&gt;Metric Api Server&lt;/font&gt;&lt;br style=&quot;font-family: helvetica; color: rgb(153, 153, 153); font-size: 15px;&quot;&gt;&lt;font color=&quot;#999999&quot; face=&quot;helvetica&quot; style=&quot;font-size: 15px;&quot;&gt;K8S&amp;nbsp;Resource watcher&lt;/font&gt;" style="outlineConnect=0;fontColor=#232F3E;gradientColor=none;fillColor=#5A30B5;strokeColor=none;dashed=0;verticalLabelPosition=middle;verticalAlign=middle;align=left;html=1;fontSize=15;fontStyle=0;aspect=fixed;pointerEvents=1;shape=mxgraph.aws4.service;spacingLeft=10;labelPosition=right;strokeWidth=3;" parent="_Tn5D_dkqsPfIdNLR1im-89" vertex="1">
          <mxGeometry x="10" y="14.5" width="40.03" height="39" as="geometry" />
        </mxCell>
        <mxCell id="_Tn5D_dkqsPfIdNLR1im-133" value="" style="group;fontSize=15;strokeWidth=3;" parent="1" vertex="1" connectable="0">
          <mxGeometry x="1470" y="380" width="180" height="68" as="geometry" />
        </mxCell>
        <mxCell id="_Tn5D_dkqsPfIdNLR1im-46" value="" style="shape=mxgraph.gcp2.doubleRect;strokeColor=#dddddd;shadow=1;strokeWidth=3;fontSize=15;" parent="_Tn5D_dkqsPfIdNLR1im-133" vertex="1">
          <mxGeometry width="180" height="68" as="geometry" />
        </mxCell>
        <mxCell id="_Tn5D_dkqsPfIdNLR1im-1" value="&lt;font face=&quot;helvetica&quot; style=&quot;font-size: 15px;&quot;&gt;&lt;span style=&quot;background-color: rgb(248, 249, 250); font-size: 15px;&quot;&gt;Cache&lt;/span&gt;&lt;/font&gt;&lt;br style=&quot;font-family: helvetica; font-size: 15px; font-style: normal; font-weight: 400; letter-spacing: normal; text-align: left; text-indent: 0px; text-transform: none; word-spacing: 0px; background-color: rgb(248, 249, 250); color: rgb(153, 153, 153);&quot;&gt;&lt;font color=&quot;#999999&quot; face=&quot;helvetica&quot; style=&quot;font-size: 15px;&quot;&gt;&lt;span style=&quot;background-color: rgb(248, 249, 250); font-size: 15px;&quot;&gt;Redis&lt;/span&gt;&lt;/font&gt;" style="aspect=fixed;html=1;points=[];align=left;image;fontSize=15;image=img/lib/mscae/Cache_Redis_Product.svg;labelPosition=right;verticalLabelPosition=middle;verticalAlign=middle;spacingLeft=10;strokeWidth=3;" parent="_Tn5D_dkqsPfIdNLR1im-133" vertex="1">
          <mxGeometry x="10" y="10" width="46.43" height="39" as="geometry" />
        </mxCell>
        <mxCell id="Mj7PzjBuy7_B6rWu4sD0-74" value="" style="group;fontSize=15;strokeWidth=3;" parent="1" vertex="1" connectable="0">
          <mxGeometry x="1470" y="293.94" width="180" height="60" as="geometry" />
        </mxCell>
        <mxCell id="_Tn5D_dkqsPfIdNLR1im-281" value="" style="strokeColor=#dddddd;shadow=1;strokeWidth=3;absoluteArcSize=1;fillColor=#ffffff;verticalAlign=middle;html=0;fontSize=15;" parent="Mj7PzjBuy7_B6rWu4sD0-74" vertex="1">
          <mxGeometry width="180" height="60" as="geometry" />
        </mxCell>
        <mxCell id="_Tn5D_dkqsPfIdNLR1im-269" value="&lt;font color=&quot;#000000&quot; face=&quot;helvetica&quot; style=&quot;font-size: 15px; font-style: normal; font-weight: 400; letter-spacing: normal; text-align: left; text-indent: 0px; text-transform: none; word-spacing: 0px; background-color: rgb(248, 249, 250);&quot;&gt;AWS Ingress Controller&lt;/font&gt;&lt;br style=&quot;font-size: 15px; font-style: normal; font-weight: 400; letter-spacing: normal; text-align: left; text-indent: 0px; text-transform: none; word-spacing: 0px; font-family: helvetica; background-color: rgb(248, 249, 250); color: rgb(153, 153, 153);&quot;&gt;&lt;font color=&quot;#999999&quot; face=&quot;helvetica&quot; style=&quot;font-size: 15px;&quot;&gt;ELB Controller&lt;/font&gt;" style="outlineConnect=0;fontColor=#232F3E;gradientColor=none;fillColor=#5A30B5;strokeColor=none;dashed=0;verticalLabelPosition=middle;verticalAlign=middle;align=left;html=1;fontSize=15;fontStyle=0;aspect=fixed;pointerEvents=1;shape=mxgraph.aws4.vpc_reachability_analyzer;rounded=1;shadow=1;glass=0;sketch=0;labelPosition=right;spacingLeft=10;strokeWidth=3;" parent="Mj7PzjBuy7_B6rWu4sD0-74" vertex="1">
          <mxGeometry x="9.999394668033688" y="9.500000000000227" width="36.891337967898394" height="36.891337967898394" as="geometry" />
        </mxCell>
        <mxCell id="hDUS5wMfhW6zqDfbg5dA-1" value="" style="group;fontSize=15;strokeWidth=3;" parent="1" vertex="1" connectable="0">
          <mxGeometry x="1220" y="493" width="180" height="68" as="geometry" />
        </mxCell>
        <mxCell id="hDUS5wMfhW6zqDfbg5dA-2" value="" style="group;fontSize=15;strokeWidth=3;" parent="hDUS5wMfhW6zqDfbg5dA-1" vertex="1" connectable="0">
          <mxGeometry width="180" height="68" as="geometry" />
        </mxCell>
        <mxCell id="hDUS5wMfhW6zqDfbg5dA-3" value="" style="shape=mxgraph.gcp2.doubleRect;strokeColor=#dddddd;shadow=1;strokeWidth=3;fontSize=15;" parent="hDUS5wMfhW6zqDfbg5dA-2" vertex="1">
          <mxGeometry width="180" height="68" as="geometry" />
        </mxCell>
        <mxCell id="hDUS5wMfhW6zqDfbg5dA-4" value="&lt;font face=&quot;helvetica&quot; style=&quot;font-size: 15px;&quot;&gt;&lt;span style=&quot;background-color: rgb(248, 249, 250); font-size: 15px;&quot;&gt;Report&lt;/span&gt;&lt;/font&gt;&lt;br style=&quot;background-color: rgb(248, 249, 250); font-family: helvetica; color: rgb(153, 153, 153); font-size: 15px;&quot;&gt;&lt;font color=&quot;#999999&quot; face=&quot;helvetica&quot; style=&quot;background-color: rgb(248, 249, 250); font-size: 15px;&quot;&gt;NodeJS / Express&lt;/font&gt;" style="shape=image;verticalLabelPosition=middle;labelBackgroundColor=#ffffff;verticalAlign=middle;aspect=fixed;imageAspect=0;image=data:image/png,iVBORw0KGgoAAAANSUhEUgAAAGkAAABgCAYAAAAejVzyAAAAIGNIUk0AAHomAACAhAAA+gAAAIDoAAB1MAAA6mAAADqYAAAXcJy6UTwAAAAGYktHRAD/AP8A/6C9p5MAAAAJcEhZcwAALiMAAC4jAXilP3YAAAAHdElNRQfoCBMCFjB92tHqAAAkOUlEQVR42t19eZheRZnv761zvr2XdHc66Q50CA0hJCRhMbIOgijKongVLu7jrgMj3ovAdQCfqw4i4jaDoDzjDAMKKiKgeF0GURh22XfClpCdJN1Jev3Wc+q9f5ytqk59X3eHmKiV5+Q7p05Vnar3V+9adU4T/gLTZ25qw/zlEptXEfY/3EehkEcp140B9zBc/dzN7pF70axSZnZ/zmmfnxGFQYdy+ziUHRBweomcHoLTIUiUCJQFKOMg42RQuiQn2i59ZvWrOGu//97TQ5xRcvd0B6J04Z9KmDtYQ7Xso6Nboi3fjRMWvRl3bLk+X0Bhb+nz4k288uDTF71hmSNy+wk4/UTUCXCBSQqGD0YdEhLBuQSDAUjk0IleXr69gTHcee5dAGhPD3dGaY+CdM5vgX0PIYyNMPrnE9ryC/CB3pfxvfHcHOnz8lfxyN8tnn3oUQ7llgiiuUx+RqIBD6OQqMdgADJukwEkIBAARhalusv5tQ4yOO36A/Dzzj056pmnPQLSV1e6mLtvAdVKDe3FuTip/3O4e+JLvZ7vHXEjLz2pr7TsWEHOQpBfkKijgYkQFIkAhoQTCGRc64kBOMhPuChuIiZ8uPPlPTHk15V2K0jfWCOwdJ/DsX5iJTqy+2Hr2OPZkuSDn/Sue9fs4pJTBWGxpEbOxzjqqILhAzCBIIuw0oFLcgO+cpDbkePOIR/13UrcXZV2C0jf3ihwyLwzsaZyD+oowWevs+FVTti/+w0fFIKOBzV6fIyijkoIjErw6Jyt8AR30DSfQHA5t6VDDoyO4NXdRNZdm/6sIH1zXQYDA4swUd6GcWwHM3eXG0OnzS4t/igRHylpMtfAJBieokvSAisitgkUx/9TU6AAAQf5Db3lk8tD2W/vARK//vRnAenCBxwsPGQeGl4FLndDyq3tZW/ruzryA2eRqB/uY4crUY7FGSDC30hs2YFKUhqoZiA5cJBBfu0VnSQPGfnMbiXurkri9Tehp+8P92DU9VFw52GsMuw2vPJJs4r7/tx18Z9SDB9dx2uuj7EYIAYUg0A9oNwPzgKDmuM8GeYGeXq9ZIAZOMitWYpTUXK79jS9dyrtMk666EGBZYcdgYZXwbve+E5sqz23aJ+eoz8PUXufT0MdEpMIyBpwSpqc3EJkkSLampVki9ZiOMg0MlxY14Z5WL1xw24n8K5Iu4ST/m3rfrj0SB9Z6ob0kB/11n7CzTq/8p1tn27Qxo6Ac2Q41zkmsso3CS9FvKHyR/rf9BLBRXYig9KmPHfhvQfesKfpvVPJeT2VhQv8ePR4ZEQnNuTvQL1RXZgtuN+SzvYvNGjzHB/jUB3NKHFLRZ8ILVL+N5P9HsW8FJ0V0fNaPw79Xt1rjMnCMrzj4hwOeuNyPPK7l3YzqXc+7XR85P/ck8VxR3wYnl/DN/7hpzj/mne9w3OGL2vQpqUeRmEHJyKfvRucyo2MCBvDi1RLUXk1v5v3e8wZ2+u0a3732Objz3xeehNZyHoRfqUTta2DyLRvx8SqJfjyKT/dE/SfVtopkL75/Hwcvvj9KNdG4NdyBb+48XM1Z/0X6rShS6Ial+OmcOg5PCW3qEdyV3VyyZInIFD05k5sKD/1vM/eakhnJWTmWZbui7LasX7BwNqxDeMOuNoFWe7F/9pnJS5/7ARcfNTd8Bs+/lLSjEH6waq34ojBEzHUeA1enXrr+TVfLTsvf7yO11y7I5o4oyoX2U1qsuYGnESW+wIq/5jPdJGBU2vDxspTgIjMCvIItJ1ZrAK7T0C6D7KXf5Qn91qT2evJqj/eDVmei7aBlRh56hScf8hv9zRGMwPph2tPxtvnvw3P+2uAenHfiexzV4w7z72zgW1I8w1N8duqOzaNkwaKQpGXFqDBdRZFNCYJmysrQWF1Cg9QrL0kIDZDOk+BM3fCL9wpJ/da6fQ+WeHJPsjxBaDcGMafXoEvnvKj3Y8QZgDSz179JN65oIpHZB+4nl88mnni38bE08d6NJo0xqpxTWHrkThrFnuzE9heTkAHiUKohLWNPNoxPjqJ4foaCBIAcQBQ1D3Suhm0x2Ib2H0UMncbvNLvvQduXJ057h3MkwMQnWtQe+XtOO+wW//yQPrRK+/BwfsVMeLPgdvoOWjYve+aEeeJI3xMWIipNE7KHaYoE7pyt9VONEw6X6Tqp7kpOC/wLAyPbMVoY3MIUsiLBDCx2p0YvPgXBLCzBjJ7O/zijZhc8BB1PVXh8gK4s19CdeUp+Pzy3SMKpwTpivvOwPHHrEDZq0A0OhZtyfzxuh3i0SN9KqeqT414SMxo6sakFdaydqBErItagUQACrIbG3esQdkfhSBKQIofz/GjSO2WBhYAdsbA2XvhF66lWt8daH9xDBMLgcIWeOvejHMPvuXPClJLZ/YzN/XghCPegloNKNQHBobcu69uBhCAJoEZvQQbLiw3rcVNWjSdWb2Mau+xBDzUA86B4TgzAu7m4CbLII/DpqLzoJjfwaJyKjIjP+bi6l+gMetMyEIbqAa3ZxWu3LIQF99yxp8NpJaT/7nJG+BRBQVvXteq3HU/GHLuPcMT4y2qTsfkNsRgXEI0FYHmelIk9lTuSYyIqIZAptGBtWMrIdk32lNaUjkKifhTz9O9dWqQ2TvJb7sSI0f8AV0PN3jrCaDSOpwz//7dB9KTQ9cjly9gn8bpmfuLH798s3vHuQ2x3Rgit2iKWj7EDpTq55j1zfxI7NlAAgRcoJbH+okXEUfX2fLEGBD9JhlAmeMIxeA4ceFmNGb9C/euf4a2HgBR2IaJF96ELxz+i10GklXc3fHq1zG78Ub8qO0MPFI492NDzn1nN0gFCMHANUmTFktIRd6Uu6yLrCR0yk32LZjiT2/RFJsCDhqyBiaZ6B/BmlWn4pbqPSv5nC7DAEB+O4vJj3F2669pR8+5JPOd7DOKnXlcue7oXQZSapKfeVU7Pn/251BpjKDgzztqnXPLzyfcF/YypxOz0QDN6DGJYFI4ijXuifgnMRKS/1UOcpQ7iTmeQQHjk5MYbmyE4MAxCFyEafbStPqUAnaZISTJwn/B6/oyZq9/hLYcBDhVvHbfwbj03a/PZE/1+akdP4SfHUde9vW8lL36pu3OIyeAkrWfaTU4LcNeIXziWGq7fVQxp4tB0wRPgBQQIABZLmF4chvG/OGgdMhocde4WY/sIDUHKloxDs85s55k+9eofOB1yK+rUmkjKi+fgPOX37HTIGni7iePfw7t3gE4rPhZrHNvOXuUnjkB5KXHZF+fS8pNayUhEYVgVSDqC36JFRiJQKVeeJ810ZjUb6CmqzIRumuqX6wEMlgtG7XHMPoTnevGTNQrUGOAnZHvcumZ70IW+rnWiVz1rbhy7bE7DZI2eR6qXoIxrEZW9hyxwfnVbVVn/VwiYQepZUth1gyCTqT4TnqDZFwJjbKqqRAZEgICGVnAxsl18Liud80U01G7zSaWyTmU5nN7FQJx/m543eehuP4x2v4mwJnAZ/sfnxlCUDjpdyu/DlHvwGDtE4UhevD8qtg0N9IX2gxvtTXH4CzV75gqMdsaUhfJk6X2ZEFQ5SipcZQvPUhYItkG1ySxvCZH8x43IUfCVUyV45AZ/ilV+0/mve4BCcZVWw7eeZDEgY9iTe4neMG94qQJsepUiGiAKZtmGhTfObBMiy/dYARJM9En43OPG5Aspx+dbAWSca3vkrUDFcUsGfWF7Oy4lkbmfLh06+Mg4eN7Q0tmDtJtL1+E7MQg9q6+t31EPHeWJ8YKyYwwiG1ZyE7/hodhnjPbFsJ1XZSUgXnHCpS5JB9t+/JkIwioWoicDtW2wI5s5WzRluasx1Sfy87olRPvn/NpZ/2XiQi4enj6QAkAoH2ew6bMr7HR/fWJNdr8JiLdB4o5wWossOVXUf4xF7UWl5pHlTIk2FIyOpfhWcJNAKPBdajmXETs6Yq3VtIuHbGM1EKzcgRGo5Od0W/5+/3DWaXNXyYQ8P1t0wNKXPzr4+GW+7F39WP5Mq35iBSVnG7eNKnZwsJLFzDE3dRBvrgCG+Czdh6BJFNlPW5YbZApATLLaEVsa1ecurIPjwD47SzGvz4xcPbHN3Q/D2IX3xtaOjVIhx41GyOZh7HJuXVFnbYfp1lkbAQUmh2te6fRvRlY3KyCIcxIEYVp4yLMZYbHXkzlaRuZqlERZcUBvlaVmozXmue1szP+jXnjvaf7s56GqPfiyg2HtAaJyj34cfFxVGnju5lqnVFUeDrEtwHIU9RpCpa1mtlgAhRS8Cl5LOGzb+UWVg4bJ8WXKa6j1jKwBVBaDwlg8rrZmfiOKPcdLbsehbvXk7j8ycOag1TrfBIfHDtyrkdjbwtdoiRMrx6YmoEiemp1uDlmdmMu4pPkJTDd2W0GVMBNBMBnCQlfp6mhk9TFPhMYMiuq6EEpPA2A4nOjuKT6fOmMfUf4Hfug3IuuAzY2B6nsrEZFbHgDi9pCs+HXnSzIprI44QFwertxHHDlyD9KfCEdqOiBBMlekKNwghmu0mhOgAiPyKmOylMYT7LGKGfirZt1AYDqR7Azepnjd7RBuvjB2D52kIaKQ/Ax8WaQzOmU3TXYAGhpHTJ0zmvmVLHCYTK1py/hNALgsR/CZaeNmmmTYBRGYtNL6pbY5BQ4WfWSGkCk2pnSHf7UZGkjyCviu6sG0yD1btuvQ6J2eNARW+xsaiBU9S0tedp5SpQqHNNETMbPZFbKy5BG5qZlwJOelTBsijgzZgeV+cKQrmXlb5rSLsXJdt9YOkzVC4qVrqNkaT1K+25Ng+Q72xdAyP2TtZWoKd2yinyXiOhAImZmwnuJmAv9IQYkG0AbnJfWgwlHRRyjOr0++9rs5xQAaTpGF4Hd1IQHrTLPaLip+a4TSe0zk9fPovolp9HWKSt5/PuOPh0kSdWlIO5JHLJUDCAEKCGcVXzNFC0VMoW1UmApEyQ2J1gasQZFhzHDZ6kRvRVAVmqbGJBxX803DtUQiaMabJDFMJiYAYnGW31n/IONwjCcLfNx7s0DcRGX4S8ThFykdFmbm/r/an4zkqc6YaODUYCUUahPYApnhvqrPEMShxGyxOMPAJapR9oMB7WvFJohGh5qN6PdLCaAxlhbSUG1OisXwaPYkdT4XKbWcbu/z8pVS/uTt5IESC6KRB3HssXwMk1TjDnWJ6rYSpebKg9pi09TaHr7ujsQcBQrO44CLCWYGUTJVi9tb50lCjGV08sRe4SrJJrZDjuXpmeIMiea+Y+Qi5gan3osPw7UXVzw674QJPB8DQylNbbINNN51B+f9qBSgdiY6FI3Eiw+WdyM1H9tQEVFfCljKw+I/B5K+0OqWCPLfIRibBj01nxbGzItUWuRiCHJe/+KWmkJt09iybGTIUiE2TRFazr5jVe4NE5hU8XYOYcBZlK4MV2HmSEVHZW6LwOdJcGh8xq8RRjpo4iDkiM4ofBIyqg+kapnkrJmJDwev91csyBq3Ce9jci6ZAA+8XxJ3oc25spAPRB59P0xZ7ubS79MmjiZQDP2NLsesDJZVBeZpZICzWaiyk+k58cSSpnSRA5c5NGoe6j45YC4IpJmnG7amGiawLPoGY0eUf7rcScNEaxypAPxUsZ3TwR4nTeUhQCQT8/yaT7IppMUI0AXkuYWrCaiznZI/Vdq+jAMG4XRiihmR0LXQalIj2Kapb6qYlhpZl48BsPH2gmMtPNoYwDAC9nxT23kPfQPjCn5002GwrffsnlQM/CpLCKQpXowpARkeC1lpOMCsSeEoYOmcGJY6Iek4FDzVHEoLCDaRFpTvUTJfE6peAKYmCTxu9omM4Udk3m4nHxMwfDulTYNQGzgtMI01ROeGihudUMRpxwSjJkhhYQkCTHFzLYqezYIrtMttsBjCWz0Qxue2T7p922mvKqnQpN8RSPrLwHhMZeBSQkuktIz0zBoZc9NSWBuXpZtAzUqcqpC+t3zSF9UZQ1u0YEQsiUxzMuI4KqO0Vwk1itw9Ks5Pkme1YFNqJ8eZgR8bMEwGOhh4LiGy4+5LDECRi8rI7ISFM2TafvbiGjSiC3Iq+1wNJ/UvOgNCObYOpQS8H2gUQdqDYGBgW74zhDArEkAVh+uAhRlGwTUOCX8Vd6UCdqM/Eu2cw/F/TYeql3anGQKPQ4+tmdcXOUy4zVmLCSilsSdChgrkAqRyOQo1p+nbUIMG2dWuFsx16WkWCf5PuB5AUgeMwguHDiQ8FKEC8CguGMqsVUCUqpS8CtDoOIgSBPwoz6TCjLUwhwDpMZvSZ2YQb+WVbO8t8uSVzPzm8x4CJsjbMUpthusthYRngxuMQBiBXyLlSdjgALDwZeA9AHfA3yPIR2G5OB7QiAZO8/JNuYk/GMJ0cVbylTCp9QJJX0jCyFSbarPieWg5eFqDxngQOT1SYHFLks8xwyOdj+l/Bi2i0BumqneT+s5GzDRoOMQUXguFXAi0cYROJF154fnPgA3cIBdOCB4cQTc8JKQ7DyPuhDObPXlAQWwWG+pA4g4ILwWkU5KkT4VBNTfTI1KhQ2x9gIDikw41PU9POVKHmeBDttTpgTHVl4BR8FB0S0KOBGICkBRREJGpngYXQgA4hgslglAzABEEBYScMGoN9WypgpIpFJUOoj9pYBSMTJIxWkskqew7Y1eBVRSwFFYN2BWWux6dX4h42OjcNGhmltsMHokrqzIAbp4NMFRgDD9LH1VVuUe1l6RZE44KAZI4S7JDEcAvvRB4dd41Mi2+auCk8ADpZ4BlGEix/UtaDMiLlGmiR1FrTGtBMWbUwfF9jX8mvTwJMuIdubLXqpoUi/UrFB8qMRHQvhwi4IeIDUPU4xJirmHI26xARS1z0GUwZc+BFxNpJnvups+py0lEXTSxGDsAGsHhZyQxAcTeRgipr9noN8OaUdqkVjnUZ+Ytyzj+Q3cxdLopbJUbQtcqXjZwImIFwMUlVGBUgnOMKIISV1pgKLWhR9yHwEkCJ70QeyENEngMCf8dA59omu6wlRNejzRYBattBJfIiVLKIwloEQ0iDpFbZLh1XGv9LFJ7YVpsWk7t0N0EnD0aLUm0lTLTdFJscUGHRxwYKFFoSEZg8IxyHq0XJksBEjpga1vB9q/9qDN3hRncVKOdKBI+2cx2ylqm+JXsIVxqJwUVePwYYnvRkXRqEiMbPBe8Rt0dzzLUwBF1xQqQUo5itrShMItzQCSKkco99X8iHMSDmKdC1nJF4F15ksfkMkHOdK8FBkHyYenpsM90SQQRPFhAiZIF5FEIlwwpGSpRG0/Ep0xaYOM4DopJbJFQu/+ec+r0U3sUy3udAqgcGiGXmL1v2lykDRM7MTk5lhMSoNTVN0TTyYJjYsCTpKQHL2iCQtQwRFxD4MgNQ6BUdL+L3hmQvz4Sy+k86xZK7HiVMWk11D5kkiw2PC0RGWMUB1z7vIb9FDT1dEUDup6qw5UfM2JaFSJTQoAKhgJwGmO0axBBfwoj0QEtISUjOTzAdahtzhLA5KIrOaQqaCqLZrPJZDmC6X5EVC/xiSQaYgrTmXMHqyjs1+ONqriWukHL8maAOlvbit7RlXblKEBl3AQw2BAXX8hAcbkRtOEZxuoYFC4PMEs4UsJfQXGLtbs8Nh9KAn9pWsVBpoCQH2ScKof6fOE2wTcEQEA6x4tYnw4g+pY5ja/7txvBj9Toi+6nbCMznoKQhzqMVbYIeHWoExqmRxpUaiCbgLICDkpLOPHnKRHGMyZOxWX6WVYI7n6iVKTLs0mg9qXNAemyxEILvJDAgAuPXIcbT0+2nrljkbFvUL6omxzWGNw1MYU6qobTWIQOf0toGi3qhqGiH0/zXJRQVcmho06IiGf7/tIf16WtKJ2oWTO9ah8c8vQ7OJ0ACNt8jSxEBFoziy3rYllwuYXXIxvyWHHuo7f+NXsTVAdVNi4iNI9syoyCwdEIsocXWjmmLrHpITuYAeji60tDkJD6kc4dIimn+wWn824sCcTNBuwzZ/JcOAih+7nYpAuO2YMTpbRNVCr1yeLl/v1zIvNNlrEEQYFALY+NFqlUs2N9EBMJFQA1DUZ1h6UmC+gRNwBQdQh+uQ5WcnbGrTmokr3rZrdawZWM06zAcYAXBQrJe5/UnvW+icIf7zsFHTM2/5Co1L8ivTdsu2BAKxhentS4uocXVu6HVl09ia0Xw3q0LJTCSQ5iDrYiWzTStNLzaISM03TJV2OOzd3ygOf1kby6M0VfPDqcVRHO7DtlYEXSrPHOpyMd4y+rqy4hi30lkp/s6wqxtgo32wrWZyf+i4dgzJAJkcQIgDMdVy05dsgqRyLjlguGkSfCoxW5alFO7b66kulZK0f5Aa2qYsuLLzv72pXX5PaKfTPh6+GcH3MXrjJq2zvucyrFm5VQ71NcaEpskk5Z/3+1PvXQu5j2x0E5rcyfGYfwRafhCDNyDcVN9iMA1trzThMB4NgAqSWIqX9DEro4H3v+nFxTtW6neuF3zvI5D3k2ss7qiM9n/fqhXvi5poqqilGqFxrn2Ztkq+3TUhvIkieGX+pOGxKsgz1JiF5tax552Yqtmz6pZUuUu+bIld1AxRTCyXuG+rm5Xct9y+077m74dxXseaBHrTPG0KuY2JtY6znLL9WfIRb9ayFbGhVzARX3YBoLcvpLCHMshIsg1gBW5/TSlClU6tSNiCalYvK6H8exazHcDmHTux//0HV856fWz+5+cbIq973DNbcvRxv6d+CbPvo8/Xx2Z+U9eLDqRGT+vDmg0uZrQb3TPXmnGoFmfRO9nZH5WS4WUQklcx+NwGKLHnTSXbrNrgTeYJmfE69VhdZS+hvzJaH/eze0ofqXuGV1n9Q5L7rN6HnuCNx0dKX8WjD3VIfn32fcBtLhGjsi/jBTVCJshQQ1cVJnb0tNDR8r1RIKLolgGye4DiB2BMECAdoy3ZCuHVINDS92BwUMq5bQTm9pLdITdrWg20OZ9CHox4+yPvfl7T5B1TGNvVNvcX40hP+hC/edRSWzBmCWxh/oTE67yOy3nEjs+Do2z4pbmoysuhearuuwYbTIkgYiI3ra89mSJYguFYxR4bwSRsX9l7sHFB6tCKYZ7YYQzD72jDfm8tH/8fD2X/cfmf2eCyZv2J6+8AvPeFB/Pfv34zcrB1wcpUN9eFFn5G1WZeyzIyDwiVU5WPoJlDaZnfFBDI/wmT7/k8MbIpIrMXszCSlhEAGqrhpTsiEoFNoUI34qthqDg/iRZPmH4kKAMqgiLk4/L7Bxgd/sbx+CU4cXwVgBn8/6d4b1mDZYW9H+947QJC1sYfOujvX/+xLJLxlEF5vMiZK6xeTS5qJPTNfi66TEU0P+EFkCZkMQTghdwrAEUDeLSGXycLDBEBC2aeQbE/RX8BM/+qiUAVED47qmi4d/TYFmznZohZ6cdj4oPyf523J/OHpotNAf/4EADN8o+LyM36Dp65fAG4UUFz8K5npWnezP7H3/0Cj84dgpxoF9QEGRX8XQvvmNqe4xRR70SsrhHDdP+Io5e9MJA5qaNkpXBfV9aUHQgYmZxCa/ykgk4xsENcylxQY7V/5V4WrHaAglWge5vHx1+838aH/WlD9FMY3L47vzfjPxV130R04f/HD8Mt5/LLEoEzlpcamYz/D1d6Pwi8+muytDQkbdSZakCIdoPhrJFB0k0jASgBU3spThqj5SMqvhBeIO7KRZab6Ju2mkvWeqePIAqaZGC7asDe/5bH5/mnf3Nh2u98Q27Go/8idBylKFx5xBw6+9j2gRgdEcUtNtG/8mRwfPI3rXReBc6uiDmirywCivUpECbdFYkoovyAdJF23JawjhPG5dwqGJVkC7DTVGGHvpjFSGx+lQUu3PbWzG+Rn0MdHDQ/It124JfOHNePObfjto9e37MFOpcsfPB1zj7wFI2uXILvP86ivW7I/5bb+PZzKByAa+8Xfo4vjbeFjZdAFVdeo27ekJG2XqpQMv8Hw/GA5whdAoV3AzQR6SAiCcAVcIZB18+jvGETVeSn+ZIBu7Nph0t0C0nhhyuhVUyCawSjQixX1hfLMLxwoPvuvI5NrsbX2Eg7oOXHXgwQAA4vm4tybD4G/fRGyg79DYe+XUV5/4CBlt70HTuW9oMZykJ+N1/Ui2131fSKgTLB8gvQ52DzpAY0Gw/MZ0mUU2gUcF3CIIBwHQgg4QsB1stirY3/UMy/B57om9lSwTNI3W0qYCiSaRn0zdWMp7yff862l5X/64lDm/rrPhP7CMalyr+uvY6ppbNskbr96FQ5YOohZAw4qq4+B27l+h+hd/4AcXnwriB8hQp2AWUToALFqcMVGA5DoIHVvGiixQVhSsESeATJZCkSecEHkgkiASECQi/ZcD9jZAQkvaRjTn5mtzAubod5c/6RFZhcOwgJ50n8O1N9y0Y7MExUQoT9//Iz68bpTNp/B1x58Cyb/dDY6T7oY1LYWjWfPctz9f76A3PFj2amdCPJWgLwBgAvmYp/2KYBwC7LvEzwP8GpApSaBAiNfdOBQFkK4EMIBiWD/myMymNe+L5BfjTqPaSABwZJ4s7d4W4m8pMzUfpfpMkcirgsHYUC++Zo+b8X5Dac8kkEbvnrzZ3H1+17bvSCp6ZJffALthz4EOdEDMWsdqLgR3tMXOM6+P+tDZnQJnNpSkL8E5O8PcD/AnQwugpEH4DKziMEK3+qbKDOQc5DPdcKhbACOiEJDBCEE5pQG4BbXosbDiCytiH1FaEgnoU7bGrE1LjCDFAAsYniy6MEyv49X/GBWfeGF7PijObcTtz37dZyz7PkpQd9t6Uu3vRdzDn8W9W1zQe3rgPwwRGEE57QD33p5/6LIjXeQW++E8GaBuYvBnUTcxhJFMErMKPo+ZSfLuVkZ98AzHMfpYTEOOHUIxwc5Ek5oFXYV+pAvbUIFm5KhaiBBA6rVakv0m/xhcB246PXRdDQwKOGiHbOxfLJHLvpGod75LXLy5azowB3rvo1/HFw3BdR7MJ3zL+9FpruMRR+4H5vuPwClviE4hUlQpgoSDQR/uNIHkQRIgoQEBFD3gQu6gH996axP18Vr35HO9hKcMuDUQa4PhxiCCO25HrS1D6OMV+OhMukBnYSM6sqTbcUn2a1B4ZniBVpiFwloRfSjmxevK/Hs/1sdf/WG9uJBvktteGDjj3H2gvVT0mmPgjTd9KFLj8ENF9+PwTd24W0fPhzHfuhN2PHaVsyZOFKs77r5fM8ZuQTuZBZOHeT4EEKCiFDKdGFWxxgm6MVkoEQpgFSems6WLDUxjK97KW25KKITg+jgvf7gSnFRn3PKIxtqv4Qjcvj2Zb/FL780Oa3x/1WAZEtXPX8OJE0i683KThZXfsV3xy6AU3XI9UMnmVBwOtDTWce4eDoZMCVvOQTENInbLJqnelY2WKL6wcvVJfRjFi/YmuXc9+velu+V3MHhV0ZvwqzsIpzW9tyMxrrTEYc9nc456CqwqKGW31Av+H1fdZD9d93oDV7nJM4GZnlkBKibYyzBU3MjZAAJQX0Lw85bgWlQRB/mYkWtlw+4zZWNd79J/PIrIDEMUQXL9hkDBPwVg8TM2HTrXMCpo5EdmszL7otcyt2o7sIONq9k4cDRPp8WhIHJykVJijRPdKdZOIhBcFAIwKn34dC7ipz/8Jj30AcE5R/46UQbJryNePCVu/CR2Tt2aqx/teIuSl+97jy0vfVxEDtwON/fyA5fw1Q7WZCAI4qY296OSvZP8FGDXRPtDGEC6BwUUMActGNgooBZ9wp411V5ze1ttHR0yLsHOdGNzZVn8fdt1dc1xr96kADgmvsvwY6FtyDjd8Dl0qDnjP4IQh7jUB69pU7U8w+igXLMXxGH2PSPPUWWH0EgiyxmoYR5aMPc9Vm03S4gb5zk5x7soBXlEX4c3fRGrK79BGfmR3fJ+P4mQAKAa5+4EOsO/Da6x49Cxu9c5rvlG8ih5d35TniFP6GOEcPkTkBKy/zEziM4cFFAFp0oYi4K6B3Oof1xB+5vJMZvX4mbXl6Kj8pRfhbttAib5P/DGc7YLh3b3wxIAHDtyvPx0Su+iau/9lbkvDnHSLf2o7Z8dpALD6OKLUheLNO/1hwAFfwvkIGLIrJoRxazkEf3ZA6dGzIoPCXg3ONj4v5JvPLiXJxcGcGTGMXzyGIWJrASZ9D4Tva8dfqbAgkAblj1T2hrLMCWgVtRLA+ekivU/4NKT/RXsCH8dIADghOeu3CQQwZFmUGpnkFpMoPSNhfFDS5yLwu4zzAaz3gYe3kr7ty6Lz7hj+MljGM1jsYP8Ee8E6fTxtff6SnS3xxIAPCT1V9EwenExPwL0D5xzifzxa3nCVFxBFxPwK0JZCYF3FEH2W0CmS0OMhsJzgYBsQHgTTVs23YUrp18Gl9GBZtRxiaUsQEdOBBDeACn09rdOp7/D+kPi1OAeYdXAAAAJXRFWHRkYXRlOmNyZWF0ZQAyMDI0LTA4LTE5VDAyOjIyOjQzKzAwOjAwiiblOgAAACV0RVh0ZGF0ZTptb2RpZnkAMjAyNC0wOC0xOVQwMjoyMjo0MyswMDowMPt7XYYAAAAodEVYdGRhdGU6dGltZXN0YW1wADIwMjQtMDgtMTlUMDI6MjI6NDYrMDA6MDD+VlP+AAAAAElFTkSuQmCC;html=1;spacingLeft=10;labelPosition=right;align=left;fontSize=15;strokeWidth=3;" parent="hDUS5wMfhW6zqDfbg5dA-2" vertex="1">
          <mxGeometry x="10" y="9" width="43" height="39" as="geometry" />
        </mxCell>
        <mxCell id="wssLdagy5Da7dfHTv9jN-32" value="" style="edgeStyle=orthogonalEdgeStyle;fontSize=15;html=1;endArrow=blockThin;endFill=1;rounded=0;strokeWidth=3;endSize=4;startSize=4;dashed=0;strokeColor=#4284F3;exitX=1;exitY=0.25;exitDx=0;exitDy=0;entryX=0;entryY=0.5;entryDx=0;entryDy=0;exitPerimeter=0;" edge="1" parent="1" source="_Tn5D_dkqsPfIdNLR1im-41" target="_Tn5D_dkqsPfIdNLR1im-166">
          <mxGeometry x="520" y="203.94" width="100" as="geometry">
            <mxPoint x="1690" y="392" as="sourcePoint" />
            <mxPoint x="1777" y="370" as="targetPoint" />
            <Array as="points">
              <mxPoint x="1698" y="356" />
              <mxPoint x="1698" y="424" />
            </Array>
          </mxGeometry>
        </mxCell>
        <mxCell id="wssLdagy5Da7dfHTv9jN-33" value="" style="edgeStyle=orthogonalEdgeStyle;fontSize=15;html=1;endArrow=blockThin;endFill=1;rounded=0;strokeWidth=3;endSize=4;startSize=4;dashed=0;strokeColor=#4284F3;exitX=1;exitY=0.25;exitDx=0;exitDy=0;entryX=0;entryY=0.5;entryDx=0;entryDy=0;exitPerimeter=0;" edge="1" parent="1" source="_Tn5D_dkqsPfIdNLR1im-41" target="_Tn5D_dkqsPfIdNLR1im-238">
          <mxGeometry x="520" y="203.94" width="100" as="geometry">
            <mxPoint x="1750" y="410" as="sourcePoint" />
            <mxPoint x="1790" y="478" as="targetPoint" />
          </mxGeometry>
        </mxCell>
      </root>
    </mxGraphModel>
  </diagram>
</mxfile>
